%TF.GenerationSoftware,KiCad,Pcbnew,7.0.10*%
%TF.CreationDate,2024-03-07T20:10:10-06:00*%
%TF.ProjectId,Coax Switch Controller,436f6178-2053-4776-9974-636820436f6e,1.0*%
%TF.SameCoordinates,Original*%
%TF.FileFunction,Soldermask,Top*%
%TF.FilePolarity,Negative*%
%FSLAX46Y46*%
G04 Gerber Fmt 4.6, Leading zero omitted, Abs format (unit mm)*
G04 Created by KiCad (PCBNEW 7.0.10) date 2024-03-07 20:10:10*
%MOMM*%
%LPD*%
G01*
G04 APERTURE LIST*
G04 Aperture macros list*
%AMRoundRect*
0 Rectangle with rounded corners*
0 $1 Rounding radius*
0 $2 $3 $4 $5 $6 $7 $8 $9 X,Y pos of 4 corners*
0 Add a 4 corners polygon primitive as box body*
4,1,4,$2,$3,$4,$5,$6,$7,$8,$9,$2,$3,0*
0 Add four circle primitives for the rounded corners*
1,1,$1+$1,$2,$3*
1,1,$1+$1,$4,$5*
1,1,$1+$1,$6,$7*
1,1,$1+$1,$8,$9*
0 Add four rect primitives between the rounded corners*
20,1,$1+$1,$2,$3,$4,$5,0*
20,1,$1+$1,$4,$5,$6,$7,0*
20,1,$1+$1,$6,$7,$8,$9,0*
20,1,$1+$1,$8,$9,$2,$3,0*%
G04 Aperture macros list end*
%ADD10R,2.500000X2.500000*%
%ADD11C,2.500000*%
%ADD12RoundRect,0.250000X-0.475000X0.337500X-0.475000X-0.337500X0.475000X-0.337500X0.475000X0.337500X0*%
%ADD13RoundRect,0.250000X0.475000X-0.337500X0.475000X0.337500X-0.475000X0.337500X-0.475000X-0.337500X0*%
%ADD14RoundRect,0.250000X-0.550000X1.050000X-0.550000X-1.050000X0.550000X-1.050000X0.550000X1.050000X0*%
%ADD15RoundRect,0.250000X-0.300000X-0.300000X0.300000X-0.300000X0.300000X0.300000X-0.300000X0.300000X0*%
%ADD16RoundRect,0.250000X0.325000X0.450000X-0.325000X0.450000X-0.325000X-0.450000X0.325000X-0.450000X0*%
%ADD17RoundRect,0.250000X-0.300000X2.050000X-0.300000X-2.050000X0.300000X-2.050000X0.300000X2.050000X0*%
%ADD18RoundRect,0.250002X-5.149998X4.449998X-5.149998X-4.449998X5.149998X-4.449998X5.149998X4.449998X0*%
%ADD19RoundRect,0.250000X0.350000X0.450000X-0.350000X0.450000X-0.350000X-0.450000X0.350000X-0.450000X0*%
%ADD20RoundRect,0.250000X-0.350000X-0.450000X0.350000X-0.450000X0.350000X0.450000X-0.350000X0.450000X0*%
%ADD21RoundRect,0.250000X-0.275000X-0.350000X0.275000X-0.350000X0.275000X0.350000X-0.275000X0.350000X0*%
%ADD22RoundRect,0.150000X0.150000X-0.587500X0.150000X0.587500X-0.150000X0.587500X-0.150000X-0.587500X0*%
%ADD23C,3.200000*%
%ADD24C,1.524000*%
%ADD25RoundRect,0.250000X1.050000X0.550000X-1.050000X0.550000X-1.050000X-0.550000X1.050000X-0.550000X0*%
%ADD26RoundRect,0.150000X0.150000X-0.825000X0.150000X0.825000X-0.150000X0.825000X-0.150000X-0.825000X0*%
%ADD27R,1.500000X1.500000*%
%ADD28C,1.500000*%
G04 APERTURE END LIST*
D10*
%TO.C,J3*%
X131134000Y-134170000D03*
D11*
X136134000Y-134170000D03*
%TD*%
D12*
%TO.C,C9*%
X142884000Y-128632500D03*
X142884000Y-130707500D03*
%TD*%
%TO.C,C8*%
X180634000Y-128382500D03*
X180634000Y-130457500D03*
%TD*%
%TO.C,C4*%
X118134000Y-127632500D03*
X118134000Y-129707500D03*
%TD*%
D13*
%TO.C,C5*%
X127134000Y-81207500D03*
X127134000Y-79132500D03*
%TD*%
D14*
%TO.C,C3*%
X123134000Y-126370000D03*
X123134000Y-129970000D03*
%TD*%
%TO.C,C1*%
X97134000Y-126370000D03*
X97134000Y-129970000D03*
%TD*%
D15*
%TO.C,D1*%
X201292000Y-87376000D03*
X204092000Y-87376000D03*
%TD*%
%TO.C,D2*%
X198300800Y-87376000D03*
X195500800Y-87376000D03*
%TD*%
%TO.C,D6*%
X172336000Y-87376000D03*
X175136000Y-87376000D03*
%TD*%
%TO.C,D5*%
X178127200Y-87376000D03*
X180927200Y-87376000D03*
%TD*%
%TO.C,D4*%
X183918400Y-87376000D03*
X186718400Y-87376000D03*
%TD*%
%TO.C,D10*%
X146326400Y-87376000D03*
X149126400Y-87376000D03*
%TD*%
D16*
%TO.C,D15*%
X192161600Y-91440000D03*
X190111600Y-91440000D03*
%TD*%
%TO.C,D13*%
X201667000Y-91440000D03*
X203717000Y-91440000D03*
%TD*%
%TO.C,D18*%
X174761000Y-91440000D03*
X172711000Y-91440000D03*
%TD*%
%TO.C,D16*%
X186361400Y-91440000D03*
X184311400Y-91440000D03*
%TD*%
%TO.C,D21*%
X154542600Y-91440000D03*
X152492600Y-91440000D03*
%TD*%
%TO.C,D23*%
X142960200Y-91440000D03*
X140910200Y-91440000D03*
%TD*%
%TO.C,D24*%
X137169000Y-91440000D03*
X135119000Y-91440000D03*
%TD*%
D15*
%TO.C,D25*%
X97234000Y-122420000D03*
X100034000Y-122420000D03*
%TD*%
D17*
%TO.C,U4*%
X112884000Y-126420000D03*
X110344000Y-126420000D03*
D18*
X110344000Y-135570000D03*
D17*
X107804000Y-126420000D03*
%TD*%
D19*
%TO.C,R2*%
X197900800Y-115170000D03*
X195900800Y-115170000D03*
%TD*%
%TO.C,R15*%
X190051600Y-111670000D03*
X192051600Y-111670000D03*
%TD*%
D20*
%TO.C,R35*%
X140935200Y-103632000D03*
X142935200Y-103632000D03*
%TD*%
D19*
%TO.C,R5*%
X180527200Y-115170000D03*
X178527200Y-115170000D03*
%TD*%
D21*
%TO.C,FB2*%
X195750800Y-83312000D03*
X198050800Y-83312000D03*
%TD*%
D16*
%TO.C,D19*%
X166125000Y-91440000D03*
X164075000Y-91440000D03*
%TD*%
D22*
%TO.C,Q11*%
X140985200Y-108633500D03*
X142885200Y-108633500D03*
X141935200Y-106758500D03*
%TD*%
D20*
%TO.C,R29*%
X178527200Y-103632000D03*
X180527200Y-103632000D03*
%TD*%
%TO.C,R41*%
X180527200Y-94996000D03*
X178527200Y-94996000D03*
%TD*%
%TO.C,R33*%
X152517600Y-103632000D03*
X154517600Y-103632000D03*
%TD*%
D21*
%TO.C,FB13*%
X172030000Y-71120000D03*
X174330000Y-71120000D03*
%TD*%
%TO.C,FB11*%
X140836000Y-83312000D03*
X143136000Y-83312000D03*
%TD*%
D22*
%TO.C,Q17*%
X178577200Y-99997500D03*
X180477200Y-99997500D03*
X179527200Y-98122500D03*
%TD*%
%TO.C,Q15*%
X190159600Y-99997500D03*
X192059600Y-99997500D03*
X191109600Y-98122500D03*
%TD*%
D20*
%TO.C,R42*%
X174736000Y-94996000D03*
X172736000Y-94996000D03*
%TD*%
D22*
%TO.C,Q3*%
X190159600Y-108633500D03*
X192059600Y-108633500D03*
X191109600Y-106758500D03*
%TD*%
%TO.C,Q18*%
X172786000Y-99997500D03*
X174686000Y-99997500D03*
X173736000Y-98122500D03*
%TD*%
D19*
%TO.C,R12*%
X135144000Y-115170000D03*
X137144000Y-115170000D03*
%TD*%
D22*
%TO.C,Q13*%
X201742000Y-99997500D03*
X203642000Y-99997500D03*
X202692000Y-98122500D03*
%TD*%
%TO.C,Q9*%
X152567600Y-108633500D03*
X154467600Y-108633500D03*
X153517600Y-106758500D03*
%TD*%
D20*
%TO.C,R26*%
X195900800Y-103632000D03*
X197900800Y-103632000D03*
%TD*%
D19*
%TO.C,R3*%
X192109600Y-115170000D03*
X190109600Y-115170000D03*
%TD*%
D21*
%TO.C,FB15*%
X139566000Y-71120000D03*
X141866000Y-71120000D03*
%TD*%
D15*
%TO.C,D11*%
X140535200Y-87376000D03*
X143335200Y-87376000D03*
%TD*%
D19*
%TO.C,R19*%
X166134000Y-111670000D03*
X164134000Y-111670000D03*
%TD*%
D22*
%TO.C,Q20*%
X158358800Y-99997500D03*
X160258800Y-99997500D03*
X159308800Y-98122500D03*
%TD*%
D15*
%TO.C,D3*%
X189709600Y-87376000D03*
X192509600Y-87376000D03*
%TD*%
D19*
%TO.C,R24*%
X137178000Y-111670000D03*
X135178000Y-111670000D03*
%TD*%
D20*
%TO.C,R44*%
X158321600Y-94996000D03*
X160321600Y-94996000D03*
%TD*%
D16*
%TO.C,D14*%
X197961800Y-91440000D03*
X195911800Y-91440000D03*
%TD*%
D22*
%TO.C,Q19*%
X164150000Y-99997500D03*
X166050000Y-99997500D03*
X165100000Y-98122500D03*
%TD*%
%TO.C,Q4*%
X184368400Y-108633500D03*
X186268400Y-108633500D03*
X185318400Y-106758500D03*
%TD*%
D21*
%TO.C,FB7*%
X163950000Y-83312000D03*
X166250000Y-83312000D03*
%TD*%
D23*
%TO.C,H4*%
X92384000Y-137670000D03*
%TD*%
D22*
%TO.C,Q23*%
X140985200Y-99997500D03*
X142885200Y-99997500D03*
X141935200Y-98122500D03*
%TD*%
%TO.C,Q5*%
X178577200Y-108633500D03*
X180477200Y-108633500D03*
X179527200Y-106758500D03*
%TD*%
D20*
%TO.C,R36*%
X135144000Y-103632000D03*
X137144000Y-103632000D03*
%TD*%
D22*
%TO.C,Q14*%
X195950800Y-99997500D03*
X197850800Y-99997500D03*
X196900800Y-98122500D03*
%TD*%
D20*
%TO.C,R25*%
X201692000Y-103632000D03*
X203692000Y-103632000D03*
%TD*%
%TO.C,R48*%
X135144000Y-94996000D03*
X137144000Y-94996000D03*
%TD*%
D21*
%TO.C,FB8*%
X158108000Y-83312000D03*
X160408000Y-83312000D03*
%TD*%
D22*
%TO.C,Q2*%
X195950800Y-108694500D03*
X197850800Y-108694500D03*
X196900800Y-106819500D03*
%TD*%
D20*
%TO.C,R27*%
X190109600Y-103632000D03*
X192109600Y-103632000D03*
%TD*%
D19*
%TO.C,R1*%
X203692000Y-115170000D03*
X201692000Y-115170000D03*
%TD*%
D21*
%TO.C,FB6*%
X172586000Y-83312000D03*
X174886000Y-83312000D03*
%TD*%
D19*
%TO.C,R11*%
X142935200Y-115170000D03*
X140935200Y-115170000D03*
%TD*%
D21*
%TO.C,FB5*%
X178377200Y-83312000D03*
X180677200Y-83312000D03*
%TD*%
D20*
%TO.C,R32*%
X158308800Y-103632000D03*
X160308800Y-103632000D03*
%TD*%
D23*
%TO.C,H3*%
X202384000Y-137670000D03*
%TD*%
D21*
%TO.C,FB14*%
X172030000Y-73660000D03*
X174330000Y-73660000D03*
%TD*%
D24*
%TO.C,U1*%
X101564500Y-71267000D03*
X101564500Y-73807000D03*
X101564500Y-76347000D03*
X101564500Y-78887000D03*
X101564500Y-81427000D03*
X101564500Y-83967000D03*
X101564500Y-86507000D03*
X101564500Y-89047000D03*
X101564500Y-91587000D03*
X101564500Y-94127000D03*
X101564500Y-96667000D03*
X101564500Y-99207000D03*
X101564500Y-101747000D03*
X101564500Y-104287000D03*
X101564500Y-106827000D03*
X101564500Y-109367000D03*
X121884500Y-109367000D03*
X121884500Y-106827000D03*
X121884500Y-104287000D03*
X121884500Y-101747000D03*
X121884500Y-99207000D03*
X121884500Y-96667000D03*
X121884500Y-94127000D03*
X121884500Y-91587000D03*
X121884500Y-89047000D03*
X121884500Y-86507000D03*
X121884500Y-83967000D03*
X121884500Y-81427000D03*
%TD*%
D20*
%TO.C,R40*%
X184318400Y-94996000D03*
X186318400Y-94996000D03*
%TD*%
D16*
%TO.C,D17*%
X180561200Y-91440000D03*
X178511200Y-91440000D03*
%TD*%
D15*
%TO.C,D9*%
X152117600Y-87376000D03*
X154917600Y-87376000D03*
%TD*%
D20*
%TO.C,R46*%
X146732800Y-94996000D03*
X148732800Y-94996000D03*
%TD*%
%TO.C,R31*%
X164100000Y-103632000D03*
X166100000Y-103632000D03*
%TD*%
D22*
%TO.C,Q1*%
X201742000Y-108712000D03*
X203642000Y-108712000D03*
X202692000Y-106837000D03*
%TD*%
D25*
%TO.C,C6*%
X95434000Y-80670000D03*
X91834000Y-80670000D03*
%TD*%
D15*
%TO.C,D7*%
X163700000Y-87376000D03*
X166500000Y-87376000D03*
%TD*%
D22*
%TO.C,Q6*%
X172786000Y-108633500D03*
X174686000Y-108633500D03*
X173736000Y-106758500D03*
%TD*%
D20*
%TO.C,R30*%
X172736000Y-103632000D03*
X174736000Y-103632000D03*
%TD*%
D21*
%TO.C,FB10*%
X146627200Y-83312000D03*
X148927200Y-83312000D03*
%TD*%
D15*
%TO.C,D12*%
X134744000Y-87376000D03*
X137544000Y-87376000D03*
%TD*%
D19*
%TO.C,R23*%
X142969200Y-111670000D03*
X140969200Y-111670000D03*
%TD*%
D20*
%TO.C,R39*%
X190109600Y-94996000D03*
X192109600Y-94996000D03*
%TD*%
D19*
%TO.C,R8*%
X160308800Y-115170000D03*
X158308800Y-115170000D03*
%TD*%
D22*
%TO.C,Q16*%
X184368400Y-99997500D03*
X186268400Y-99997500D03*
X185318400Y-98122500D03*
%TD*%
D26*
%TO.C,U2*%
X184014000Y-124920000D03*
X185284000Y-124920000D03*
X186554000Y-124920000D03*
X187824000Y-124920000D03*
X189094000Y-124920000D03*
X190364000Y-124920000D03*
X191634000Y-124920000D03*
X192904000Y-124920000D03*
X192904000Y-129870000D03*
X191634000Y-129870000D03*
X190364000Y-129870000D03*
X189094000Y-129870000D03*
X187824000Y-129870000D03*
X186554000Y-129870000D03*
X185284000Y-129870000D03*
X184014000Y-129870000D03*
%TD*%
D16*
%TO.C,D20*%
X160333800Y-91440000D03*
X158283800Y-91440000D03*
%TD*%
D22*
%TO.C,Q22*%
X146776400Y-99997500D03*
X148676400Y-99997500D03*
X147726400Y-98122500D03*
%TD*%
D20*
%TO.C,R47*%
X140938400Y-94996000D03*
X142938400Y-94996000D03*
%TD*%
D22*
%TO.C,Q21*%
X152567600Y-99997500D03*
X154467600Y-99997500D03*
X153517600Y-98122500D03*
%TD*%
D20*
%TO.C,R45*%
X152527200Y-94996000D03*
X154527200Y-94996000D03*
%TD*%
D22*
%TO.C,Q7*%
X164150000Y-108633500D03*
X166050000Y-108633500D03*
X165100000Y-106758500D03*
%TD*%
D19*
%TO.C,R17*%
X178469200Y-111670000D03*
X180469200Y-111670000D03*
%TD*%
D21*
%TO.C,FB12*%
X134994000Y-83312000D03*
X137294000Y-83312000D03*
%TD*%
D19*
%TO.C,R7*%
X166100000Y-115170000D03*
X164100000Y-115170000D03*
%TD*%
D15*
%TO.C,D8*%
X157908800Y-87376000D03*
X160708800Y-87376000D03*
%TD*%
D19*
%TO.C,R22*%
X148760400Y-111670000D03*
X146760400Y-111670000D03*
%TD*%
D20*
%TO.C,R28*%
X184318400Y-103632000D03*
X186318400Y-103632000D03*
%TD*%
D12*
%TO.C,C2*%
X102134000Y-127882500D03*
X102134000Y-129957500D03*
%TD*%
D21*
%TO.C,FB4*%
X184168400Y-83312000D03*
X186468400Y-83312000D03*
%TD*%
D19*
%TO.C,R10*%
X148726400Y-115170000D03*
X146726400Y-115170000D03*
%TD*%
%TO.C,R13*%
X201634000Y-111670000D03*
X203634000Y-111670000D03*
%TD*%
%TO.C,R16*%
X184260400Y-111670000D03*
X186260400Y-111670000D03*
%TD*%
%TO.C,R14*%
X197842800Y-111670000D03*
X195842800Y-111670000D03*
%TD*%
D23*
%TO.C,H2*%
X92384000Y-62670000D03*
%TD*%
D19*
%TO.C,R18*%
X172678000Y-111670000D03*
X174678000Y-111670000D03*
%TD*%
%TO.C,R21*%
X154551600Y-111670000D03*
X152551600Y-111670000D03*
%TD*%
D21*
%TO.C,FB9*%
X152418400Y-83312000D03*
X154718400Y-83312000D03*
%TD*%
D23*
%TO.C,H1*%
X202384000Y-62670000D03*
%TD*%
D19*
%TO.C,R6*%
X174736000Y-115170000D03*
X172736000Y-115170000D03*
%TD*%
%TO.C,R9*%
X154517600Y-115170000D03*
X152517600Y-115170000D03*
%TD*%
D22*
%TO.C,Q12*%
X135194000Y-108633500D03*
X137094000Y-108633500D03*
X136144000Y-106758500D03*
%TD*%
D23*
%TO.C,J2*%
X158968500Y-64790000D03*
X147538500Y-64790000D03*
D27*
X157698500Y-71140000D03*
D28*
X156428500Y-73680000D03*
X155158500Y-71140000D03*
X153888500Y-73680000D03*
X152618500Y-71140000D03*
X151348500Y-73680000D03*
X150078500Y-71140000D03*
X148808500Y-73680000D03*
%TD*%
D20*
%TO.C,R38*%
X195900800Y-94996000D03*
X197900800Y-94996000D03*
%TD*%
D21*
%TO.C,FB16*%
X139566000Y-73660000D03*
X141866000Y-73660000D03*
%TD*%
D19*
%TO.C,R4*%
X186318400Y-115170000D03*
X184318400Y-115170000D03*
%TD*%
D23*
%TO.C,J1*%
X191686500Y-64790000D03*
X180256500Y-64790000D03*
D27*
X190416500Y-71140000D03*
D28*
X189146500Y-73680000D03*
X187876500Y-71140000D03*
X186606500Y-73680000D03*
X185336500Y-71140000D03*
X184066500Y-73680000D03*
X182796500Y-71140000D03*
X181526500Y-73680000D03*
%TD*%
D22*
%TO.C,Q24*%
X135194000Y-99997500D03*
X137094000Y-99997500D03*
X136144000Y-98122500D03*
%TD*%
D20*
%TO.C,R37*%
X203692000Y-94996000D03*
X201692000Y-94996000D03*
%TD*%
D19*
%TO.C,R20*%
X160342800Y-111670000D03*
X158342800Y-111670000D03*
%TD*%
D16*
%TO.C,D22*%
X148751400Y-91440000D03*
X146701400Y-91440000D03*
%TD*%
D22*
%TO.C,Q8*%
X158358800Y-108633500D03*
X160258800Y-108633500D03*
X159308800Y-106758500D03*
%TD*%
D26*
%TO.C,U3*%
X145923000Y-129918000D03*
X147193000Y-129918000D03*
X148463000Y-129918000D03*
X149733000Y-129918000D03*
X151003000Y-129918000D03*
X152273000Y-129918000D03*
X153543000Y-129918000D03*
X154813000Y-129918000D03*
X154813000Y-124968000D03*
X153543000Y-124968000D03*
X152273000Y-124968000D03*
X151003000Y-124968000D03*
X149733000Y-124968000D03*
X148463000Y-124968000D03*
X147193000Y-124968000D03*
X145923000Y-124968000D03*
%TD*%
D21*
%TO.C,FB3*%
X189959600Y-83312000D03*
X192259600Y-83312000D03*
%TD*%
D20*
%TO.C,R43*%
X164116000Y-94996000D03*
X166116000Y-94996000D03*
%TD*%
D22*
%TO.C,Q10*%
X146776400Y-108633500D03*
X148676400Y-108633500D03*
X147726400Y-106758500D03*
%TD*%
D20*
%TO.C,R34*%
X146726400Y-103632000D03*
X148726400Y-103632000D03*
%TD*%
D21*
%TO.C,FB1*%
X201542000Y-83312000D03*
X203842000Y-83312000D03*
%TD*%
D13*
%TO.C,C7*%
X96634000Y-73957500D03*
X96634000Y-71882500D03*
%TD*%
M02*
