%TF.GenerationSoftware,KiCad,Pcbnew,7.0.10*%
%TF.CreationDate,2024-03-07T20:10:07-06:00*%
%TF.ProjectId,Coax Switch Controller,436f6178-2053-4776-9974-636820436f6e,1.0*%
%TF.SameCoordinates,Original*%
%TF.FileFunction,Plated,1,2,PTH,Drill*%
%TF.FilePolarity,Positive*%
%FSLAX46Y46*%
G04 Gerber Fmt 4.6, Leading zero omitted, Abs format (unit mm)*
G04 Created by KiCad (PCBNEW 7.0.10) date 2024-03-07 20:10:07*
%MOMM*%
%LPD*%
G01*
G04 APERTURE LIST*
%TA.AperFunction,ViaDrill*%
%ADD10C,0.400000*%
%TD*%
%TA.AperFunction,ComponentDrill*%
%ADD11C,0.760000*%
%TD*%
%TA.AperFunction,ComponentDrill*%
%ADD12C,0.762000*%
%TD*%
%TA.AperFunction,ComponentDrill*%
%ADD13C,1.300000*%
%TD*%
G04 APERTURE END LIST*
D10*
X92384000Y-68420000D03*
X92384000Y-76170000D03*
X92384000Y-84920000D03*
X92384000Y-94220000D03*
X92384000Y-103520000D03*
X92384000Y-112820000D03*
X92384000Y-122120000D03*
X92384000Y-131420000D03*
X97634000Y-62670000D03*
X98884000Y-137920000D03*
X103134000Y-122420000D03*
X104217333Y-62670000D03*
X105634000Y-80920000D03*
X105884000Y-94170000D03*
X105884000Y-103670000D03*
X105884000Y-112920000D03*
X110634000Y-80920000D03*
X110800666Y-62670000D03*
X110884000Y-71920000D03*
X110884000Y-94170000D03*
X110884000Y-103670000D03*
X110884000Y-112920000D03*
X113884000Y-121920000D03*
X117134000Y-80920000D03*
X117383999Y-62670000D03*
X117384000Y-71920000D03*
X117384000Y-94170000D03*
X117384000Y-103670000D03*
X117384000Y-112920000D03*
X117884000Y-137920000D03*
X120634000Y-120420000D03*
X123967332Y-62670000D03*
X126634000Y-124920000D03*
X127634000Y-113420000D03*
X128134000Y-103670000D03*
X130550665Y-62670000D03*
X130550665Y-71920000D03*
X130550665Y-84920000D03*
X130550665Y-94170000D03*
X130810000Y-101854000D03*
X132588000Y-106680000D03*
X133384000Y-119420000D03*
X137133998Y-62738000D03*
X137160000Y-101854000D03*
X138684000Y-89662000D03*
X139134000Y-105156000D03*
X139134000Y-113420000D03*
X139134000Y-124920000D03*
X140634000Y-127420000D03*
X142821500Y-137920000D03*
X143002000Y-101854000D03*
X143717331Y-62670000D03*
X144526000Y-89662000D03*
X144722000Y-113420000D03*
X144780000Y-120142000D03*
X144884000Y-105170000D03*
X145134000Y-122174000D03*
X145384000Y-78420000D03*
X145884000Y-132420000D03*
X145884000Y-133670000D03*
X145884000Y-134920000D03*
X146558000Y-118364000D03*
X147320000Y-120142000D03*
X148630200Y-119339800D03*
X148844000Y-101854000D03*
X150300664Y-62670000D03*
X150368000Y-89662000D03*
X150634000Y-105170000D03*
X150634000Y-113420000D03*
X151638000Y-118364000D03*
X152273000Y-132420000D03*
X152634000Y-137920000D03*
X154432000Y-121158000D03*
X154686000Y-101854000D03*
X155448000Y-122428000D03*
X155956000Y-118364000D03*
X156210000Y-89662000D03*
X156406000Y-113420000D03*
X156464000Y-105156000D03*
X156883997Y-62670000D03*
X157634000Y-124920000D03*
X157634000Y-128920000D03*
X157634000Y-132170000D03*
X158384000Y-119339800D03*
X160274000Y-101854000D03*
X161128000Y-120142000D03*
X161384000Y-78420000D03*
X162052000Y-89662000D03*
X162052000Y-105156000D03*
X162248000Y-113420000D03*
X163467330Y-62670000D03*
X166116000Y-101854000D03*
X169884000Y-62670000D03*
X169884000Y-67991428D03*
X169884000Y-78420000D03*
X169884000Y-89670000D03*
X169884000Y-99920000D03*
X169884000Y-103920000D03*
X169884000Y-109170000D03*
X169884000Y-114420000D03*
X169884000Y-119670000D03*
X169884000Y-124920000D03*
X169884000Y-128920000D03*
X169884000Y-132170000D03*
X174752000Y-101854000D03*
X176276000Y-89662000D03*
X176633996Y-62670000D03*
X176634000Y-105170000D03*
X176634000Y-113420000D03*
X177634000Y-124920000D03*
X177634000Y-128920000D03*
X177634000Y-132170000D03*
X177884000Y-78420000D03*
X180594000Y-101854000D03*
X182118000Y-89662000D03*
X182118000Y-120142000D03*
X182222000Y-113420000D03*
X182384000Y-105170000D03*
X182880000Y-122174000D03*
X183217329Y-62670000D03*
X184134000Y-132420000D03*
X184134000Y-133670000D03*
X184134000Y-134920000D03*
X184150000Y-118364000D03*
X185420000Y-120142000D03*
X186436000Y-101854000D03*
X186571500Y-137920000D03*
X186690000Y-119380000D03*
X187960000Y-89662000D03*
X188318000Y-113420000D03*
X188384000Y-105170000D03*
X189230000Y-118364000D03*
X189800662Y-62670000D03*
X190373000Y-132420000D03*
X191262000Y-121158000D03*
X192278000Y-101854000D03*
X192278000Y-122174000D03*
X193802000Y-89662000D03*
X194056000Y-118364000D03*
X194134000Y-78420000D03*
X194134000Y-105170000D03*
X194160000Y-113420000D03*
X196384000Y-62670000D03*
X196384000Y-137920000D03*
X197866000Y-101854000D03*
X198882000Y-119380000D03*
X199644000Y-89662000D03*
X199748000Y-113420000D03*
X199884000Y-105170000D03*
X202384000Y-68420000D03*
X202384000Y-74295000D03*
X202384000Y-80170000D03*
X202384000Y-122170000D03*
X202384000Y-127670000D03*
X202384000Y-133170000D03*
X203642000Y-101854000D03*
X203708000Y-120142000D03*
X204634000Y-85170000D03*
X204634000Y-96670000D03*
X204634000Y-105170000D03*
X204634000Y-113420000D03*
D11*
%TO.C,J2*%
X148808500Y-73680000D03*
X150078500Y-71140000D03*
X151348500Y-73680000D03*
X152618500Y-71140000D03*
X153888500Y-73680000D03*
X155158500Y-71140000D03*
X156428500Y-73680000D03*
X157698500Y-71140000D03*
%TO.C,J1*%
X181526500Y-73680000D03*
X182796500Y-71140000D03*
X184066500Y-73680000D03*
X185336500Y-71140000D03*
X186606500Y-73680000D03*
X187876500Y-71140000D03*
X189146500Y-73680000D03*
X190416500Y-71140000D03*
D12*
%TO.C,U1*%
X101564500Y-71267000D03*
X101564500Y-73807000D03*
X101564500Y-76347000D03*
X101564500Y-78887000D03*
X101564500Y-81427000D03*
X101564500Y-83967000D03*
X101564500Y-86507000D03*
X101564500Y-89047000D03*
X101564500Y-91587000D03*
X101564500Y-94127000D03*
X101564500Y-96667000D03*
X101564500Y-99207000D03*
X101564500Y-101747000D03*
X101564500Y-104287000D03*
X101564500Y-106827000D03*
X101564500Y-109367000D03*
X121884500Y-81427000D03*
X121884500Y-83967000D03*
X121884500Y-86507000D03*
X121884500Y-89047000D03*
X121884500Y-91587000D03*
X121884500Y-94127000D03*
X121884500Y-96667000D03*
X121884500Y-99207000D03*
X121884500Y-101747000D03*
X121884500Y-104287000D03*
X121884500Y-106827000D03*
X121884500Y-109367000D03*
D13*
%TO.C,J3*%
X131134000Y-134170000D03*
X136134000Y-134170000D03*
M02*
