%TF.GenerationSoftware,KiCad,Pcbnew,7.0.10*%
%TF.CreationDate,2024-03-07T20:10:10-06:00*%
%TF.ProjectId,Coax Switch Controller,436f6178-2053-4776-9974-636820436f6e,1.0*%
%TF.SameCoordinates,Original*%
%TF.FileFunction,Copper,L2,Bot*%
%TF.FilePolarity,Positive*%
%FSLAX46Y46*%
G04 Gerber Fmt 4.6, Leading zero omitted, Abs format (unit mm)*
G04 Created by KiCad (PCBNEW 7.0.10) date 2024-03-07 20:10:10*
%MOMM*%
%LPD*%
G01*
G04 APERTURE LIST*
%TA.AperFunction,ComponentPad*%
%ADD10R,2.500000X2.500000*%
%TD*%
%TA.AperFunction,ComponentPad*%
%ADD11C,2.500000*%
%TD*%
%TA.AperFunction,ComponentPad*%
%ADD12C,1.524000*%
%TD*%
%TA.AperFunction,ComponentPad*%
%ADD13R,1.500000X1.500000*%
%TD*%
%TA.AperFunction,ComponentPad*%
%ADD14C,1.500000*%
%TD*%
%TA.AperFunction,ViaPad*%
%ADD15C,0.800000*%
%TD*%
%TA.AperFunction,Conductor*%
%ADD16C,0.250000*%
%TD*%
%TA.AperFunction,Conductor*%
%ADD17C,0.750000*%
%TD*%
G04 APERTURE END LIST*
D10*
%TO.P,J3,1,Pin_1*%
%TO.N,Net-(D25-A)*%
X131134000Y-134170000D03*
D11*
%TO.P,J3,2,Pin_2*%
%TO.N,GND*%
X136134000Y-134170000D03*
%TD*%
D12*
%TO.P,U1,1,Reset*%
%TO.N,unconnected-(U1-Reset-Pad1)*%
X101564500Y-71267000D03*
%TO.P,U1,2,3.3V*%
%TO.N,+3.3V*%
X101564500Y-73807000D03*
%TO.P,U1,3,NC*%
%TO.N,unconnected-(U1-NC-Pad3)*%
X101564500Y-76347000D03*
%TO.P,U1,4,GND*%
%TO.N,GND*%
X101564500Y-78887000D03*
%TO.P,U1,5,26_/_A0*%
%TO.N,unconnected-(U1-26_{slash}_A0-Pad5)*%
X101564500Y-81427000D03*
%TO.P,U1,6,25_/_A1*%
%TO.N,unconnected-(U1-25_{slash}_A1-Pad6)*%
X101564500Y-83967000D03*
%TO.P,U1,7,34_/_A2*%
%TO.N,unconnected-(U1-34_{slash}_A2-Pad7)*%
X101564500Y-86507000D03*
%TO.P,U1,8,39_/_A3*%
%TO.N,unconnected-(U1-39_{slash}_A3-Pad8)*%
X101564500Y-89047000D03*
%TO.P,U1,9,36_/_A4*%
%TO.N,unconnected-(U1-36_{slash}_A4-Pad9)*%
X101564500Y-91587000D03*
%TO.P,U1,10,35_/_A5*%
%TO.N,unconnected-(U1-35_{slash}_A5-Pad10)*%
X101564500Y-94127000D03*
%TO.P,U1,11,18_/_SCK*%
%TO.N,unconnected-(U1-18_{slash}_SCK-Pad11)*%
X101564500Y-96667000D03*
%TO.P,U1,12,23_/_PICO*%
%TO.N,unconnected-(U1-23_{slash}_PICO-Pad12)*%
X101564500Y-99207000D03*
%TO.P,U1,13,19_/_POCI*%
%TO.N,unconnected-(U1-19_{slash}_POCI-Pad13)*%
X101564500Y-101747000D03*
%TO.P,U1,14,16_/_RX*%
%TO.N,unconnected-(U1-16_{slash}_RX-Pad14)*%
X101564500Y-104287000D03*
%TO.P,U1,15,17_/_TX*%
%TO.N,unconnected-(U1-17_{slash}_TX-Pad15)*%
X101564500Y-106827000D03*
%TO.P,U1,16,4_/_FREE*%
%TO.N,unconnected-(U1-4_{slash}_FREE-Pad16)*%
X101564500Y-109367000D03*
%TO.P,U1,17,21_/_SDA*%
%TO.N,unconnected-(U1-21_{slash}_SDA-Pad17)*%
X121884500Y-109367000D03*
%TO.P,U1,18,22_/_SCL*%
%TO.N,unconnected-(U1-22_{slash}_SCL-Pad18)*%
X121884500Y-106827000D03*
%TO.P,U1,19,14*%
%TO.N,Net-(U1-14)*%
X121884500Y-104287000D03*
%TO.P,U1,20,32*%
%TO.N,Net-(U1-32)*%
X121884500Y-101747000D03*
%TO.P,U1,21,15*%
%TO.N,Net-(U1-15)*%
X121884500Y-99207000D03*
%TO.P,U1,22,33*%
%TO.N,Net-(U1-33)*%
X121884500Y-96667000D03*
%TO.P,U1,23,27*%
%TO.N,Net-(U1-27)*%
X121884500Y-94127000D03*
%TO.P,U1,24,12*%
%TO.N,Net-(U1-12)*%
X121884500Y-91587000D03*
%TO.P,U1,25,13_/_LED*%
%TO.N,Net-(U1-13_{slash}_LED)*%
X121884500Y-89047000D03*
%TO.P,U1,26,VUSB*%
%TO.N,unconnected-(U1-VUSB-Pad26)*%
X121884500Y-86507000D03*
%TO.P,U1,27,EN*%
%TO.N,unconnected-(U1-EN-Pad27)*%
X121884500Y-83967000D03*
%TO.P,U1,28,VBATT*%
%TO.N,+5V*%
X121884500Y-81427000D03*
%TD*%
D13*
%TO.P,J2,1*%
%TO.N,Net-(FB7-Pad2)*%
X157698500Y-71140000D03*
D14*
%TO.P,J2,2*%
%TO.N,Net-(FB8-Pad2)*%
X156428500Y-73680000D03*
%TO.P,J2,3*%
%TO.N,Net-(FB9-Pad2)*%
X155158500Y-71140000D03*
%TO.P,J2,4*%
%TO.N,Net-(FB10-Pad2)*%
X153888500Y-73680000D03*
%TO.P,J2,5*%
%TO.N,Net-(FB11-Pad2)*%
X152618500Y-71140000D03*
%TO.P,J2,6*%
%TO.N,Net-(FB12-Pad2)*%
X151348500Y-73680000D03*
%TO.P,J2,7*%
%TO.N,Net-(FB15-Pad2)*%
X150078500Y-71140000D03*
%TO.P,J2,8*%
%TO.N,Net-(FB16-Pad2)*%
X148808500Y-73680000D03*
%TD*%
D13*
%TO.P,J1,1*%
%TO.N,Net-(FB1-Pad2)*%
X190416500Y-71140000D03*
D14*
%TO.P,J1,2*%
%TO.N,Net-(FB2-Pad2)*%
X189146500Y-73680000D03*
%TO.P,J1,3*%
%TO.N,Net-(FB3-Pad2)*%
X187876500Y-71140000D03*
%TO.P,J1,4*%
%TO.N,Net-(FB4-Pad2)*%
X186606500Y-73680000D03*
%TO.P,J1,5*%
%TO.N,Net-(FB5-Pad2)*%
X185336500Y-71140000D03*
%TO.P,J1,6*%
%TO.N,Net-(FB6-Pad2)*%
X184066500Y-73680000D03*
%TO.P,J1,7*%
%TO.N,Net-(FB13-Pad2)*%
X182796500Y-71140000D03*
%TO.P,J1,8*%
%TO.N,Net-(FB14-Pad2)*%
X181526500Y-73680000D03*
%TD*%
D15*
%TO.N,GND*%
X127634000Y-113420000D03*
X120634000Y-120420000D03*
X126634000Y-124920000D03*
X139134000Y-124920000D03*
X177634000Y-132170000D03*
X157634000Y-132170000D03*
X169884000Y-132170000D03*
%TO.N,Net-(U1-12)*%
X184134000Y-132420000D03*
%TO.N,Net-(U1-33)*%
X184134000Y-134920000D03*
%TO.N,Net-(U1-27)*%
X184134000Y-133670000D03*
%TO.N,+12V*%
X130810000Y-101854000D03*
%TO.N,Net-(D25-A)*%
X103134000Y-122420000D03*
%TO.N,+5V*%
X113884000Y-121920000D03*
%TO.N,GND*%
X123967332Y-62670000D03*
X194134000Y-78420000D03*
X169884000Y-114420000D03*
X193802000Y-89662000D03*
X144884000Y-105170000D03*
X176634000Y-113420000D03*
X189800662Y-62670000D03*
X104217333Y-62670000D03*
X187960000Y-89662000D03*
X117383999Y-62670000D03*
X176276000Y-89662000D03*
X142821500Y-137920000D03*
X169884000Y-62670000D03*
X188318000Y-113420000D03*
X177884000Y-78420000D03*
X177634000Y-124920000D03*
X169884000Y-67991428D03*
X133384000Y-119420000D03*
X162052000Y-105156000D03*
X110884000Y-71920000D03*
X150300664Y-62670000D03*
X202384000Y-122170000D03*
X169884000Y-89670000D03*
X163467330Y-62670000D03*
X139134000Y-113420000D03*
X92384000Y-68420000D03*
X199884000Y-105170000D03*
X117384000Y-112920000D03*
X182118000Y-89662000D03*
X105884000Y-112920000D03*
X130550665Y-84920000D03*
X110884000Y-94170000D03*
X92384000Y-76170000D03*
X105884000Y-103670000D03*
X139134000Y-105156000D03*
X92384000Y-112820000D03*
X110800666Y-62670000D03*
X202384000Y-74295000D03*
X152634000Y-137920000D03*
X204634000Y-96670000D03*
X117384000Y-71920000D03*
X117884000Y-137920000D03*
X202384000Y-80170000D03*
X144526000Y-89662000D03*
X157634000Y-124920000D03*
X128134000Y-103670000D03*
X176634000Y-105170000D03*
X182384000Y-105170000D03*
X98884000Y-137920000D03*
X156464000Y-105156000D03*
X204634000Y-85170000D03*
X105884000Y-94170000D03*
X169884000Y-109170000D03*
X105634000Y-80920000D03*
X199748000Y-113420000D03*
X186571500Y-137920000D03*
X150634000Y-105170000D03*
X150634000Y-113420000D03*
X146558000Y-118364000D03*
X169884000Y-119670000D03*
X183217329Y-62670000D03*
X196384000Y-137920000D03*
X130550665Y-94170000D03*
X184150000Y-118364000D03*
X157634000Y-128920000D03*
X137133998Y-62738000D03*
X145384000Y-78420000D03*
X92384000Y-103520000D03*
X156406000Y-113420000D03*
X143717331Y-62670000D03*
X117134000Y-80920000D03*
X162248000Y-113420000D03*
X202384000Y-68420000D03*
X117384000Y-103670000D03*
X110884000Y-103670000D03*
X110634000Y-80920000D03*
X169884000Y-78420000D03*
X169884000Y-124920000D03*
X156210000Y-89662000D03*
X169884000Y-128920000D03*
X117384000Y-94170000D03*
X204634000Y-113420000D03*
X194160000Y-113420000D03*
X204634000Y-105170000D03*
X110884000Y-112920000D03*
X162052000Y-89662000D03*
X202384000Y-127670000D03*
X97634000Y-62670000D03*
X169884000Y-99920000D03*
X92384000Y-122120000D03*
X177634000Y-128920000D03*
X130550665Y-71920000D03*
X150368000Y-89662000D03*
X92384000Y-94220000D03*
X132588000Y-106680000D03*
X92384000Y-84920000D03*
X144722000Y-113420000D03*
X188384000Y-105170000D03*
X161384000Y-78420000D03*
X176633996Y-62670000D03*
X138684000Y-89662000D03*
X130550665Y-62670000D03*
X199644000Y-89662000D03*
X182222000Y-113420000D03*
X196384000Y-62670000D03*
X92384000Y-131420000D03*
X169884000Y-103920000D03*
X194134000Y-105170000D03*
X202384000Y-133170000D03*
X156883997Y-62670000D03*
%TO.N,+12V*%
X137160000Y-101854000D03*
X203642000Y-101854000D03*
X180594000Y-101854000D03*
X148844000Y-101854000D03*
X174752000Y-101854000D03*
X143002000Y-101854000D03*
X197866000Y-101854000D03*
X160274000Y-101854000D03*
X186436000Y-101854000D03*
X166116000Y-101854000D03*
X192278000Y-101854000D03*
X154686000Y-101854000D03*
%TO.N,+3.3V*%
X140634000Y-127420000D03*
%TO.N,Net-(U1-14)*%
X145884000Y-134920000D03*
%TO.N,Net-(U1-32)*%
X145884000Y-133670000D03*
%TO.N,Net-(U1-15)*%
X145884000Y-132420000D03*
%TO.N,Net-(U1-13_{slash}_LED)*%
X152273000Y-132420000D03*
X190373000Y-132420000D03*
%TO.N,Net-(U2-~{Y0})*%
X185420000Y-120142000D03*
X203708000Y-120142000D03*
%TO.N,Net-(U2-~{Y1})*%
X186690000Y-119380000D03*
X198882000Y-119380000D03*
%TO.N,Net-(U2-~{Y3})*%
X194056000Y-118364000D03*
X189230000Y-118364000D03*
%TO.N,Net-(U2-~{Y4})*%
X182118000Y-120142000D03*
X191262000Y-121158000D03*
%TO.N,Net-(U2-~{Y5})*%
X182880000Y-122174000D03*
X192278000Y-122174000D03*
%TO.N,Net-(U3-~{Y0})*%
X147320000Y-120142000D03*
X161128000Y-120142000D03*
%TO.N,Net-(U3-~{Y1})*%
X148630200Y-119339800D03*
X158384000Y-119339800D03*
%TO.N,Net-(U3-~{Y3})*%
X151638000Y-118364000D03*
X155956000Y-118364000D03*
%TO.N,Net-(U3-~{Y4})*%
X154432000Y-121158000D03*
X144780000Y-120142000D03*
%TO.N,Net-(U3-~{Y5})*%
X145134000Y-122174000D03*
X155448000Y-122428000D03*
%TD*%
D16*
%TO.N,Net-(U1-14)*%
X121932624Y-104287000D02*
X121884500Y-104287000D01*
X144384000Y-126738376D02*
X121932624Y-104287000D01*
X144384000Y-133420000D02*
X144384000Y-126738376D01*
X145884000Y-134920000D02*
X144384000Y-133420000D01*
%TO.N,Net-(U1-32)*%
X123834000Y-105551980D02*
X123834000Y-103696500D01*
X144884000Y-132574305D02*
X144884000Y-126601980D01*
X123834000Y-103696500D02*
X121884500Y-101747000D01*
X145884000Y-133574305D02*
X144884000Y-132574305D01*
X145884000Y-133670000D02*
X145884000Y-133574305D01*
X144884000Y-126601980D02*
X123834000Y-105551980D01*
%TO.N,Net-(U1-15)*%
X124284000Y-101606500D02*
X121884500Y-99207000D01*
X124284000Y-105365584D02*
X124284000Y-101606500D01*
X146084000Y-127165584D02*
X124284000Y-105365584D01*
X146084000Y-132220000D02*
X146084000Y-127165584D01*
X145884000Y-132420000D02*
X146084000Y-132220000D01*
%TO.N,Net-(U1-33)*%
X124734000Y-105179188D02*
X124734000Y-99516500D01*
X146534000Y-126979188D02*
X124734000Y-105179188D01*
X151522604Y-134570000D02*
X146534000Y-129581396D01*
X146534000Y-129581396D02*
X146534000Y-126979188D01*
X124734000Y-99516500D02*
X121884500Y-96667000D01*
X183784000Y-134570000D02*
X151522604Y-134570000D01*
X184134000Y-134920000D02*
X183784000Y-134570000D01*
%TO.N,Net-(U1-27)*%
X125184000Y-97426500D02*
X121884500Y-94127000D01*
X146984000Y-126792792D02*
X125184000Y-104992792D01*
X151709000Y-134120000D02*
X146984000Y-129395000D01*
X125184000Y-104992792D02*
X125184000Y-97426500D01*
X183684000Y-134120000D02*
X151709000Y-134120000D01*
X146984000Y-129395000D02*
X146984000Y-126792792D01*
X184134000Y-133670000D02*
X183684000Y-134120000D01*
%TO.N,Net-(U1-12)*%
X147434000Y-126606396D02*
X125634000Y-104806396D01*
X125634000Y-104806396D02*
X125634000Y-95336500D01*
X147434000Y-129208604D02*
X147434000Y-126606396D01*
X151895396Y-133670000D02*
X147434000Y-129208604D01*
X182884000Y-133670000D02*
X151895396Y-133670000D01*
X125634000Y-95336500D02*
X121884500Y-91587000D01*
X184134000Y-132420000D02*
X182884000Y-133670000D01*
%TO.N,Net-(U1-13_{slash}_LED)*%
X126134000Y-93368000D02*
X121884500Y-89118500D01*
X147884000Y-126420000D02*
X126134000Y-104670000D01*
X151884000Y-132420000D02*
X147884000Y-128420000D01*
X121884500Y-89118500D02*
X121884500Y-89047000D01*
X152273000Y-132420000D02*
X151884000Y-132420000D01*
X147884000Y-128420000D02*
X147884000Y-126420000D01*
X126134000Y-104670000D02*
X126134000Y-93368000D01*
X154273000Y-130420000D02*
X188373000Y-130420000D01*
X152273000Y-132420000D02*
X154273000Y-130420000D01*
X188373000Y-130420000D02*
X190373000Y-132420000D01*
%TO.N,Net-(U2-~{Y5})*%
X182880000Y-122174000D02*
X192278000Y-122174000D01*
%TO.N,Net-(U3-~{Y0})*%
X161128000Y-120142000D02*
X147320000Y-120142000D01*
%TO.N,Net-(U3-~{Y3})*%
X151638000Y-118364000D02*
X155956000Y-118364000D01*
%TO.N,Net-(U3-~{Y5})*%
X145134000Y-122174000D02*
X155194000Y-122174000D01*
X155194000Y-122174000D02*
X155448000Y-122428000D01*
D17*
%TO.N,+5V*%
X113759000Y-121795000D02*
X113884000Y-121920000D01*
X119627000Y-81427000D02*
X113759000Y-87295000D01*
X121884500Y-81427000D02*
X119627000Y-81427000D01*
X113759000Y-87295000D02*
X113759000Y-121795000D01*
%TO.N,+3.3V*%
X104021000Y-73807000D02*
X101564500Y-73807000D01*
X108134000Y-77920000D02*
X104021000Y-73807000D01*
X108134000Y-120670000D02*
X108134000Y-77920000D01*
X114884000Y-127420000D02*
X108134000Y-120670000D01*
X140634000Y-127420000D02*
X114884000Y-127420000D01*
%TO.N,Net-(D25-A)*%
X114884000Y-134170000D02*
X103134000Y-122420000D01*
X131134000Y-134170000D02*
X114884000Y-134170000D01*
D16*
%TO.N,Net-(U3-~{Y1})*%
X158384000Y-119339800D02*
X148630200Y-119339800D01*
D17*
%TO.N,+12V*%
X130810000Y-101854000D02*
X203642000Y-101854000D01*
D16*
%TO.N,Net-(U2-~{Y0})*%
X203708000Y-120142000D02*
X185420000Y-120142000D01*
%TO.N,Net-(U2-~{Y1})*%
X186690000Y-119380000D02*
X198882000Y-119380000D01*
%TO.N,Net-(U2-~{Y3})*%
X194056000Y-118364000D02*
X189230000Y-118364000D01*
%TO.N,Net-(U2-~{Y4})*%
X191262000Y-121158000D02*
X183134000Y-121158000D01*
X183134000Y-121158000D02*
X182118000Y-120142000D01*
%TO.N,Net-(U3-~{Y1})*%
X148590000Y-119380000D02*
X148630200Y-119339800D01*
%TO.N,Net-(U3-~{Y4})*%
X144780000Y-120142000D02*
X145796000Y-121158000D01*
X145796000Y-121158000D02*
X154432000Y-121158000D01*
%TD*%
%TA.AperFunction,Conductor*%
%TO.N,GND*%
G36*
X206076598Y-58693927D02*
G01*
X206122575Y-58746537D01*
X206134000Y-58798525D01*
X206134000Y-141296000D01*
X206114315Y-141363039D01*
X206061511Y-141408794D01*
X206010000Y-141420000D01*
X88758377Y-141420000D01*
X88691338Y-141400315D01*
X88645583Y-141347511D01*
X88634378Y-141295623D01*
X88645192Y-137737763D01*
X90529787Y-137737763D01*
X90559413Y-138007013D01*
X90559415Y-138007024D01*
X90627926Y-138269082D01*
X90627928Y-138269088D01*
X90733870Y-138518390D01*
X90805998Y-138636575D01*
X90874979Y-138749605D01*
X90874986Y-138749615D01*
X91048253Y-138957819D01*
X91048259Y-138957824D01*
X91249998Y-139138582D01*
X91475910Y-139288044D01*
X91721176Y-139403020D01*
X91721183Y-139403022D01*
X91721185Y-139403023D01*
X91980557Y-139481057D01*
X91980564Y-139481058D01*
X91980569Y-139481060D01*
X92248561Y-139520500D01*
X92248566Y-139520500D01*
X92451629Y-139520500D01*
X92451631Y-139520500D01*
X92451636Y-139520499D01*
X92451648Y-139520499D01*
X92489191Y-139517750D01*
X92654156Y-139505677D01*
X92766758Y-139480593D01*
X92918546Y-139446782D01*
X92918548Y-139446781D01*
X92918553Y-139446780D01*
X93171558Y-139350014D01*
X93407777Y-139217441D01*
X93622177Y-139051888D01*
X93810186Y-138856881D01*
X93967799Y-138636579D01*
X94041787Y-138492669D01*
X94091649Y-138395690D01*
X94091651Y-138395684D01*
X94091656Y-138395675D01*
X94179118Y-138139305D01*
X94228319Y-137872933D01*
X94233259Y-137737763D01*
X200529787Y-137737763D01*
X200559413Y-138007013D01*
X200559415Y-138007024D01*
X200627926Y-138269082D01*
X200627928Y-138269088D01*
X200733870Y-138518390D01*
X200805998Y-138636575D01*
X200874979Y-138749605D01*
X200874986Y-138749615D01*
X201048253Y-138957819D01*
X201048259Y-138957824D01*
X201249998Y-139138582D01*
X201475910Y-139288044D01*
X201721176Y-139403020D01*
X201721183Y-139403022D01*
X201721185Y-139403023D01*
X201980557Y-139481057D01*
X201980564Y-139481058D01*
X201980569Y-139481060D01*
X202248561Y-139520500D01*
X202248566Y-139520500D01*
X202451629Y-139520500D01*
X202451631Y-139520500D01*
X202451636Y-139520499D01*
X202451648Y-139520499D01*
X202489191Y-139517750D01*
X202654156Y-139505677D01*
X202766758Y-139480593D01*
X202918546Y-139446782D01*
X202918548Y-139446781D01*
X202918553Y-139446780D01*
X203171558Y-139350014D01*
X203407777Y-139217441D01*
X203622177Y-139051888D01*
X203810186Y-138856881D01*
X203967799Y-138636579D01*
X204041787Y-138492669D01*
X204091649Y-138395690D01*
X204091651Y-138395684D01*
X204091656Y-138395675D01*
X204179118Y-138139305D01*
X204228319Y-137872933D01*
X204238212Y-137602235D01*
X204208586Y-137332982D01*
X204140072Y-137070912D01*
X204034130Y-136821610D01*
X203893018Y-136590390D01*
X203803747Y-136483119D01*
X203719746Y-136382180D01*
X203719740Y-136382175D01*
X203518002Y-136201418D01*
X203292092Y-136051957D01*
X203292090Y-136051956D01*
X203046824Y-135936980D01*
X203046819Y-135936978D01*
X203046814Y-135936976D01*
X202787442Y-135858942D01*
X202787428Y-135858939D01*
X202671791Y-135841921D01*
X202519439Y-135819500D01*
X202316369Y-135819500D01*
X202316351Y-135819500D01*
X202113844Y-135834323D01*
X202113831Y-135834325D01*
X201849453Y-135893217D01*
X201849446Y-135893220D01*
X201596439Y-135989987D01*
X201360226Y-136122557D01*
X201145822Y-136288112D01*
X200957822Y-136483109D01*
X200957816Y-136483116D01*
X200800202Y-136703419D01*
X200800199Y-136703424D01*
X200676350Y-136944309D01*
X200676343Y-136944327D01*
X200588884Y-137200685D01*
X200588881Y-137200699D01*
X200539681Y-137467068D01*
X200539680Y-137467075D01*
X200529787Y-137737763D01*
X94233259Y-137737763D01*
X94238212Y-137602235D01*
X94208586Y-137332982D01*
X94140072Y-137070912D01*
X94034130Y-136821610D01*
X93893018Y-136590390D01*
X93803747Y-136483119D01*
X93719746Y-136382180D01*
X93719740Y-136382175D01*
X93518002Y-136201418D01*
X93292092Y-136051957D01*
X93292090Y-136051956D01*
X93046824Y-135936980D01*
X93046819Y-135936978D01*
X93046814Y-135936976D01*
X92787442Y-135858942D01*
X92787428Y-135858939D01*
X92671791Y-135841921D01*
X92519439Y-135819500D01*
X92316369Y-135819500D01*
X92316351Y-135819500D01*
X92113844Y-135834323D01*
X92113831Y-135834325D01*
X91849453Y-135893217D01*
X91849446Y-135893220D01*
X91596439Y-135989987D01*
X91360226Y-136122557D01*
X91145822Y-136288112D01*
X90957822Y-136483109D01*
X90957816Y-136483116D01*
X90800202Y-136703419D01*
X90800199Y-136703424D01*
X90676350Y-136944309D01*
X90676343Y-136944327D01*
X90588884Y-137200685D01*
X90588881Y-137200699D01*
X90539681Y-137467068D01*
X90539680Y-137467075D01*
X90529787Y-137737763D01*
X88645192Y-137737763D01*
X88691750Y-122420000D01*
X102228540Y-122420000D01*
X102248326Y-122608256D01*
X102248327Y-122608259D01*
X102306818Y-122788277D01*
X102306821Y-122788284D01*
X102401467Y-122952216D01*
X102528129Y-123092888D01*
X102668763Y-123195064D01*
X102683552Y-123207696D01*
X114236199Y-134760343D01*
X114243026Y-134767749D01*
X114278361Y-134809350D01*
X114278368Y-134809355D01*
X114278369Y-134809357D01*
X114343428Y-134858813D01*
X114346012Y-134860832D01*
X114351979Y-134865629D01*
X114409702Y-134912030D01*
X114409872Y-134912114D01*
X114429814Y-134924483D01*
X114429971Y-134924602D01*
X114504143Y-134958917D01*
X114507120Y-134960344D01*
X114580307Y-134996641D01*
X114580483Y-134996684D01*
X114602626Y-135004480D01*
X114602803Y-135004562D01*
X114602806Y-135004563D01*
X114656112Y-135016296D01*
X114682573Y-135022120D01*
X114685822Y-135022881D01*
X114765110Y-135042600D01*
X114765283Y-135042604D01*
X114788602Y-135045460D01*
X114788784Y-135045500D01*
X114870462Y-135045500D01*
X114873820Y-135045545D01*
X114955473Y-135047757D01*
X114955655Y-135047721D01*
X114979023Y-135045500D01*
X129259501Y-135045500D01*
X129326540Y-135065185D01*
X129372295Y-135117989D01*
X129383501Y-135169500D01*
X129383501Y-135467876D01*
X129389908Y-135527483D01*
X129440202Y-135662328D01*
X129440206Y-135662335D01*
X129526452Y-135777544D01*
X129526455Y-135777547D01*
X129641664Y-135863793D01*
X129641671Y-135863797D01*
X129776517Y-135914091D01*
X129776516Y-135914091D01*
X129783444Y-135914835D01*
X129836127Y-135920500D01*
X132431872Y-135920499D01*
X132491483Y-135914091D01*
X132626331Y-135863796D01*
X132741546Y-135777546D01*
X132827796Y-135662331D01*
X132878091Y-135527483D01*
X132884500Y-135467873D01*
X132884500Y-134170004D01*
X134379093Y-134170004D01*
X134398692Y-134431545D01*
X134398693Y-134431550D01*
X134457058Y-134687270D01*
X134552883Y-134931426D01*
X134552882Y-134931426D01*
X134684027Y-135158573D01*
X134731874Y-135218571D01*
X135531452Y-134418993D01*
X135541188Y-134448956D01*
X135629186Y-134587619D01*
X135748903Y-134700040D01*
X135883510Y-134774041D01*
X135084830Y-135572720D01*
X135256546Y-135689793D01*
X135256550Y-135689795D01*
X135492854Y-135803594D01*
X135492858Y-135803595D01*
X135743494Y-135880907D01*
X135743500Y-135880909D01*
X136002848Y-135919999D01*
X136002857Y-135920000D01*
X136265143Y-135920000D01*
X136265151Y-135919999D01*
X136524499Y-135880909D01*
X136524505Y-135880907D01*
X136775143Y-135803595D01*
X137011445Y-135689798D01*
X137011447Y-135689797D01*
X137183168Y-135572720D01*
X136381534Y-134771086D01*
X136449629Y-134744126D01*
X136582492Y-134647595D01*
X136687175Y-134521055D01*
X136735631Y-134418078D01*
X137536125Y-135218572D01*
X137583971Y-135158573D01*
X137715116Y-134931426D01*
X137810941Y-134687270D01*
X137869306Y-134431550D01*
X137869307Y-134431545D01*
X137888907Y-134170004D01*
X137888907Y-134169995D01*
X137869307Y-133908454D01*
X137869306Y-133908449D01*
X137810941Y-133652729D01*
X137715116Y-133408573D01*
X137715117Y-133408573D01*
X137583972Y-133181426D01*
X137536124Y-133121427D01*
X136736546Y-133921004D01*
X136726812Y-133891044D01*
X136638814Y-133752381D01*
X136519097Y-133639960D01*
X136384489Y-133565958D01*
X137183168Y-132767278D01*
X137011454Y-132650206D01*
X137011445Y-132650201D01*
X136775142Y-132536404D01*
X136775144Y-132536404D01*
X136524505Y-132459092D01*
X136524499Y-132459090D01*
X136265151Y-132420000D01*
X136002848Y-132420000D01*
X135743500Y-132459090D01*
X135743494Y-132459092D01*
X135492858Y-132536404D01*
X135492854Y-132536405D01*
X135256547Y-132650205D01*
X135256539Y-132650210D01*
X135084830Y-132767277D01*
X135886466Y-133568913D01*
X135818371Y-133595874D01*
X135685508Y-133692405D01*
X135580825Y-133818945D01*
X135532368Y-133921920D01*
X134731874Y-133121427D01*
X134684028Y-133181425D01*
X134552883Y-133408573D01*
X134457058Y-133652729D01*
X134398693Y-133908449D01*
X134398692Y-133908454D01*
X134379093Y-134169995D01*
X134379093Y-134170004D01*
X132884500Y-134170004D01*
X132884499Y-132872128D01*
X132878091Y-132812517D01*
X132827796Y-132677669D01*
X132827795Y-132677668D01*
X132827793Y-132677664D01*
X132741547Y-132562455D01*
X132741544Y-132562452D01*
X132626335Y-132476206D01*
X132626328Y-132476202D01*
X132491482Y-132425908D01*
X132491483Y-132425908D01*
X132431883Y-132419501D01*
X132431881Y-132419500D01*
X132431873Y-132419500D01*
X132431864Y-132419500D01*
X129836129Y-132419500D01*
X129836123Y-132419501D01*
X129776516Y-132425908D01*
X129641671Y-132476202D01*
X129641664Y-132476206D01*
X129526455Y-132562452D01*
X129526452Y-132562455D01*
X129440206Y-132677664D01*
X129440202Y-132677671D01*
X129389908Y-132812517D01*
X129384965Y-132858501D01*
X129383501Y-132872123D01*
X129383500Y-132872135D01*
X129383500Y-133170500D01*
X129363815Y-133237539D01*
X129311011Y-133283294D01*
X129259500Y-133294500D01*
X115298006Y-133294500D01*
X115230967Y-133274815D01*
X115210325Y-133258181D01*
X103914418Y-121962274D01*
X103894711Y-121936591D01*
X103866534Y-121887785D01*
X103739870Y-121747111D01*
X103586734Y-121635851D01*
X103586729Y-121635848D01*
X103413807Y-121558857D01*
X103413802Y-121558855D01*
X103260562Y-121526284D01*
X103228646Y-121519500D01*
X103039354Y-121519500D01*
X103007438Y-121526284D01*
X102854197Y-121558855D01*
X102854192Y-121558857D01*
X102681270Y-121635848D01*
X102681265Y-121635851D01*
X102528129Y-121747111D01*
X102401466Y-121887785D01*
X102306821Y-122051715D01*
X102306818Y-122051722D01*
X102263095Y-122186290D01*
X102248326Y-122231744D01*
X102228540Y-122420000D01*
X88691750Y-122420000D01*
X88731425Y-109367002D01*
X100297177Y-109367002D01*
X100316429Y-109587062D01*
X100316430Y-109587070D01*
X100373604Y-109800445D01*
X100373605Y-109800447D01*
X100373606Y-109800450D01*
X100466966Y-110000662D01*
X100466968Y-110000666D01*
X100593670Y-110181615D01*
X100593675Y-110181621D01*
X100749878Y-110337824D01*
X100749884Y-110337829D01*
X100930833Y-110464531D01*
X100930835Y-110464532D01*
X100930838Y-110464534D01*
X101131050Y-110557894D01*
X101344432Y-110615070D01*
X101501623Y-110628822D01*
X101564498Y-110634323D01*
X101564500Y-110634323D01*
X101564502Y-110634323D01*
X101619517Y-110629509D01*
X101784568Y-110615070D01*
X101997950Y-110557894D01*
X102198162Y-110464534D01*
X102379120Y-110337826D01*
X102535326Y-110181620D01*
X102662034Y-110000662D01*
X102755394Y-109800450D01*
X102812570Y-109587068D01*
X102831823Y-109367000D01*
X102812570Y-109146932D01*
X102755394Y-108933550D01*
X102662034Y-108733339D01*
X102535326Y-108552380D01*
X102379120Y-108396174D01*
X102379116Y-108396171D01*
X102379115Y-108396170D01*
X102198166Y-108269468D01*
X102198158Y-108269464D01*
X102069311Y-108209382D01*
X102016871Y-108163210D01*
X101997719Y-108096017D01*
X102017935Y-108029135D01*
X102069311Y-107984618D01*
X102075302Y-107981824D01*
X102198162Y-107924534D01*
X102379120Y-107797826D01*
X102535326Y-107641620D01*
X102662034Y-107460662D01*
X102755394Y-107260450D01*
X102812570Y-107047068D01*
X102831823Y-106827000D01*
X102812570Y-106606932D01*
X102755394Y-106393550D01*
X102662034Y-106193339D01*
X102535326Y-106012380D01*
X102379120Y-105856174D01*
X102379116Y-105856171D01*
X102379115Y-105856170D01*
X102198166Y-105729468D01*
X102198158Y-105729464D01*
X102069311Y-105669382D01*
X102016871Y-105623210D01*
X101997719Y-105556017D01*
X102017935Y-105489135D01*
X102069311Y-105444618D01*
X102075302Y-105441824D01*
X102198162Y-105384534D01*
X102379120Y-105257826D01*
X102535326Y-105101620D01*
X102662034Y-104920662D01*
X102755394Y-104720450D01*
X102812570Y-104507068D01*
X102831823Y-104287000D01*
X102812570Y-104066932D01*
X102755394Y-103853550D01*
X102662034Y-103653339D01*
X102535326Y-103472380D01*
X102379120Y-103316174D01*
X102379116Y-103316171D01*
X102379115Y-103316170D01*
X102198166Y-103189468D01*
X102198158Y-103189464D01*
X102069311Y-103129382D01*
X102016871Y-103083210D01*
X101997719Y-103016017D01*
X102017935Y-102949135D01*
X102069311Y-102904618D01*
X102075302Y-102901824D01*
X102198162Y-102844534D01*
X102379120Y-102717826D01*
X102535326Y-102561620D01*
X102662034Y-102380662D01*
X102755394Y-102180450D01*
X102812570Y-101967068D01*
X102831823Y-101747000D01*
X102812570Y-101526932D01*
X102755394Y-101313550D01*
X102662034Y-101113339D01*
X102577672Y-100992857D01*
X102535327Y-100932381D01*
X102535323Y-100932377D01*
X102379120Y-100776174D01*
X102379116Y-100776171D01*
X102379115Y-100776170D01*
X102198166Y-100649468D01*
X102198158Y-100649464D01*
X102069311Y-100589382D01*
X102016871Y-100543210D01*
X101997719Y-100476017D01*
X102017935Y-100409135D01*
X102069311Y-100364618D01*
X102079555Y-100359841D01*
X102198162Y-100304534D01*
X102379120Y-100177826D01*
X102535326Y-100021620D01*
X102662034Y-99840662D01*
X102755394Y-99640450D01*
X102812570Y-99427068D01*
X102831823Y-99207000D01*
X102812570Y-98986932D01*
X102755394Y-98773550D01*
X102662034Y-98573339D01*
X102535326Y-98392380D01*
X102379120Y-98236174D01*
X102379116Y-98236171D01*
X102379115Y-98236170D01*
X102198166Y-98109468D01*
X102198158Y-98109464D01*
X102069311Y-98049382D01*
X102016871Y-98003210D01*
X101997719Y-97936017D01*
X102017935Y-97869135D01*
X102069311Y-97824618D01*
X102075302Y-97821824D01*
X102198162Y-97764534D01*
X102379120Y-97637826D01*
X102535326Y-97481620D01*
X102662034Y-97300662D01*
X102755394Y-97100450D01*
X102812570Y-96887068D01*
X102831823Y-96667000D01*
X102812570Y-96446932D01*
X102755394Y-96233550D01*
X102662034Y-96033339D01*
X102535326Y-95852380D01*
X102379120Y-95696174D01*
X102379116Y-95696171D01*
X102379115Y-95696170D01*
X102198166Y-95569468D01*
X102198158Y-95569464D01*
X102069311Y-95509382D01*
X102016871Y-95463210D01*
X101997719Y-95396017D01*
X102017935Y-95329135D01*
X102069311Y-95284618D01*
X102075302Y-95281824D01*
X102198162Y-95224534D01*
X102379120Y-95097826D01*
X102535326Y-94941620D01*
X102662034Y-94760662D01*
X102755394Y-94560450D01*
X102812570Y-94347068D01*
X102831823Y-94127000D01*
X102830749Y-94114728D01*
X102823078Y-94027047D01*
X102812570Y-93906932D01*
X102755394Y-93693550D01*
X102662034Y-93493339D01*
X102567389Y-93358171D01*
X102535327Y-93312381D01*
X102463707Y-93240761D01*
X102379120Y-93156174D01*
X102379116Y-93156171D01*
X102379115Y-93156170D01*
X102198166Y-93029468D01*
X102198158Y-93029464D01*
X102069311Y-92969382D01*
X102016871Y-92923210D01*
X101997719Y-92856017D01*
X102017935Y-92789135D01*
X102069311Y-92744618D01*
X102075302Y-92741824D01*
X102198162Y-92684534D01*
X102379120Y-92557826D01*
X102535326Y-92401620D01*
X102662034Y-92220662D01*
X102755394Y-92020450D01*
X102812570Y-91807068D01*
X102831823Y-91587000D01*
X102812570Y-91366932D01*
X102755394Y-91153550D01*
X102662034Y-90953339D01*
X102535326Y-90772380D01*
X102379120Y-90616174D01*
X102379116Y-90616171D01*
X102379115Y-90616170D01*
X102198166Y-90489468D01*
X102198158Y-90489464D01*
X102069311Y-90429382D01*
X102016871Y-90383210D01*
X101997719Y-90316017D01*
X102017935Y-90249135D01*
X102069311Y-90204618D01*
X102075302Y-90201824D01*
X102198162Y-90144534D01*
X102379120Y-90017826D01*
X102535326Y-89861620D01*
X102662034Y-89680662D01*
X102755394Y-89480450D01*
X102812570Y-89267068D01*
X102831823Y-89047000D01*
X102812570Y-88826932D01*
X102755394Y-88613550D01*
X102662034Y-88413339D01*
X102535326Y-88232380D01*
X102379120Y-88076174D01*
X102379116Y-88076171D01*
X102379115Y-88076170D01*
X102198166Y-87949468D01*
X102198158Y-87949464D01*
X102069311Y-87889382D01*
X102016871Y-87843210D01*
X101997719Y-87776017D01*
X102017935Y-87709135D01*
X102069311Y-87664618D01*
X102117886Y-87641967D01*
X102198162Y-87604534D01*
X102379120Y-87477826D01*
X102535326Y-87321620D01*
X102662034Y-87140662D01*
X102755394Y-86940450D01*
X102812570Y-86727068D01*
X102831823Y-86507000D01*
X102812570Y-86286932D01*
X102755394Y-86073550D01*
X102662034Y-85873339D01*
X102535326Y-85692380D01*
X102379120Y-85536174D01*
X102379116Y-85536171D01*
X102379115Y-85536170D01*
X102198166Y-85409468D01*
X102198158Y-85409464D01*
X102069311Y-85349382D01*
X102016871Y-85303210D01*
X101997719Y-85236017D01*
X102017935Y-85169135D01*
X102069311Y-85124618D01*
X102075302Y-85121824D01*
X102198162Y-85064534D01*
X102379120Y-84937826D01*
X102535326Y-84781620D01*
X102662034Y-84600662D01*
X102755394Y-84400450D01*
X102812570Y-84187068D01*
X102831823Y-83967000D01*
X102812570Y-83746932D01*
X102755394Y-83533550D01*
X102662034Y-83333339D01*
X102535326Y-83152380D01*
X102379120Y-82996174D01*
X102379116Y-82996171D01*
X102379115Y-82996170D01*
X102198166Y-82869468D01*
X102198158Y-82869464D01*
X102069311Y-82809382D01*
X102016871Y-82763210D01*
X101997719Y-82696017D01*
X102017935Y-82629135D01*
X102069311Y-82584618D01*
X102075302Y-82581824D01*
X102198162Y-82524534D01*
X102379120Y-82397826D01*
X102535326Y-82241620D01*
X102662034Y-82060662D01*
X102755394Y-81860450D01*
X102812570Y-81647068D01*
X102831823Y-81427000D01*
X102812570Y-81206932D01*
X102755394Y-80993550D01*
X102662034Y-80793339D01*
X102535326Y-80612380D01*
X102379120Y-80456174D01*
X102379116Y-80456171D01*
X102379115Y-80456170D01*
X102198166Y-80329468D01*
X102198162Y-80329466D01*
X102068718Y-80269105D01*
X102016279Y-80222932D01*
X101997127Y-80155739D01*
X102017343Y-80088858D01*
X102068719Y-80044340D01*
X102197916Y-79984095D01*
X102197917Y-79984094D01*
X102262688Y-79938741D01*
X101591948Y-79268000D01*
X101596069Y-79268000D01*
X101689921Y-79252339D01*
X101801751Y-79191820D01*
X101887871Y-79098269D01*
X101938948Y-78981823D01*
X101944605Y-78913552D01*
X102616241Y-79585188D01*
X102661594Y-79520417D01*
X102661600Y-79520407D01*
X102754919Y-79320284D01*
X102754924Y-79320270D01*
X102812073Y-79106986D01*
X102812075Y-79106976D01*
X102831321Y-78887000D01*
X102831321Y-78886999D01*
X102812075Y-78667023D01*
X102812073Y-78667013D01*
X102754924Y-78453729D01*
X102754920Y-78453720D01*
X102661596Y-78253586D01*
X102616241Y-78188811D01*
X102616240Y-78188810D01*
X101949403Y-78855648D01*
X101949449Y-78855102D01*
X101918234Y-78731838D01*
X101848687Y-78625388D01*
X101748343Y-78547287D01*
X101628078Y-78506000D01*
X101591948Y-78506000D01*
X102262688Y-77835259D01*
X102262687Y-77835258D01*
X102197911Y-77789901D01*
X102197905Y-77789898D01*
X102068719Y-77729658D01*
X102016279Y-77683486D01*
X101997127Y-77616293D01*
X102017343Y-77549411D01*
X102068719Y-77504894D01*
X102198162Y-77444534D01*
X102379120Y-77317826D01*
X102535326Y-77161620D01*
X102662034Y-76980662D01*
X102755394Y-76780450D01*
X102812570Y-76567068D01*
X102831823Y-76347000D01*
X102812570Y-76126932D01*
X102755394Y-75913550D01*
X102662034Y-75713339D01*
X102535326Y-75532380D01*
X102379120Y-75376174D01*
X102379116Y-75376171D01*
X102379115Y-75376170D01*
X102198166Y-75249468D01*
X102198158Y-75249464D01*
X102069311Y-75189382D01*
X102016871Y-75143210D01*
X101997719Y-75076017D01*
X102017935Y-75009135D01*
X102069311Y-74964618D01*
X102075302Y-74961824D01*
X102198162Y-74904534D01*
X102379120Y-74777826D01*
X102438127Y-74718819D01*
X102499450Y-74685334D01*
X102525808Y-74682500D01*
X103606994Y-74682500D01*
X103674033Y-74702185D01*
X103694675Y-74718819D01*
X107222181Y-78246325D01*
X107255666Y-78307648D01*
X107258500Y-78334006D01*
X107258500Y-120629378D01*
X107258091Y-120639442D01*
X107253660Y-120693845D01*
X107264688Y-120774790D01*
X107265096Y-120778120D01*
X107273927Y-120859316D01*
X107273929Y-120859327D01*
X107273990Y-120859506D01*
X107279340Y-120882331D01*
X107279366Y-120882525D01*
X107279369Y-120882537D01*
X107307540Y-120959219D01*
X107308655Y-120962385D01*
X107334731Y-121039776D01*
X107334734Y-121039782D01*
X107334832Y-121039945D01*
X107344969Y-121061099D01*
X107345036Y-121061283D01*
X107345040Y-121061290D01*
X107389046Y-121130139D01*
X107390815Y-121132990D01*
X107432912Y-121202955D01*
X107433042Y-121203092D01*
X107447492Y-121221575D01*
X107447600Y-121221744D01*
X107505395Y-121279539D01*
X107507702Y-121281910D01*
X107563866Y-121341203D01*
X107563868Y-121341204D01*
X107563871Y-121341207D01*
X107564028Y-121341314D01*
X107582121Y-121356265D01*
X114236199Y-128010343D01*
X114243026Y-128017749D01*
X114278361Y-128059350D01*
X114278368Y-128059355D01*
X114278369Y-128059357D01*
X114343428Y-128108813D01*
X114346012Y-128110832D01*
X114373099Y-128132606D01*
X114409702Y-128162030D01*
X114409872Y-128162114D01*
X114429814Y-128174483D01*
X114429971Y-128174602D01*
X114504143Y-128208917D01*
X114507120Y-128210344D01*
X114580307Y-128246641D01*
X114580481Y-128246684D01*
X114602626Y-128254480D01*
X114602803Y-128254562D01*
X114682579Y-128272121D01*
X114685827Y-128272882D01*
X114765111Y-128292600D01*
X114765284Y-128292604D01*
X114788602Y-128295460D01*
X114788784Y-128295500D01*
X114870463Y-128295500D01*
X114873821Y-128295545D01*
X114955473Y-128297757D01*
X114955655Y-128297721D01*
X114979023Y-128295500D01*
X140408706Y-128295500D01*
X140434486Y-128298209D01*
X140539354Y-128320500D01*
X140539355Y-128320500D01*
X140728644Y-128320500D01*
X140728646Y-128320500D01*
X140913803Y-128281144D01*
X141086730Y-128204151D01*
X141239871Y-128092888D01*
X141366533Y-127952216D01*
X141461179Y-127788284D01*
X141519674Y-127608256D01*
X141539460Y-127420000D01*
X141519674Y-127231744D01*
X141461179Y-127051716D01*
X141366533Y-126887784D01*
X141239871Y-126747112D01*
X141239870Y-126747111D01*
X141086734Y-126635851D01*
X141086729Y-126635848D01*
X140913807Y-126558857D01*
X140913802Y-126558855D01*
X140753651Y-126524815D01*
X140728646Y-126519500D01*
X140539354Y-126519500D01*
X140514349Y-126524815D01*
X140434487Y-126541790D01*
X140408706Y-126544500D01*
X115298006Y-126544500D01*
X115230967Y-126524815D01*
X115210325Y-126508181D01*
X110520989Y-121818845D01*
X112878660Y-121818845D01*
X112889688Y-121899790D01*
X112890096Y-121903120D01*
X112898927Y-121984316D01*
X112898929Y-121984327D01*
X112898990Y-121984506D01*
X112904340Y-122007331D01*
X112904366Y-122007525D01*
X112904369Y-122007537D01*
X112932540Y-122084219D01*
X112933655Y-122087385D01*
X112959731Y-122164776D01*
X112959734Y-122164782D01*
X112959832Y-122164945D01*
X112969969Y-122186099D01*
X112970036Y-122186283D01*
X112970040Y-122186290D01*
X113014046Y-122255139D01*
X113015815Y-122257990D01*
X113057912Y-122327955D01*
X113058042Y-122328092D01*
X113072495Y-122346579D01*
X113072602Y-122346747D01*
X113103579Y-122377723D01*
X113123286Y-122403406D01*
X113151463Y-122452211D01*
X113151465Y-122452214D01*
X113278129Y-122592888D01*
X113431265Y-122704148D01*
X113431270Y-122704151D01*
X113604192Y-122781142D01*
X113604197Y-122781144D01*
X113789354Y-122820500D01*
X113789355Y-122820500D01*
X113978644Y-122820500D01*
X113978646Y-122820500D01*
X114163803Y-122781144D01*
X114336730Y-122704151D01*
X114489871Y-122592888D01*
X114616533Y-122452216D01*
X114711179Y-122288284D01*
X114769674Y-122108256D01*
X114789460Y-121920000D01*
X114769674Y-121731744D01*
X114711179Y-121551716D01*
X114681963Y-121501112D01*
X114651113Y-121447677D01*
X114634500Y-121385677D01*
X114634500Y-87709006D01*
X114654185Y-87641967D01*
X114670819Y-87621325D01*
X119953325Y-82338819D01*
X120014648Y-82305334D01*
X120041006Y-82302500D01*
X120923192Y-82302500D01*
X120990231Y-82322185D01*
X121010873Y-82338819D01*
X121069878Y-82397824D01*
X121069884Y-82397829D01*
X121250833Y-82524531D01*
X121250835Y-82524532D01*
X121250838Y-82524534D01*
X121370248Y-82580215D01*
X121379689Y-82584618D01*
X121432128Y-82630790D01*
X121451280Y-82697984D01*
X121431064Y-82764865D01*
X121379689Y-82809382D01*
X121250840Y-82869465D01*
X121250838Y-82869466D01*
X121069877Y-82996175D01*
X120913675Y-83152377D01*
X120786966Y-83333338D01*
X120786965Y-83333340D01*
X120693607Y-83533548D01*
X120693604Y-83533554D01*
X120636430Y-83746929D01*
X120636429Y-83746937D01*
X120617177Y-83966997D01*
X120617177Y-83967002D01*
X120636429Y-84187062D01*
X120636430Y-84187070D01*
X120693604Y-84400445D01*
X120693605Y-84400447D01*
X120693606Y-84400450D01*
X120786966Y-84600662D01*
X120786968Y-84600666D01*
X120913670Y-84781615D01*
X120913675Y-84781621D01*
X121069878Y-84937824D01*
X121069884Y-84937829D01*
X121250833Y-85064531D01*
X121250835Y-85064532D01*
X121250838Y-85064534D01*
X121370248Y-85120215D01*
X121379689Y-85124618D01*
X121432128Y-85170790D01*
X121451280Y-85237984D01*
X121431064Y-85304865D01*
X121379689Y-85349382D01*
X121250840Y-85409465D01*
X121250838Y-85409466D01*
X121069877Y-85536175D01*
X120913675Y-85692377D01*
X120786966Y-85873338D01*
X120786965Y-85873340D01*
X120693607Y-86073548D01*
X120693604Y-86073554D01*
X120636430Y-86286929D01*
X120636429Y-86286937D01*
X120617177Y-86506997D01*
X120617177Y-86507002D01*
X120636429Y-86727062D01*
X120636430Y-86727070D01*
X120693604Y-86940445D01*
X120693605Y-86940447D01*
X120693606Y-86940450D01*
X120765780Y-87095229D01*
X120786966Y-87140662D01*
X120786968Y-87140666D01*
X120913670Y-87321615D01*
X120913675Y-87321621D01*
X121069878Y-87477824D01*
X121069884Y-87477829D01*
X121250833Y-87604531D01*
X121250835Y-87604532D01*
X121250838Y-87604534D01*
X121286847Y-87621325D01*
X121379689Y-87664618D01*
X121432128Y-87710790D01*
X121451280Y-87777984D01*
X121431064Y-87844865D01*
X121379689Y-87889382D01*
X121250840Y-87949465D01*
X121250838Y-87949466D01*
X121069877Y-88076175D01*
X120913675Y-88232377D01*
X120786966Y-88413338D01*
X120786965Y-88413340D01*
X120693607Y-88613548D01*
X120693604Y-88613554D01*
X120636430Y-88826929D01*
X120636429Y-88826937D01*
X120617177Y-89046997D01*
X120617177Y-89047002D01*
X120636429Y-89267062D01*
X120636430Y-89267070D01*
X120693604Y-89480445D01*
X120693605Y-89480447D01*
X120693606Y-89480450D01*
X120696747Y-89487185D01*
X120786966Y-89680662D01*
X120786968Y-89680666D01*
X120913670Y-89861615D01*
X120913675Y-89861621D01*
X121069878Y-90017824D01*
X121069884Y-90017829D01*
X121250833Y-90144531D01*
X121250835Y-90144532D01*
X121250838Y-90144534D01*
X121370248Y-90200215D01*
X121379689Y-90204618D01*
X121432128Y-90250790D01*
X121451280Y-90317984D01*
X121431064Y-90384865D01*
X121379689Y-90429382D01*
X121250840Y-90489465D01*
X121250838Y-90489466D01*
X121069877Y-90616175D01*
X120913675Y-90772377D01*
X120786966Y-90953338D01*
X120786965Y-90953340D01*
X120693607Y-91153548D01*
X120693604Y-91153554D01*
X120636430Y-91366929D01*
X120636429Y-91366937D01*
X120617177Y-91586997D01*
X120617177Y-91587002D01*
X120636429Y-91807062D01*
X120636430Y-91807070D01*
X120693604Y-92020445D01*
X120693605Y-92020447D01*
X120693606Y-92020450D01*
X120786966Y-92220662D01*
X120786968Y-92220666D01*
X120913670Y-92401615D01*
X120913675Y-92401621D01*
X121069878Y-92557824D01*
X121069884Y-92557829D01*
X121250833Y-92684531D01*
X121250835Y-92684532D01*
X121250838Y-92684534D01*
X121370248Y-92740215D01*
X121379689Y-92744618D01*
X121432128Y-92790790D01*
X121451280Y-92857984D01*
X121431064Y-92924865D01*
X121379689Y-92969382D01*
X121250840Y-93029465D01*
X121250838Y-93029466D01*
X121069877Y-93156175D01*
X120913675Y-93312377D01*
X120786966Y-93493338D01*
X120786965Y-93493340D01*
X120693607Y-93693548D01*
X120693604Y-93693554D01*
X120636430Y-93906929D01*
X120636429Y-93906937D01*
X120617177Y-94126997D01*
X120617177Y-94127002D01*
X120636429Y-94347062D01*
X120636430Y-94347070D01*
X120693604Y-94560445D01*
X120693605Y-94560447D01*
X120693606Y-94560450D01*
X120786966Y-94760662D01*
X120786968Y-94760666D01*
X120913670Y-94941615D01*
X120913675Y-94941621D01*
X121069878Y-95097824D01*
X121069884Y-95097829D01*
X121250833Y-95224531D01*
X121250835Y-95224532D01*
X121250838Y-95224534D01*
X121370248Y-95280215D01*
X121379689Y-95284618D01*
X121432128Y-95330790D01*
X121451280Y-95397984D01*
X121431064Y-95464865D01*
X121379689Y-95509382D01*
X121250840Y-95569465D01*
X121250838Y-95569466D01*
X121069877Y-95696175D01*
X120913675Y-95852377D01*
X120786966Y-96033338D01*
X120786965Y-96033340D01*
X120693607Y-96233548D01*
X120693604Y-96233554D01*
X120636430Y-96446929D01*
X120636429Y-96446937D01*
X120617177Y-96666997D01*
X120617177Y-96667002D01*
X120636429Y-96887062D01*
X120636430Y-96887070D01*
X120693604Y-97100445D01*
X120693605Y-97100447D01*
X120693606Y-97100450D01*
X120786966Y-97300662D01*
X120786968Y-97300666D01*
X120913670Y-97481615D01*
X120913675Y-97481621D01*
X121069878Y-97637824D01*
X121069884Y-97637829D01*
X121250833Y-97764531D01*
X121250835Y-97764532D01*
X121250838Y-97764534D01*
X121370248Y-97820215D01*
X121379689Y-97824618D01*
X121432128Y-97870790D01*
X121451280Y-97937984D01*
X121431064Y-98004865D01*
X121379689Y-98049382D01*
X121250840Y-98109465D01*
X121250838Y-98109466D01*
X121069877Y-98236175D01*
X120913675Y-98392377D01*
X120786966Y-98573338D01*
X120786965Y-98573340D01*
X120693607Y-98773548D01*
X120693604Y-98773554D01*
X120636430Y-98986929D01*
X120636429Y-98986937D01*
X120617177Y-99206997D01*
X120617177Y-99207002D01*
X120636429Y-99427062D01*
X120636430Y-99427070D01*
X120693604Y-99640445D01*
X120693605Y-99640447D01*
X120693606Y-99640450D01*
X120739687Y-99739271D01*
X120786966Y-99840662D01*
X120786968Y-99840666D01*
X120913670Y-100021615D01*
X120913675Y-100021621D01*
X121069878Y-100177824D01*
X121069884Y-100177829D01*
X121250833Y-100304531D01*
X121250835Y-100304532D01*
X121250838Y-100304534D01*
X121369445Y-100359841D01*
X121379689Y-100364618D01*
X121432128Y-100410790D01*
X121451280Y-100477984D01*
X121431064Y-100544865D01*
X121379689Y-100589382D01*
X121250840Y-100649465D01*
X121250838Y-100649466D01*
X121069877Y-100776175D01*
X120913675Y-100932377D01*
X120786966Y-101113338D01*
X120786965Y-101113340D01*
X120693607Y-101313548D01*
X120693604Y-101313554D01*
X120636430Y-101526929D01*
X120636429Y-101526937D01*
X120617177Y-101746997D01*
X120617177Y-101747002D01*
X120636429Y-101967062D01*
X120636430Y-101967070D01*
X120693604Y-102180445D01*
X120693605Y-102180447D01*
X120693606Y-102180450D01*
X120766628Y-102337047D01*
X120786966Y-102380662D01*
X120786968Y-102380666D01*
X120913670Y-102561615D01*
X120913675Y-102561621D01*
X121069878Y-102717824D01*
X121069884Y-102717829D01*
X121250833Y-102844531D01*
X121250835Y-102844532D01*
X121250838Y-102844534D01*
X121370248Y-102900215D01*
X121379689Y-102904618D01*
X121432128Y-102950790D01*
X121451280Y-103017984D01*
X121431064Y-103084865D01*
X121379689Y-103129382D01*
X121250840Y-103189465D01*
X121250838Y-103189466D01*
X121069877Y-103316175D01*
X120913675Y-103472377D01*
X120786966Y-103653338D01*
X120786965Y-103653340D01*
X120693607Y-103853548D01*
X120693604Y-103853554D01*
X120636430Y-104066929D01*
X120636429Y-104066937D01*
X120617177Y-104286997D01*
X120617177Y-104287002D01*
X120636429Y-104507062D01*
X120636430Y-104507070D01*
X120693604Y-104720445D01*
X120693605Y-104720447D01*
X120693606Y-104720450D01*
X120786966Y-104920662D01*
X120786968Y-104920666D01*
X120913670Y-105101615D01*
X120913675Y-105101621D01*
X121069878Y-105257824D01*
X121069884Y-105257829D01*
X121250833Y-105384531D01*
X121250835Y-105384532D01*
X121250838Y-105384534D01*
X121370248Y-105440215D01*
X121379689Y-105444618D01*
X121432128Y-105490790D01*
X121451280Y-105557984D01*
X121431064Y-105624865D01*
X121379689Y-105669382D01*
X121250840Y-105729465D01*
X121250838Y-105729466D01*
X121069877Y-105856175D01*
X120913675Y-106012377D01*
X120786966Y-106193338D01*
X120786965Y-106193340D01*
X120693607Y-106393548D01*
X120693604Y-106393554D01*
X120636430Y-106606929D01*
X120636429Y-106606937D01*
X120617177Y-106826997D01*
X120617177Y-106827002D01*
X120636429Y-107047062D01*
X120636430Y-107047070D01*
X120693604Y-107260445D01*
X120693605Y-107260447D01*
X120693606Y-107260450D01*
X120786966Y-107460662D01*
X120786968Y-107460666D01*
X120913670Y-107641615D01*
X120913675Y-107641621D01*
X121069878Y-107797824D01*
X121069884Y-107797829D01*
X121250833Y-107924531D01*
X121250835Y-107924532D01*
X121250838Y-107924534D01*
X121370248Y-107980215D01*
X121379689Y-107984618D01*
X121432128Y-108030790D01*
X121451280Y-108097984D01*
X121431064Y-108164865D01*
X121379689Y-108209382D01*
X121250840Y-108269465D01*
X121250838Y-108269466D01*
X121069877Y-108396175D01*
X120913675Y-108552377D01*
X120786966Y-108733338D01*
X120786965Y-108733340D01*
X120693607Y-108933548D01*
X120693604Y-108933554D01*
X120636430Y-109146929D01*
X120636429Y-109146937D01*
X120617177Y-109366997D01*
X120617177Y-109367002D01*
X120636429Y-109587062D01*
X120636430Y-109587070D01*
X120693604Y-109800445D01*
X120693605Y-109800447D01*
X120693606Y-109800450D01*
X120786966Y-110000662D01*
X120786968Y-110000666D01*
X120913670Y-110181615D01*
X120913675Y-110181621D01*
X121069878Y-110337824D01*
X121069884Y-110337829D01*
X121250833Y-110464531D01*
X121250835Y-110464532D01*
X121250838Y-110464534D01*
X121451050Y-110557894D01*
X121664432Y-110615070D01*
X121821623Y-110628822D01*
X121884498Y-110634323D01*
X121884500Y-110634323D01*
X121884502Y-110634323D01*
X121939517Y-110629509D01*
X122104568Y-110615070D01*
X122317950Y-110557894D01*
X122518162Y-110464534D01*
X122699120Y-110337826D01*
X122855326Y-110181620D01*
X122982034Y-110000662D01*
X123075394Y-109800450D01*
X123132570Y-109587068D01*
X123151823Y-109367000D01*
X123132570Y-109146932D01*
X123075394Y-108933550D01*
X122982034Y-108733339D01*
X122855326Y-108552380D01*
X122699120Y-108396174D01*
X122699116Y-108396171D01*
X122699115Y-108396170D01*
X122518166Y-108269468D01*
X122518158Y-108269464D01*
X122389311Y-108209382D01*
X122336871Y-108163210D01*
X122317719Y-108096017D01*
X122337935Y-108029135D01*
X122389311Y-107984618D01*
X122395302Y-107981824D01*
X122518162Y-107924534D01*
X122699120Y-107797826D01*
X122855326Y-107641620D01*
X122982034Y-107460662D01*
X123075394Y-107260450D01*
X123132570Y-107047068D01*
X123151823Y-106827000D01*
X123139693Y-106688354D01*
X123153459Y-106619857D01*
X123202075Y-106569674D01*
X123270103Y-106553740D01*
X123335947Y-106577115D01*
X123350902Y-106589868D01*
X143722181Y-126961147D01*
X143755666Y-127022470D01*
X143758500Y-127048828D01*
X143758500Y-133337255D01*
X143756775Y-133352872D01*
X143757061Y-133352899D01*
X143756326Y-133360665D01*
X143758439Y-133427872D01*
X143758500Y-133431767D01*
X143758500Y-133459357D01*
X143759003Y-133463335D01*
X143759918Y-133474967D01*
X143761290Y-133518624D01*
X143761291Y-133518627D01*
X143766880Y-133537867D01*
X143770824Y-133556911D01*
X143773336Y-133576792D01*
X143789414Y-133617403D01*
X143793197Y-133628452D01*
X143805381Y-133670388D01*
X143815580Y-133687634D01*
X143824138Y-133705103D01*
X143831514Y-133723732D01*
X143857181Y-133759060D01*
X143863593Y-133768821D01*
X143885828Y-133806417D01*
X143885833Y-133806424D01*
X143899990Y-133820580D01*
X143912628Y-133835376D01*
X143924405Y-133851586D01*
X143924406Y-133851587D01*
X143958057Y-133879425D01*
X143966698Y-133887288D01*
X144945038Y-134865629D01*
X144978523Y-134926952D01*
X144980678Y-134940348D01*
X144987428Y-135004563D01*
X144998326Y-135108256D01*
X144998327Y-135108259D01*
X145056818Y-135288277D01*
X145056821Y-135288284D01*
X145151467Y-135452216D01*
X145165574Y-135467883D01*
X145278129Y-135592888D01*
X145431265Y-135704148D01*
X145431270Y-135704151D01*
X145604192Y-135781142D01*
X145604197Y-135781144D01*
X145789354Y-135820500D01*
X145789355Y-135820500D01*
X145978644Y-135820500D01*
X145978646Y-135820500D01*
X146163803Y-135781144D01*
X146336730Y-135704151D01*
X146489871Y-135592888D01*
X146616533Y-135452216D01*
X146711179Y-135288284D01*
X146769674Y-135108256D01*
X146789460Y-134920000D01*
X146769674Y-134731744D01*
X146711179Y-134551716D01*
X146616533Y-134387784D01*
X146607698Y-134377972D01*
X146577469Y-134314981D01*
X146586093Y-134245646D01*
X146607699Y-134212027D01*
X146616533Y-134202216D01*
X146711179Y-134038284D01*
X146769674Y-133858256D01*
X146789460Y-133670000D01*
X146769674Y-133481744D01*
X146711179Y-133301716D01*
X146616533Y-133137784D01*
X146607698Y-133127972D01*
X146577469Y-133064981D01*
X146586093Y-132995646D01*
X146607699Y-132962027D01*
X146616533Y-132952216D01*
X146711179Y-132788284D01*
X146769674Y-132608256D01*
X146789460Y-132420000D01*
X146769674Y-132231744D01*
X146715569Y-132065226D01*
X146709500Y-132026908D01*
X146709500Y-130940848D01*
X146729185Y-130873809D01*
X146781989Y-130828054D01*
X146851147Y-130818110D01*
X146914703Y-130847135D01*
X146921180Y-130853166D01*
X149020227Y-132952214D01*
X151021801Y-134953788D01*
X151031626Y-134966051D01*
X151031847Y-134965869D01*
X151036815Y-134971874D01*
X151036817Y-134971876D01*
X151036818Y-134971877D01*
X151066266Y-134999531D01*
X151085826Y-135017899D01*
X151088625Y-135020612D01*
X151108126Y-135040114D01*
X151108130Y-135040117D01*
X151108133Y-135040120D01*
X151111306Y-135042581D01*
X151120178Y-135050159D01*
X151152022Y-135080062D01*
X151169580Y-135089714D01*
X151185839Y-135100395D01*
X151201668Y-135112673D01*
X151241759Y-135130021D01*
X151252230Y-135135151D01*
X151274784Y-135147550D01*
X151290506Y-135156194D01*
X151290508Y-135156195D01*
X151290512Y-135156197D01*
X151309920Y-135161180D01*
X151328323Y-135167481D01*
X151346705Y-135175436D01*
X151346706Y-135175436D01*
X151346708Y-135175437D01*
X151389854Y-135182270D01*
X151401276Y-135184636D01*
X151443585Y-135195500D01*
X151463620Y-135195500D01*
X151483018Y-135197026D01*
X151502798Y-135200159D01*
X151502799Y-135200160D01*
X151502799Y-135200159D01*
X151502800Y-135200160D01*
X151546279Y-135196050D01*
X151557948Y-135195500D01*
X183186582Y-135195500D01*
X183253621Y-135215185D01*
X183299376Y-135267989D01*
X183304513Y-135281181D01*
X183306819Y-135288280D01*
X183306821Y-135288284D01*
X183401467Y-135452216D01*
X183415574Y-135467883D01*
X183528129Y-135592888D01*
X183681265Y-135704148D01*
X183681270Y-135704151D01*
X183854192Y-135781142D01*
X183854197Y-135781144D01*
X184039354Y-135820500D01*
X184039355Y-135820500D01*
X184228644Y-135820500D01*
X184228646Y-135820500D01*
X184413803Y-135781144D01*
X184586730Y-135704151D01*
X184739871Y-135592888D01*
X184866533Y-135452216D01*
X184961179Y-135288284D01*
X185019674Y-135108256D01*
X185039460Y-134920000D01*
X185019674Y-134731744D01*
X184961179Y-134551716D01*
X184866533Y-134387784D01*
X184857698Y-134377972D01*
X184827469Y-134314981D01*
X184836093Y-134245646D01*
X184857699Y-134212027D01*
X184866533Y-134202216D01*
X184961179Y-134038284D01*
X185019674Y-133858256D01*
X185039460Y-133670000D01*
X185019674Y-133481744D01*
X184961179Y-133301716D01*
X184866533Y-133137784D01*
X184857698Y-133127972D01*
X184827469Y-133064981D01*
X184836093Y-132995646D01*
X184857699Y-132962027D01*
X184866533Y-132952216D01*
X184961179Y-132788284D01*
X185019674Y-132608256D01*
X185039460Y-132420000D01*
X185019674Y-132231744D01*
X184961179Y-132051716D01*
X184866533Y-131887784D01*
X184739871Y-131747112D01*
X184739870Y-131747111D01*
X184586734Y-131635851D01*
X184586729Y-131635848D01*
X184413807Y-131558857D01*
X184413802Y-131558855D01*
X184268001Y-131527865D01*
X184228646Y-131519500D01*
X184039354Y-131519500D01*
X184007456Y-131526280D01*
X183854197Y-131558855D01*
X183854192Y-131558857D01*
X183681270Y-131635848D01*
X183681265Y-131635851D01*
X183528129Y-131747111D01*
X183401466Y-131887785D01*
X183306821Y-132051715D01*
X183306818Y-132051722D01*
X183248327Y-132231740D01*
X183248326Y-132231744D01*
X183230679Y-132399649D01*
X183204094Y-132464263D01*
X183195039Y-132474368D01*
X182661228Y-133008181D01*
X182599905Y-133041666D01*
X182573547Y-133044500D01*
X153167027Y-133044500D01*
X153099988Y-133024815D01*
X153054233Y-132972011D01*
X153044289Y-132902853D01*
X153059640Y-132858501D01*
X153100176Y-132788289D01*
X153100175Y-132788289D01*
X153100179Y-132788284D01*
X153158674Y-132608256D01*
X153176321Y-132440344D01*
X153202904Y-132375734D01*
X153211951Y-132365638D01*
X154495772Y-131081819D01*
X154557095Y-131048334D01*
X154583453Y-131045500D01*
X188062548Y-131045500D01*
X188129587Y-131065185D01*
X188150229Y-131081819D01*
X189434038Y-132365629D01*
X189467523Y-132426952D01*
X189469678Y-132440348D01*
X189472192Y-132464263D01*
X189487326Y-132608256D01*
X189487327Y-132608259D01*
X189545818Y-132788277D01*
X189545821Y-132788284D01*
X189640467Y-132952216D01*
X189767129Y-133092888D01*
X189920265Y-133204148D01*
X189920270Y-133204151D01*
X190093192Y-133281142D01*
X190093197Y-133281144D01*
X190278354Y-133320500D01*
X190278355Y-133320500D01*
X190467644Y-133320500D01*
X190467646Y-133320500D01*
X190652803Y-133281144D01*
X190825730Y-133204151D01*
X190978871Y-133092888D01*
X191105533Y-132952216D01*
X191200179Y-132788284D01*
X191258674Y-132608256D01*
X191278460Y-132420000D01*
X191258674Y-132231744D01*
X191200179Y-132051716D01*
X191105533Y-131887784D01*
X190978871Y-131747112D01*
X190978870Y-131747111D01*
X190825734Y-131635851D01*
X190825729Y-131635848D01*
X190652807Y-131558857D01*
X190652802Y-131558855D01*
X190507001Y-131527865D01*
X190467646Y-131519500D01*
X190467645Y-131519500D01*
X190408453Y-131519500D01*
X190341414Y-131499815D01*
X190320772Y-131483181D01*
X188873803Y-130036212D01*
X188863980Y-130023950D01*
X188863759Y-130024134D01*
X188858786Y-130018122D01*
X188809776Y-129972099D01*
X188806977Y-129969386D01*
X188787477Y-129949885D01*
X188787471Y-129949880D01*
X188784286Y-129947409D01*
X188775434Y-129939848D01*
X188743582Y-129909938D01*
X188743580Y-129909936D01*
X188743577Y-129909935D01*
X188726029Y-129900288D01*
X188709763Y-129889604D01*
X188693932Y-129877324D01*
X188653849Y-129859978D01*
X188643363Y-129854841D01*
X188605094Y-129833803D01*
X188605092Y-129833802D01*
X188585693Y-129828822D01*
X188567281Y-129822518D01*
X188548898Y-129814562D01*
X188548892Y-129814560D01*
X188505760Y-129807729D01*
X188494322Y-129805361D01*
X188452020Y-129794500D01*
X188452019Y-129794500D01*
X188431984Y-129794500D01*
X188412586Y-129792973D01*
X188405162Y-129791797D01*
X188392805Y-129789840D01*
X188392804Y-129789840D01*
X188349325Y-129793950D01*
X188337656Y-129794500D01*
X154355738Y-129794500D01*
X154340121Y-129792776D01*
X154340094Y-129793062D01*
X154332332Y-129792327D01*
X154265145Y-129794439D01*
X154261251Y-129794500D01*
X154233650Y-129794500D01*
X154229962Y-129794965D01*
X154229649Y-129795005D01*
X154218031Y-129795918D01*
X154174373Y-129797290D01*
X154174372Y-129797290D01*
X154155129Y-129802881D01*
X154136079Y-129806825D01*
X154116211Y-129809334D01*
X154116210Y-129809335D01*
X154075600Y-129825413D01*
X154064553Y-129829195D01*
X154022610Y-129841381D01*
X154022609Y-129841382D01*
X154005367Y-129851579D01*
X153987899Y-129860137D01*
X153969269Y-129867513D01*
X153969266Y-129867515D01*
X153933939Y-129893181D01*
X153924180Y-129899592D01*
X153886579Y-129921830D01*
X153872408Y-129936000D01*
X153857623Y-129948628D01*
X153841412Y-129960407D01*
X153813571Y-129994059D01*
X153805711Y-130002696D01*
X152325228Y-131483181D01*
X152263905Y-131516666D01*
X152237547Y-131519500D01*
X152178352Y-131519500D01*
X151988332Y-131559889D01*
X151918665Y-131554573D01*
X151874871Y-131526280D01*
X148545819Y-128197228D01*
X148512334Y-128135905D01*
X148509500Y-128109547D01*
X148509500Y-126502742D01*
X148511224Y-126487122D01*
X148510939Y-126487096D01*
X148511671Y-126479340D01*
X148511673Y-126479333D01*
X148509561Y-126412126D01*
X148509500Y-126408231D01*
X148509500Y-126380654D01*
X148509500Y-126380650D01*
X148508996Y-126376665D01*
X148508080Y-126365021D01*
X148506709Y-126321373D01*
X148501122Y-126302144D01*
X148497174Y-126283084D01*
X148494663Y-126263204D01*
X148478588Y-126222604D01*
X148474804Y-126211552D01*
X148462618Y-126169609D01*
X148462616Y-126169606D01*
X148452423Y-126152371D01*
X148443861Y-126134894D01*
X148436487Y-126116269D01*
X148410816Y-126080937D01*
X148404405Y-126071177D01*
X148382170Y-126033580D01*
X148382168Y-126033578D01*
X148382165Y-126033574D01*
X148368006Y-126019415D01*
X148355368Y-126004619D01*
X148343594Y-125988413D01*
X148309940Y-125960572D01*
X148301299Y-125952709D01*
X145520574Y-123171983D01*
X145487089Y-123110660D01*
X145492073Y-123040968D01*
X145533945Y-122985035D01*
X145557819Y-122971023D01*
X145586730Y-122958151D01*
X145739871Y-122846888D01*
X145742788Y-122843647D01*
X145745600Y-122840526D01*
X145805087Y-122803879D01*
X145837748Y-122799500D01*
X154551086Y-122799500D01*
X154618125Y-122819185D01*
X154658473Y-122861500D01*
X154715465Y-122960214D01*
X154842129Y-123100888D01*
X154995265Y-123212148D01*
X154995270Y-123212151D01*
X155168192Y-123289142D01*
X155168197Y-123289144D01*
X155353354Y-123328500D01*
X155353355Y-123328500D01*
X155542644Y-123328500D01*
X155542646Y-123328500D01*
X155727803Y-123289144D01*
X155900730Y-123212151D01*
X156053871Y-123100888D01*
X156180533Y-122960216D01*
X156275179Y-122796284D01*
X156333674Y-122616256D01*
X156353460Y-122428000D01*
X156333674Y-122239744D01*
X156275179Y-122059716D01*
X156180533Y-121895784D01*
X156053871Y-121755112D01*
X156021708Y-121731744D01*
X155900734Y-121643851D01*
X155900729Y-121643848D01*
X155727807Y-121566857D01*
X155727802Y-121566855D01*
X155582001Y-121535865D01*
X155542646Y-121527500D01*
X155429456Y-121527500D01*
X155362417Y-121507815D01*
X155316662Y-121455011D01*
X155306718Y-121385853D01*
X155311524Y-121365184D01*
X155314422Y-121356265D01*
X155317674Y-121346256D01*
X155337460Y-121158000D01*
X155317674Y-120969744D01*
X155304700Y-120929817D01*
X155302706Y-120859978D01*
X155338786Y-120800145D01*
X155401487Y-120769316D01*
X155422632Y-120767500D01*
X160424252Y-120767500D01*
X160491291Y-120787185D01*
X160516400Y-120808526D01*
X160522126Y-120814885D01*
X160522130Y-120814889D01*
X160675265Y-120926148D01*
X160675270Y-120926151D01*
X160848192Y-121003142D01*
X160848197Y-121003144D01*
X161033354Y-121042500D01*
X161033355Y-121042500D01*
X161222644Y-121042500D01*
X161222646Y-121042500D01*
X161407803Y-121003144D01*
X161580730Y-120926151D01*
X161733871Y-120814888D01*
X161860533Y-120674216D01*
X161955179Y-120510284D01*
X162013674Y-120330256D01*
X162033460Y-120142000D01*
X181212540Y-120142000D01*
X181232326Y-120330256D01*
X181232327Y-120330259D01*
X181290818Y-120510277D01*
X181290821Y-120510284D01*
X181385467Y-120674216D01*
X181477511Y-120776441D01*
X181512129Y-120814888D01*
X181665265Y-120926148D01*
X181665270Y-120926151D01*
X181838192Y-121003142D01*
X181838197Y-121003144D01*
X182023354Y-121042500D01*
X182082548Y-121042500D01*
X182149587Y-121062185D01*
X182170229Y-121078819D01*
X182355878Y-121264468D01*
X182389363Y-121325791D01*
X182384379Y-121395483D01*
X182342507Y-121451416D01*
X182341083Y-121452467D01*
X182274127Y-121501113D01*
X182147466Y-121641785D01*
X182052821Y-121805715D01*
X182052818Y-121805722D01*
X182005702Y-121950731D01*
X181994326Y-121985744D01*
X181974540Y-122174000D01*
X181994326Y-122362256D01*
X181994327Y-122362259D01*
X182052818Y-122542277D01*
X182052821Y-122542284D01*
X182147467Y-122706216D01*
X182249185Y-122819185D01*
X182274129Y-122846888D01*
X182427265Y-122958148D01*
X182427270Y-122958151D01*
X182600192Y-123035142D01*
X182600197Y-123035144D01*
X182785354Y-123074500D01*
X182785355Y-123074500D01*
X182974644Y-123074500D01*
X182974646Y-123074500D01*
X183159803Y-123035144D01*
X183332730Y-122958151D01*
X183485871Y-122846888D01*
X183488788Y-122843647D01*
X183491600Y-122840526D01*
X183551087Y-122803879D01*
X183583748Y-122799500D01*
X191574252Y-122799500D01*
X191641291Y-122819185D01*
X191666400Y-122840526D01*
X191672126Y-122846885D01*
X191672130Y-122846889D01*
X191825265Y-122958148D01*
X191825270Y-122958151D01*
X191998192Y-123035142D01*
X191998197Y-123035144D01*
X192183354Y-123074500D01*
X192183355Y-123074500D01*
X192372644Y-123074500D01*
X192372646Y-123074500D01*
X192557803Y-123035144D01*
X192730730Y-122958151D01*
X192883871Y-122846888D01*
X193010533Y-122706216D01*
X193105179Y-122542284D01*
X193163674Y-122362256D01*
X193183460Y-122174000D01*
X193163674Y-121985744D01*
X193105179Y-121805716D01*
X193010533Y-121641784D01*
X192883871Y-121501112D01*
X192883870Y-121501111D01*
X192730734Y-121389851D01*
X192730729Y-121389848D01*
X192557807Y-121312857D01*
X192557802Y-121312855D01*
X192400883Y-121279502D01*
X192372646Y-121273500D01*
X192291250Y-121273500D01*
X192224211Y-121253815D01*
X192178456Y-121201011D01*
X192167929Y-121162462D01*
X192164831Y-121132990D01*
X192147674Y-120969744D01*
X192134700Y-120929817D01*
X192132706Y-120859978D01*
X192168786Y-120800145D01*
X192231487Y-120769316D01*
X192252632Y-120767500D01*
X203004252Y-120767500D01*
X203071291Y-120787185D01*
X203096400Y-120808526D01*
X203102126Y-120814885D01*
X203102130Y-120814889D01*
X203255265Y-120926148D01*
X203255270Y-120926151D01*
X203428192Y-121003142D01*
X203428197Y-121003144D01*
X203613354Y-121042500D01*
X203613355Y-121042500D01*
X203802644Y-121042500D01*
X203802646Y-121042500D01*
X203987803Y-121003144D01*
X204160730Y-120926151D01*
X204313871Y-120814888D01*
X204440533Y-120674216D01*
X204535179Y-120510284D01*
X204593674Y-120330256D01*
X204613460Y-120142000D01*
X204593674Y-119953744D01*
X204535179Y-119773716D01*
X204440533Y-119609784D01*
X204313871Y-119469112D01*
X204313870Y-119469111D01*
X204160734Y-119357851D01*
X204160729Y-119357848D01*
X203987807Y-119280857D01*
X203987802Y-119280855D01*
X203830267Y-119247371D01*
X203802646Y-119241500D01*
X203613354Y-119241500D01*
X203585733Y-119247371D01*
X203428197Y-119280855D01*
X203428192Y-119280857D01*
X203255270Y-119357848D01*
X203255265Y-119357851D01*
X203102130Y-119469110D01*
X203102126Y-119469114D01*
X203096400Y-119475474D01*
X203036913Y-119512121D01*
X203004252Y-119516500D01*
X199910829Y-119516500D01*
X199843790Y-119496815D01*
X199798035Y-119444011D01*
X199788646Y-119386498D01*
X199787460Y-119386498D01*
X199787460Y-119380002D01*
X199787460Y-119380000D01*
X199767674Y-119191744D01*
X199709179Y-119011716D01*
X199614533Y-118847784D01*
X199487871Y-118707112D01*
X199487870Y-118707111D01*
X199334734Y-118595851D01*
X199334729Y-118595848D01*
X199161807Y-118518857D01*
X199161802Y-118518855D01*
X199016001Y-118487865D01*
X198976646Y-118479500D01*
X198787354Y-118479500D01*
X198754897Y-118486398D01*
X198602197Y-118518855D01*
X198602192Y-118518857D01*
X198429270Y-118595848D01*
X198429265Y-118595851D01*
X198276130Y-118707110D01*
X198276126Y-118707114D01*
X198270400Y-118713474D01*
X198210913Y-118750121D01*
X198178252Y-118754500D01*
X195046632Y-118754500D01*
X194979593Y-118734815D01*
X194933838Y-118682011D01*
X194923894Y-118612853D01*
X194928699Y-118592186D01*
X194941674Y-118552256D01*
X194961460Y-118364000D01*
X194941674Y-118175744D01*
X194883179Y-117995716D01*
X194788533Y-117831784D01*
X194661871Y-117691112D01*
X194661870Y-117691111D01*
X194508734Y-117579851D01*
X194508729Y-117579848D01*
X194335807Y-117502857D01*
X194335802Y-117502855D01*
X194190001Y-117471865D01*
X194150646Y-117463500D01*
X193961354Y-117463500D01*
X193928897Y-117470398D01*
X193776197Y-117502855D01*
X193776192Y-117502857D01*
X193603270Y-117579848D01*
X193603265Y-117579851D01*
X193450130Y-117691110D01*
X193450126Y-117691114D01*
X193444400Y-117697474D01*
X193384913Y-117734121D01*
X193352252Y-117738500D01*
X189933748Y-117738500D01*
X189866709Y-117718815D01*
X189841600Y-117697474D01*
X189835873Y-117691114D01*
X189835869Y-117691110D01*
X189682734Y-117579851D01*
X189682729Y-117579848D01*
X189509807Y-117502857D01*
X189509802Y-117502855D01*
X189364001Y-117471865D01*
X189324646Y-117463500D01*
X189135354Y-117463500D01*
X189102897Y-117470398D01*
X188950197Y-117502855D01*
X188950192Y-117502857D01*
X188777270Y-117579848D01*
X188777265Y-117579851D01*
X188624129Y-117691111D01*
X188497466Y-117831785D01*
X188402821Y-117995715D01*
X188402818Y-117995722D01*
X188344327Y-118175740D01*
X188344326Y-118175744D01*
X188324540Y-118364000D01*
X188344326Y-118552257D01*
X188349423Y-118567944D01*
X188357299Y-118592182D01*
X188359294Y-118662022D01*
X188323214Y-118721855D01*
X188260513Y-118752684D01*
X188239368Y-118754500D01*
X187393748Y-118754500D01*
X187326709Y-118734815D01*
X187301600Y-118713474D01*
X187295873Y-118707114D01*
X187295869Y-118707110D01*
X187142734Y-118595851D01*
X187142729Y-118595848D01*
X186969807Y-118518857D01*
X186969802Y-118518855D01*
X186824001Y-118487865D01*
X186784646Y-118479500D01*
X186595354Y-118479500D01*
X186562897Y-118486398D01*
X186410197Y-118518855D01*
X186410192Y-118518857D01*
X186237270Y-118595848D01*
X186237265Y-118595851D01*
X186084129Y-118707111D01*
X185957466Y-118847785D01*
X185862821Y-119011715D01*
X185862819Y-119011719D01*
X185804991Y-119189696D01*
X185765553Y-119247371D01*
X185701194Y-119274569D01*
X185661280Y-119272667D01*
X185514647Y-119241500D01*
X185514646Y-119241500D01*
X185325354Y-119241500D01*
X185297733Y-119247371D01*
X185140197Y-119280855D01*
X185140192Y-119280857D01*
X184967270Y-119357848D01*
X184967265Y-119357851D01*
X184814129Y-119469111D01*
X184687466Y-119609785D01*
X184592821Y-119773715D01*
X184592818Y-119773722D01*
X184534327Y-119953740D01*
X184534326Y-119953744D01*
X184514540Y-120142000D01*
X184534326Y-120330256D01*
X184547299Y-120370182D01*
X184549294Y-120440022D01*
X184513214Y-120499855D01*
X184450513Y-120530684D01*
X184429368Y-120532500D01*
X183444452Y-120532500D01*
X183377413Y-120512815D01*
X183356771Y-120496181D01*
X183056960Y-120196369D01*
X183023475Y-120135046D01*
X183021323Y-120121668D01*
X183003674Y-119953744D01*
X182945179Y-119773716D01*
X182850533Y-119609784D01*
X182723871Y-119469112D01*
X182723870Y-119469111D01*
X182570734Y-119357851D01*
X182570729Y-119357848D01*
X182397807Y-119280857D01*
X182397802Y-119280855D01*
X182240267Y-119247371D01*
X182212646Y-119241500D01*
X182023354Y-119241500D01*
X181995733Y-119247371D01*
X181838197Y-119280855D01*
X181838192Y-119280857D01*
X181665270Y-119357848D01*
X181665265Y-119357851D01*
X181512129Y-119469111D01*
X181385466Y-119609785D01*
X181290821Y-119773715D01*
X181290818Y-119773722D01*
X181232327Y-119953740D01*
X181232326Y-119953744D01*
X181212540Y-120142000D01*
X162033460Y-120142000D01*
X162013674Y-119953744D01*
X161955179Y-119773716D01*
X161860533Y-119609784D01*
X161733871Y-119469112D01*
X161733870Y-119469111D01*
X161580734Y-119357851D01*
X161580729Y-119357848D01*
X161407807Y-119280857D01*
X161407802Y-119280855D01*
X161250267Y-119247371D01*
X161222646Y-119241500D01*
X161033354Y-119241500D01*
X161005733Y-119247371D01*
X160848197Y-119280855D01*
X160848192Y-119280857D01*
X160675270Y-119357848D01*
X160675265Y-119357851D01*
X160522130Y-119469110D01*
X160522126Y-119469114D01*
X160516400Y-119475474D01*
X160456913Y-119512121D01*
X160424252Y-119516500D01*
X159408604Y-119516500D01*
X159341565Y-119496815D01*
X159295810Y-119444011D01*
X159285283Y-119379539D01*
X159289460Y-119339800D01*
X159269674Y-119151544D01*
X159211179Y-118971516D01*
X159116533Y-118807584D01*
X158989871Y-118666912D01*
X158989870Y-118666911D01*
X158836734Y-118555651D01*
X158836729Y-118555648D01*
X158663807Y-118478657D01*
X158663802Y-118478655D01*
X158518001Y-118447665D01*
X158478646Y-118439300D01*
X158289354Y-118439300D01*
X158256897Y-118446198D01*
X158104197Y-118478655D01*
X158104192Y-118478657D01*
X157931270Y-118555648D01*
X157931265Y-118555651D01*
X157778130Y-118666910D01*
X157778126Y-118666914D01*
X157772400Y-118673274D01*
X157712913Y-118709921D01*
X157680252Y-118714300D01*
X156959694Y-118714300D01*
X156892655Y-118694615D01*
X156846900Y-118641811D01*
X156836956Y-118572653D01*
X156841406Y-118553515D01*
X156841672Y-118552261D01*
X156841674Y-118552256D01*
X156861460Y-118364000D01*
X156841674Y-118175744D01*
X156783179Y-117995716D01*
X156688533Y-117831784D01*
X156561871Y-117691112D01*
X156561870Y-117691111D01*
X156408734Y-117579851D01*
X156408729Y-117579848D01*
X156235807Y-117502857D01*
X156235802Y-117502855D01*
X156090001Y-117471865D01*
X156050646Y-117463500D01*
X155861354Y-117463500D01*
X155828897Y-117470398D01*
X155676197Y-117502855D01*
X155676192Y-117502857D01*
X155503270Y-117579848D01*
X155503265Y-117579851D01*
X155350130Y-117691110D01*
X155350126Y-117691114D01*
X155344400Y-117697474D01*
X155284913Y-117734121D01*
X155252252Y-117738500D01*
X152341748Y-117738500D01*
X152274709Y-117718815D01*
X152249600Y-117697474D01*
X152243873Y-117691114D01*
X152243869Y-117691110D01*
X152090734Y-117579851D01*
X152090729Y-117579848D01*
X151917807Y-117502857D01*
X151917802Y-117502855D01*
X151772001Y-117471865D01*
X151732646Y-117463500D01*
X151543354Y-117463500D01*
X151510897Y-117470398D01*
X151358197Y-117502855D01*
X151358192Y-117502857D01*
X151185270Y-117579848D01*
X151185265Y-117579851D01*
X151032129Y-117691111D01*
X150905466Y-117831785D01*
X150810821Y-117995715D01*
X150810818Y-117995722D01*
X150752327Y-118175740D01*
X150752326Y-118175744D01*
X150732540Y-118364000D01*
X150752326Y-118552256D01*
X150752326Y-118552258D01*
X150752327Y-118552261D01*
X150753678Y-118558617D01*
X150752434Y-118558881D01*
X150754232Y-118621823D01*
X150718152Y-118681656D01*
X150655451Y-118712484D01*
X150634306Y-118714300D01*
X149333948Y-118714300D01*
X149266909Y-118694615D01*
X149241800Y-118673274D01*
X149236073Y-118666914D01*
X149236069Y-118666910D01*
X149082934Y-118555651D01*
X149082929Y-118555648D01*
X148910007Y-118478657D01*
X148910002Y-118478655D01*
X148764201Y-118447665D01*
X148724846Y-118439300D01*
X148535554Y-118439300D01*
X148503097Y-118446198D01*
X148350397Y-118478655D01*
X148350392Y-118478657D01*
X148177470Y-118555648D01*
X148177465Y-118555651D01*
X148024329Y-118666911D01*
X147897666Y-118807585D01*
X147803021Y-118971515D01*
X147803018Y-118971522D01*
X147744527Y-119151540D01*
X147744526Y-119151544D01*
X147742464Y-119171160D01*
X147715880Y-119235774D01*
X147658582Y-119275758D01*
X147593363Y-119279487D01*
X147520177Y-119263931D01*
X147414646Y-119241500D01*
X147225354Y-119241500D01*
X147197733Y-119247371D01*
X147040197Y-119280855D01*
X147040192Y-119280857D01*
X146867270Y-119357848D01*
X146867265Y-119357851D01*
X146714129Y-119469111D01*
X146587466Y-119609785D01*
X146492821Y-119773715D01*
X146492818Y-119773722D01*
X146434327Y-119953740D01*
X146434326Y-119953744D01*
X146414540Y-120142000D01*
X146434326Y-120330256D01*
X146447299Y-120370182D01*
X146449294Y-120440022D01*
X146413214Y-120499855D01*
X146350513Y-120530684D01*
X146329368Y-120532500D01*
X146106452Y-120532500D01*
X146039413Y-120512815D01*
X146018771Y-120496181D01*
X145718960Y-120196369D01*
X145685475Y-120135046D01*
X145683323Y-120121668D01*
X145665674Y-119953744D01*
X145607179Y-119773716D01*
X145512533Y-119609784D01*
X145385871Y-119469112D01*
X145385870Y-119469111D01*
X145232734Y-119357851D01*
X145232729Y-119357848D01*
X145059807Y-119280857D01*
X145059802Y-119280855D01*
X144902267Y-119247371D01*
X144874646Y-119241500D01*
X144685354Y-119241500D01*
X144657733Y-119247371D01*
X144500197Y-119280855D01*
X144500192Y-119280857D01*
X144327270Y-119357848D01*
X144327265Y-119357851D01*
X144174129Y-119469111D01*
X144047466Y-119609785D01*
X143952821Y-119773715D01*
X143952818Y-119773722D01*
X143894327Y-119953740D01*
X143894326Y-119953744D01*
X143874540Y-120142000D01*
X143894326Y-120330256D01*
X143894327Y-120330259D01*
X143952818Y-120510277D01*
X143952821Y-120510284D01*
X144047467Y-120674216D01*
X144139511Y-120776441D01*
X144174129Y-120814888D01*
X144327265Y-120926148D01*
X144327270Y-120926151D01*
X144500192Y-121003142D01*
X144500197Y-121003144D01*
X144685354Y-121042500D01*
X144744548Y-121042500D01*
X144811587Y-121062185D01*
X144832229Y-121078819D01*
X144873357Y-121119947D01*
X144906842Y-121181270D01*
X144901858Y-121250962D01*
X144859986Y-121306895D01*
X144836113Y-121320907D01*
X144681267Y-121389850D01*
X144681265Y-121389851D01*
X144528129Y-121501111D01*
X144401465Y-121641785D01*
X144331796Y-121762457D01*
X144281229Y-121810673D01*
X144212622Y-121823896D01*
X144147757Y-121797928D01*
X144136728Y-121788138D01*
X126795819Y-104447228D01*
X126762334Y-104385905D01*
X126759500Y-104359547D01*
X126759500Y-101854000D01*
X129904540Y-101854000D01*
X129924326Y-102042256D01*
X129924327Y-102042259D01*
X129982818Y-102222277D01*
X129982821Y-102222284D01*
X130077467Y-102386216D01*
X130143709Y-102459785D01*
X130204129Y-102526888D01*
X130357265Y-102638148D01*
X130357270Y-102638151D01*
X130530192Y-102715142D01*
X130530197Y-102715144D01*
X130715354Y-102754500D01*
X130715355Y-102754500D01*
X130904645Y-102754500D01*
X130904646Y-102754500D01*
X131009513Y-102732209D01*
X131035294Y-102729500D01*
X136934706Y-102729500D01*
X136960486Y-102732209D01*
X137065354Y-102754500D01*
X137065355Y-102754500D01*
X137254645Y-102754500D01*
X137254646Y-102754500D01*
X137359513Y-102732209D01*
X137385294Y-102729500D01*
X142776706Y-102729500D01*
X142802486Y-102732209D01*
X142907354Y-102754500D01*
X142907355Y-102754500D01*
X143096645Y-102754500D01*
X143096646Y-102754500D01*
X143201513Y-102732209D01*
X143227294Y-102729500D01*
X148618706Y-102729500D01*
X148644486Y-102732209D01*
X148749354Y-102754500D01*
X148749355Y-102754500D01*
X148938645Y-102754500D01*
X148938646Y-102754500D01*
X149043513Y-102732209D01*
X149069294Y-102729500D01*
X154460706Y-102729500D01*
X154486486Y-102732209D01*
X154591354Y-102754500D01*
X154591355Y-102754500D01*
X154780645Y-102754500D01*
X154780646Y-102754500D01*
X154885513Y-102732209D01*
X154911294Y-102729500D01*
X160048706Y-102729500D01*
X160074486Y-102732209D01*
X160179354Y-102754500D01*
X160179355Y-102754500D01*
X160368645Y-102754500D01*
X160368646Y-102754500D01*
X160473513Y-102732209D01*
X160499294Y-102729500D01*
X165890706Y-102729500D01*
X165916486Y-102732209D01*
X166021354Y-102754500D01*
X166021355Y-102754500D01*
X166210645Y-102754500D01*
X166210646Y-102754500D01*
X166315513Y-102732209D01*
X166341294Y-102729500D01*
X174526706Y-102729500D01*
X174552486Y-102732209D01*
X174657354Y-102754500D01*
X174657355Y-102754500D01*
X174846645Y-102754500D01*
X174846646Y-102754500D01*
X174951513Y-102732209D01*
X174977294Y-102729500D01*
X180368706Y-102729500D01*
X180394486Y-102732209D01*
X180499354Y-102754500D01*
X180499355Y-102754500D01*
X180688645Y-102754500D01*
X180688646Y-102754500D01*
X180793513Y-102732209D01*
X180819294Y-102729500D01*
X186210706Y-102729500D01*
X186236486Y-102732209D01*
X186341354Y-102754500D01*
X186341355Y-102754500D01*
X186530645Y-102754500D01*
X186530646Y-102754500D01*
X186635513Y-102732209D01*
X186661294Y-102729500D01*
X192052706Y-102729500D01*
X192078486Y-102732209D01*
X192183354Y-102754500D01*
X192183355Y-102754500D01*
X192372645Y-102754500D01*
X192372646Y-102754500D01*
X192477513Y-102732209D01*
X192503294Y-102729500D01*
X197640706Y-102729500D01*
X197666486Y-102732209D01*
X197771354Y-102754500D01*
X197771355Y-102754500D01*
X197960645Y-102754500D01*
X197960646Y-102754500D01*
X198065513Y-102732209D01*
X198091294Y-102729500D01*
X203416706Y-102729500D01*
X203442486Y-102732209D01*
X203547354Y-102754500D01*
X203547355Y-102754500D01*
X203736644Y-102754500D01*
X203736646Y-102754500D01*
X203921803Y-102715144D01*
X204094730Y-102638151D01*
X204247871Y-102526888D01*
X204374533Y-102386216D01*
X204469179Y-102222284D01*
X204527674Y-102042256D01*
X204547460Y-101854000D01*
X204527674Y-101665744D01*
X204469179Y-101485716D01*
X204374533Y-101321784D01*
X204247871Y-101181112D01*
X204247870Y-101181111D01*
X204094734Y-101069851D01*
X204094729Y-101069848D01*
X203921807Y-100992857D01*
X203921802Y-100992855D01*
X203776001Y-100961865D01*
X203736646Y-100953500D01*
X203547354Y-100953500D01*
X203442487Y-100975790D01*
X203416706Y-100978500D01*
X198091294Y-100978500D01*
X198065513Y-100975790D01*
X197960646Y-100953500D01*
X197771354Y-100953500D01*
X197666487Y-100975790D01*
X197640706Y-100978500D01*
X192503294Y-100978500D01*
X192477513Y-100975790D01*
X192372646Y-100953500D01*
X192183354Y-100953500D01*
X192078487Y-100975790D01*
X192052706Y-100978500D01*
X186661294Y-100978500D01*
X186635513Y-100975790D01*
X186530646Y-100953500D01*
X186341354Y-100953500D01*
X186236487Y-100975790D01*
X186210706Y-100978500D01*
X180819294Y-100978500D01*
X180793513Y-100975790D01*
X180688646Y-100953500D01*
X180499354Y-100953500D01*
X180394487Y-100975790D01*
X180368706Y-100978500D01*
X174977294Y-100978500D01*
X174951513Y-100975790D01*
X174846646Y-100953500D01*
X174657354Y-100953500D01*
X174552487Y-100975790D01*
X174526706Y-100978500D01*
X166341294Y-100978500D01*
X166315513Y-100975790D01*
X166210646Y-100953500D01*
X166021354Y-100953500D01*
X165916487Y-100975790D01*
X165890706Y-100978500D01*
X160499294Y-100978500D01*
X160473513Y-100975790D01*
X160368646Y-100953500D01*
X160179354Y-100953500D01*
X160074487Y-100975790D01*
X160048706Y-100978500D01*
X154911294Y-100978500D01*
X154885513Y-100975790D01*
X154780646Y-100953500D01*
X154591354Y-100953500D01*
X154486487Y-100975790D01*
X154460706Y-100978500D01*
X149069294Y-100978500D01*
X149043513Y-100975790D01*
X148938646Y-100953500D01*
X148749354Y-100953500D01*
X148644487Y-100975790D01*
X148618706Y-100978500D01*
X143227294Y-100978500D01*
X143201513Y-100975790D01*
X143096646Y-100953500D01*
X142907354Y-100953500D01*
X142802487Y-100975790D01*
X142776706Y-100978500D01*
X137385294Y-100978500D01*
X137359513Y-100975790D01*
X137254646Y-100953500D01*
X137065354Y-100953500D01*
X136960487Y-100975790D01*
X136934706Y-100978500D01*
X131035294Y-100978500D01*
X131009513Y-100975790D01*
X130904646Y-100953500D01*
X130715354Y-100953500D01*
X130682897Y-100960398D01*
X130530197Y-100992855D01*
X130530192Y-100992857D01*
X130357270Y-101069848D01*
X130357265Y-101069851D01*
X130204129Y-101181111D01*
X130077466Y-101321785D01*
X129982821Y-101485715D01*
X129982818Y-101485722D01*
X129957837Y-101562607D01*
X129924326Y-101665744D01*
X129904540Y-101854000D01*
X126759500Y-101854000D01*
X126759500Y-93450742D01*
X126761224Y-93435122D01*
X126760939Y-93435095D01*
X126761673Y-93427333D01*
X126759561Y-93360112D01*
X126759500Y-93356218D01*
X126759500Y-93328656D01*
X126759500Y-93328650D01*
X126758996Y-93324668D01*
X126758081Y-93313029D01*
X126758061Y-93312377D01*
X126756710Y-93269373D01*
X126751119Y-93250130D01*
X126747173Y-93231078D01*
X126744664Y-93211208D01*
X126728579Y-93170583D01*
X126724806Y-93159562D01*
X126712618Y-93117610D01*
X126712617Y-93117609D01*
X126712617Y-93117607D01*
X126712616Y-93117606D01*
X126702423Y-93100371D01*
X126693861Y-93082894D01*
X126686487Y-93064269D01*
X126661202Y-93029468D01*
X126660811Y-93028930D01*
X126654405Y-93019177D01*
X126632170Y-92981580D01*
X126632168Y-92981578D01*
X126632165Y-92981574D01*
X126618006Y-92967415D01*
X126605368Y-92952619D01*
X126593594Y-92936413D01*
X126577634Y-92923210D01*
X126559940Y-92908572D01*
X126551299Y-92900709D01*
X123137776Y-89487185D01*
X123104291Y-89425862D01*
X123105683Y-89367409D01*
X123132568Y-89267075D01*
X123132569Y-89267070D01*
X123132570Y-89267068D01*
X123151823Y-89047000D01*
X123132570Y-88826932D01*
X123075394Y-88613550D01*
X122982034Y-88413339D01*
X122855326Y-88232380D01*
X122699120Y-88076174D01*
X122699116Y-88076171D01*
X122699115Y-88076170D01*
X122518166Y-87949468D01*
X122518158Y-87949464D01*
X122389311Y-87889382D01*
X122336871Y-87843210D01*
X122317719Y-87776017D01*
X122337935Y-87709135D01*
X122389311Y-87664618D01*
X122437886Y-87641967D01*
X122518162Y-87604534D01*
X122699120Y-87477826D01*
X122855326Y-87321620D01*
X122982034Y-87140662D01*
X123075394Y-86940450D01*
X123132570Y-86727068D01*
X123151823Y-86507000D01*
X123132570Y-86286932D01*
X123075394Y-86073550D01*
X122982034Y-85873339D01*
X122855326Y-85692380D01*
X122699120Y-85536174D01*
X122699116Y-85536171D01*
X122699115Y-85536170D01*
X122518166Y-85409468D01*
X122518158Y-85409464D01*
X122389311Y-85349382D01*
X122336871Y-85303210D01*
X122317719Y-85236017D01*
X122337935Y-85169135D01*
X122389311Y-85124618D01*
X122395302Y-85121824D01*
X122518162Y-85064534D01*
X122699120Y-84937826D01*
X122855326Y-84781620D01*
X122982034Y-84600662D01*
X123075394Y-84400450D01*
X123132570Y-84187068D01*
X123151823Y-83967000D01*
X123132570Y-83746932D01*
X123075394Y-83533550D01*
X122982034Y-83333339D01*
X122855326Y-83152380D01*
X122699120Y-82996174D01*
X122699116Y-82996171D01*
X122699115Y-82996170D01*
X122518166Y-82869468D01*
X122518158Y-82869464D01*
X122389311Y-82809382D01*
X122336871Y-82763210D01*
X122317719Y-82696017D01*
X122337935Y-82629135D01*
X122389311Y-82584618D01*
X122395302Y-82581824D01*
X122518162Y-82524534D01*
X122699120Y-82397826D01*
X122855326Y-82241620D01*
X122982034Y-82060662D01*
X123075394Y-81860450D01*
X123132570Y-81647068D01*
X123151823Y-81427000D01*
X123132570Y-81206932D01*
X123075394Y-80993550D01*
X122982034Y-80793339D01*
X122855326Y-80612380D01*
X122699120Y-80456174D01*
X122699116Y-80456171D01*
X122699115Y-80456170D01*
X122518166Y-80329468D01*
X122518162Y-80329466D01*
X122518160Y-80329465D01*
X122317950Y-80236106D01*
X122317947Y-80236105D01*
X122317945Y-80236104D01*
X122104570Y-80178930D01*
X122104562Y-80178929D01*
X121884502Y-80159677D01*
X121884498Y-80159677D01*
X121664437Y-80178929D01*
X121664429Y-80178930D01*
X121451054Y-80236104D01*
X121451048Y-80236107D01*
X121250840Y-80329465D01*
X121250838Y-80329466D01*
X121069881Y-80456172D01*
X121040377Y-80485676D01*
X121010871Y-80515182D01*
X120949551Y-80548666D01*
X120923192Y-80551500D01*
X119667618Y-80551500D01*
X119657553Y-80551091D01*
X119603153Y-80546660D01*
X119603147Y-80546661D01*
X119522212Y-80557688D01*
X119518881Y-80558096D01*
X119437680Y-80566927D01*
X119437490Y-80566992D01*
X119414665Y-80572341D01*
X119414469Y-80572367D01*
X119414463Y-80572368D01*
X119414463Y-80572369D01*
X119391567Y-80580780D01*
X119337778Y-80600541D01*
X119334614Y-80601654D01*
X119257226Y-80627730D01*
X119257217Y-80627734D01*
X119257040Y-80627841D01*
X119235911Y-80637965D01*
X119235713Y-80638037D01*
X119166892Y-80682026D01*
X119164042Y-80683794D01*
X119094046Y-80725910D01*
X119094041Y-80725914D01*
X119093890Y-80726058D01*
X119075436Y-80740485D01*
X119075260Y-80740597D01*
X119075255Y-80740601D01*
X119017494Y-80798361D01*
X119015090Y-80800701D01*
X118955792Y-80856872D01*
X118955681Y-80857036D01*
X118940737Y-80875117D01*
X113168653Y-86647201D01*
X113161250Y-86654026D01*
X113119641Y-86689370D01*
X113070203Y-86754405D01*
X113068135Y-86757050D01*
X113016970Y-86820701D01*
X113016968Y-86820704D01*
X113016879Y-86820885D01*
X113004529Y-86840796D01*
X113004400Y-86840964D01*
X113004400Y-86840965D01*
X112970093Y-86915117D01*
X112968644Y-86918141D01*
X112932358Y-86991308D01*
X112932354Y-86991319D01*
X112932309Y-86991503D01*
X112924527Y-87013609D01*
X112924441Y-87013794D01*
X112924435Y-87013810D01*
X112906872Y-87093595D01*
X112906107Y-87096860D01*
X112886399Y-87176111D01*
X112886394Y-87176310D01*
X112883545Y-87199575D01*
X112883500Y-87199778D01*
X112883500Y-87281462D01*
X112883455Y-87284820D01*
X112881243Y-87366472D01*
X112881278Y-87366655D01*
X112883500Y-87390023D01*
X112883500Y-121754378D01*
X112883091Y-121764442D01*
X112878660Y-121818845D01*
X110520989Y-121818845D01*
X109045819Y-120343675D01*
X109012334Y-120282352D01*
X109009500Y-120255994D01*
X109009500Y-77960617D01*
X109009909Y-77950552D01*
X109014339Y-77896152D01*
X109003309Y-77815201D01*
X109002901Y-77811866D01*
X109000512Y-77789898D01*
X108994073Y-77730684D01*
X108994014Y-77730509D01*
X108988656Y-77707649D01*
X108988631Y-77707463D01*
X108960427Y-77630695D01*
X108959386Y-77627740D01*
X108933267Y-77550220D01*
X108933164Y-77550049D01*
X108923026Y-77528890D01*
X108922961Y-77528715D01*
X108922960Y-77528712D01*
X108878939Y-77459842D01*
X108877205Y-77457044D01*
X108835089Y-77387046D01*
X108834955Y-77386904D01*
X108820504Y-77368419D01*
X108820400Y-77368256D01*
X108762658Y-77310514D01*
X108760316Y-77308109D01*
X108759939Y-77307711D01*
X108704129Y-77248793D01*
X108703970Y-77248685D01*
X108685877Y-77233733D01*
X105132144Y-73680000D01*
X147553223Y-73680000D01*
X147564333Y-73806997D01*
X147572293Y-73897975D01*
X147572293Y-73897979D01*
X147628922Y-74109322D01*
X147628924Y-74109326D01*
X147628925Y-74109330D01*
X147650882Y-74156416D01*
X147721397Y-74307638D01*
X147721398Y-74307639D01*
X147846902Y-74486877D01*
X148001623Y-74641598D01*
X148180861Y-74767102D01*
X148379170Y-74859575D01*
X148590523Y-74916207D01*
X148773426Y-74932208D01*
X148808498Y-74935277D01*
X148808500Y-74935277D01*
X148808502Y-74935277D01*
X148836754Y-74932805D01*
X149026477Y-74916207D01*
X149237830Y-74859575D01*
X149436139Y-74767102D01*
X149615377Y-74641598D01*
X149770098Y-74486877D01*
X149895602Y-74307639D01*
X149966118Y-74156414D01*
X150012290Y-74103977D01*
X150079484Y-74084825D01*
X150146365Y-74105041D01*
X150190881Y-74156414D01*
X150261398Y-74307639D01*
X150386902Y-74486877D01*
X150541623Y-74641598D01*
X150720861Y-74767102D01*
X150919170Y-74859575D01*
X151130523Y-74916207D01*
X151313426Y-74932208D01*
X151348498Y-74935277D01*
X151348500Y-74935277D01*
X151348502Y-74935277D01*
X151376754Y-74932805D01*
X151566477Y-74916207D01*
X151777830Y-74859575D01*
X151976139Y-74767102D01*
X152155377Y-74641598D01*
X152310098Y-74486877D01*
X152435602Y-74307639D01*
X152506118Y-74156414D01*
X152552290Y-74103977D01*
X152619484Y-74084825D01*
X152686365Y-74105041D01*
X152730881Y-74156414D01*
X152801398Y-74307639D01*
X152926902Y-74486877D01*
X153081623Y-74641598D01*
X153260861Y-74767102D01*
X153459170Y-74859575D01*
X153670523Y-74916207D01*
X153853426Y-74932208D01*
X153888498Y-74935277D01*
X153888500Y-74935277D01*
X153888502Y-74935277D01*
X153916754Y-74932805D01*
X154106477Y-74916207D01*
X154317830Y-74859575D01*
X154516139Y-74767102D01*
X154695377Y-74641598D01*
X154850098Y-74486877D01*
X154975602Y-74307639D01*
X155046118Y-74156414D01*
X155092290Y-74103977D01*
X155159484Y-74084825D01*
X155226365Y-74105041D01*
X155270881Y-74156414D01*
X155341398Y-74307639D01*
X155466902Y-74486877D01*
X155621623Y-74641598D01*
X155800861Y-74767102D01*
X155999170Y-74859575D01*
X156210523Y-74916207D01*
X156393426Y-74932208D01*
X156428498Y-74935277D01*
X156428500Y-74935277D01*
X156428502Y-74935277D01*
X156456754Y-74932805D01*
X156646477Y-74916207D01*
X156857830Y-74859575D01*
X157056139Y-74767102D01*
X157235377Y-74641598D01*
X157390098Y-74486877D01*
X157515602Y-74307639D01*
X157608075Y-74109330D01*
X157664707Y-73897977D01*
X157683777Y-73680000D01*
X180271223Y-73680000D01*
X180282333Y-73806997D01*
X180290293Y-73897975D01*
X180290293Y-73897979D01*
X180346922Y-74109322D01*
X180346924Y-74109326D01*
X180346925Y-74109330D01*
X180368882Y-74156416D01*
X180439397Y-74307638D01*
X180439398Y-74307639D01*
X180564902Y-74486877D01*
X180719623Y-74641598D01*
X180898861Y-74767102D01*
X181097170Y-74859575D01*
X181308523Y-74916207D01*
X181491426Y-74932208D01*
X181526498Y-74935277D01*
X181526500Y-74935277D01*
X181526502Y-74935277D01*
X181554754Y-74932805D01*
X181744477Y-74916207D01*
X181955830Y-74859575D01*
X182154139Y-74767102D01*
X182333377Y-74641598D01*
X182488098Y-74486877D01*
X182613602Y-74307639D01*
X182684118Y-74156414D01*
X182730290Y-74103977D01*
X182797484Y-74084825D01*
X182864365Y-74105041D01*
X182908881Y-74156414D01*
X182979398Y-74307639D01*
X183104902Y-74486877D01*
X183259623Y-74641598D01*
X183438861Y-74767102D01*
X183637170Y-74859575D01*
X183848523Y-74916207D01*
X184031426Y-74932208D01*
X184066498Y-74935277D01*
X184066500Y-74935277D01*
X184066502Y-74935277D01*
X184094754Y-74932805D01*
X184284477Y-74916207D01*
X184495830Y-74859575D01*
X184694139Y-74767102D01*
X184873377Y-74641598D01*
X185028098Y-74486877D01*
X185153602Y-74307639D01*
X185224118Y-74156414D01*
X185270290Y-74103977D01*
X185337484Y-74084825D01*
X185404365Y-74105041D01*
X185448881Y-74156414D01*
X185519398Y-74307639D01*
X185644902Y-74486877D01*
X185799623Y-74641598D01*
X185978861Y-74767102D01*
X186177170Y-74859575D01*
X186388523Y-74916207D01*
X186571426Y-74932208D01*
X186606498Y-74935277D01*
X186606500Y-74935277D01*
X186606502Y-74935277D01*
X186634754Y-74932805D01*
X186824477Y-74916207D01*
X187035830Y-74859575D01*
X187234139Y-74767102D01*
X187413377Y-74641598D01*
X187568098Y-74486877D01*
X187693602Y-74307639D01*
X187764118Y-74156414D01*
X187810290Y-74103977D01*
X187877484Y-74084825D01*
X187944365Y-74105041D01*
X187988881Y-74156414D01*
X188059398Y-74307639D01*
X188184902Y-74486877D01*
X188339623Y-74641598D01*
X188518861Y-74767102D01*
X188717170Y-74859575D01*
X188928523Y-74916207D01*
X189111426Y-74932208D01*
X189146498Y-74935277D01*
X189146500Y-74935277D01*
X189146502Y-74935277D01*
X189174754Y-74932805D01*
X189364477Y-74916207D01*
X189575830Y-74859575D01*
X189774139Y-74767102D01*
X189953377Y-74641598D01*
X190108098Y-74486877D01*
X190233602Y-74307639D01*
X190326075Y-74109330D01*
X190382707Y-73897977D01*
X190401777Y-73680000D01*
X190382707Y-73462023D01*
X190326075Y-73250670D01*
X190233602Y-73052362D01*
X190233600Y-73052359D01*
X190233599Y-73052357D01*
X190108099Y-72873124D01*
X190071145Y-72836170D01*
X189953377Y-72718402D01*
X189940612Y-72709464D01*
X189807238Y-72616073D01*
X189763613Y-72561496D01*
X189756421Y-72491998D01*
X189787944Y-72429643D01*
X189848174Y-72394230D01*
X189878355Y-72390499D01*
X191214372Y-72390499D01*
X191273983Y-72384091D01*
X191408831Y-72333796D01*
X191524046Y-72247546D01*
X191610296Y-72132331D01*
X191660591Y-71997483D01*
X191667000Y-71937873D01*
X191666999Y-70342128D01*
X191660591Y-70282517D01*
X191618426Y-70169468D01*
X191610297Y-70147671D01*
X191610293Y-70147664D01*
X191524047Y-70032455D01*
X191524044Y-70032452D01*
X191408835Y-69946206D01*
X191408828Y-69946202D01*
X191273982Y-69895908D01*
X191273983Y-69895908D01*
X191214383Y-69889501D01*
X191214381Y-69889500D01*
X191214373Y-69889500D01*
X191214364Y-69889500D01*
X189618629Y-69889500D01*
X189618623Y-69889501D01*
X189559016Y-69895908D01*
X189424171Y-69946202D01*
X189424164Y-69946206D01*
X189308955Y-70032452D01*
X189308952Y-70032455D01*
X189222706Y-70147664D01*
X189222702Y-70147671D01*
X189172408Y-70282517D01*
X189166968Y-70333121D01*
X189166001Y-70342123D01*
X189166000Y-70342135D01*
X189166000Y-70408138D01*
X189146315Y-70475177D01*
X189093511Y-70520932D01*
X189024353Y-70530876D01*
X188960797Y-70501851D01*
X188940425Y-70479261D01*
X188838099Y-70333124D01*
X188787491Y-70282516D01*
X188683377Y-70178402D01*
X188504139Y-70052898D01*
X188504140Y-70052898D01*
X188504138Y-70052897D01*
X188390006Y-69999677D01*
X188305830Y-69960425D01*
X188305826Y-69960424D01*
X188305822Y-69960422D01*
X188094477Y-69903793D01*
X187876502Y-69884723D01*
X187876498Y-69884723D01*
X187748651Y-69895908D01*
X187658523Y-69903793D01*
X187658520Y-69903793D01*
X187447177Y-69960422D01*
X187447168Y-69960426D01*
X187248861Y-70052898D01*
X187248857Y-70052900D01*
X187069621Y-70178402D01*
X186914902Y-70333121D01*
X186789400Y-70512357D01*
X186789398Y-70512361D01*
X186718882Y-70663583D01*
X186672709Y-70716022D01*
X186605516Y-70735174D01*
X186538635Y-70714958D01*
X186494118Y-70663583D01*
X186427598Y-70520932D01*
X186423602Y-70512362D01*
X186423600Y-70512359D01*
X186423599Y-70512357D01*
X186298099Y-70333124D01*
X186247491Y-70282516D01*
X186143377Y-70178402D01*
X185964139Y-70052898D01*
X185964140Y-70052898D01*
X185964138Y-70052897D01*
X185850006Y-69999677D01*
X185765830Y-69960425D01*
X185765826Y-69960424D01*
X185765822Y-69960422D01*
X185554477Y-69903793D01*
X185336502Y-69884723D01*
X185336498Y-69884723D01*
X185208651Y-69895908D01*
X185118523Y-69903793D01*
X185118520Y-69903793D01*
X184907177Y-69960422D01*
X184907168Y-69960426D01*
X184708861Y-70052898D01*
X184708857Y-70052900D01*
X184529621Y-70178402D01*
X184374902Y-70333121D01*
X184249400Y-70512357D01*
X184249398Y-70512361D01*
X184178882Y-70663583D01*
X184132709Y-70716022D01*
X184065516Y-70735174D01*
X183998635Y-70714958D01*
X183954118Y-70663583D01*
X183887598Y-70520932D01*
X183883602Y-70512362D01*
X183883600Y-70512359D01*
X183883599Y-70512357D01*
X183758099Y-70333124D01*
X183707491Y-70282516D01*
X183603377Y-70178402D01*
X183424139Y-70052898D01*
X183424140Y-70052898D01*
X183424138Y-70052897D01*
X183310006Y-69999677D01*
X183225830Y-69960425D01*
X183225826Y-69960424D01*
X183225822Y-69960422D01*
X183014477Y-69903793D01*
X182796502Y-69884723D01*
X182796498Y-69884723D01*
X182668651Y-69895908D01*
X182578523Y-69903793D01*
X182578520Y-69903793D01*
X182367177Y-69960422D01*
X182367168Y-69960426D01*
X182168861Y-70052898D01*
X182168857Y-70052900D01*
X181989621Y-70178402D01*
X181834902Y-70333121D01*
X181709400Y-70512357D01*
X181709398Y-70512361D01*
X181616926Y-70710668D01*
X181616922Y-70710677D01*
X181560293Y-70922020D01*
X181560293Y-70922023D01*
X181541223Y-71140000D01*
X181552333Y-71266997D01*
X181560293Y-71357975D01*
X181560293Y-71357979D01*
X181616922Y-71569322D01*
X181616924Y-71569326D01*
X181616925Y-71569330D01*
X181638882Y-71616416D01*
X181709397Y-71767638D01*
X181734498Y-71803486D01*
X181834902Y-71946877D01*
X181989623Y-72101598D01*
X182168861Y-72227102D01*
X182367170Y-72319575D01*
X182578523Y-72376207D01*
X182761426Y-72392208D01*
X182796498Y-72395277D01*
X182796500Y-72395277D01*
X182796502Y-72395277D01*
X182824754Y-72392805D01*
X183014477Y-72376207D01*
X183225830Y-72319575D01*
X183424139Y-72227102D01*
X183603377Y-72101598D01*
X183758098Y-71946877D01*
X183883602Y-71767639D01*
X183954118Y-71616414D01*
X184000290Y-71563977D01*
X184067484Y-71544825D01*
X184134365Y-71565041D01*
X184178881Y-71616414D01*
X184249398Y-71767639D01*
X184374902Y-71946877D01*
X184529623Y-72101598D01*
X184708861Y-72227102D01*
X184907170Y-72319575D01*
X185118523Y-72376207D01*
X185301426Y-72392208D01*
X185336498Y-72395277D01*
X185336500Y-72395277D01*
X185336502Y-72395277D01*
X185364754Y-72392805D01*
X185554477Y-72376207D01*
X185765830Y-72319575D01*
X185964139Y-72227102D01*
X186143377Y-72101598D01*
X186298098Y-71946877D01*
X186423602Y-71767639D01*
X186494118Y-71616414D01*
X186540290Y-71563977D01*
X186607484Y-71544825D01*
X186674365Y-71565041D01*
X186718881Y-71616414D01*
X186789398Y-71767639D01*
X186914902Y-71946877D01*
X187069623Y-72101598D01*
X187248861Y-72227102D01*
X187447170Y-72319575D01*
X187658523Y-72376207D01*
X187841426Y-72392208D01*
X187876498Y-72395277D01*
X187876500Y-72395277D01*
X187876502Y-72395277D01*
X187904754Y-72392805D01*
X188094477Y-72376207D01*
X188305830Y-72319575D01*
X188504139Y-72227102D01*
X188683377Y-72101598D01*
X188838098Y-71946877D01*
X188940428Y-71800734D01*
X188995002Y-71757112D01*
X189064500Y-71749918D01*
X189126855Y-71781441D01*
X189162269Y-71841670D01*
X189166000Y-71871858D01*
X189166000Y-71937869D01*
X189166001Y-71937876D01*
X189172408Y-71997483D01*
X189222702Y-72132328D01*
X189222703Y-72132330D01*
X189296073Y-72230339D01*
X189320490Y-72295803D01*
X189305639Y-72364076D01*
X189256234Y-72413482D01*
X189187961Y-72428334D01*
X189186000Y-72428178D01*
X189146504Y-72424723D01*
X189146498Y-72424723D01*
X189001182Y-72437436D01*
X188928523Y-72443793D01*
X188928520Y-72443793D01*
X188717177Y-72500422D01*
X188717168Y-72500426D01*
X188518861Y-72592898D01*
X188518857Y-72592900D01*
X188339621Y-72718402D01*
X188184902Y-72873121D01*
X188059400Y-73052357D01*
X188059398Y-73052361D01*
X187988882Y-73203583D01*
X187942709Y-73256022D01*
X187875516Y-73275174D01*
X187808635Y-73254958D01*
X187764118Y-73203583D01*
X187723344Y-73116144D01*
X187693602Y-73052362D01*
X187693600Y-73052359D01*
X187693599Y-73052357D01*
X187568099Y-72873124D01*
X187531145Y-72836170D01*
X187413377Y-72718402D01*
X187234139Y-72592898D01*
X187234140Y-72592898D01*
X187234138Y-72592897D01*
X187120006Y-72539677D01*
X187035830Y-72500425D01*
X187035826Y-72500424D01*
X187035822Y-72500422D01*
X186824477Y-72443793D01*
X186606502Y-72424723D01*
X186606498Y-72424723D01*
X186461182Y-72437436D01*
X186388523Y-72443793D01*
X186388520Y-72443793D01*
X186177177Y-72500422D01*
X186177168Y-72500426D01*
X185978861Y-72592898D01*
X185978857Y-72592900D01*
X185799621Y-72718402D01*
X185644902Y-72873121D01*
X185519400Y-73052357D01*
X185519398Y-73052361D01*
X185448882Y-73203583D01*
X185402709Y-73256022D01*
X185335516Y-73275174D01*
X185268635Y-73254958D01*
X185224118Y-73203583D01*
X185183344Y-73116144D01*
X185153602Y-73052362D01*
X185153600Y-73052359D01*
X185153599Y-73052357D01*
X185028099Y-72873124D01*
X184991145Y-72836170D01*
X184873377Y-72718402D01*
X184694139Y-72592898D01*
X184694140Y-72592898D01*
X184694138Y-72592897D01*
X184580006Y-72539677D01*
X184495830Y-72500425D01*
X184495826Y-72500424D01*
X184495822Y-72500422D01*
X184284477Y-72443793D01*
X184066502Y-72424723D01*
X184066498Y-72424723D01*
X183921182Y-72437436D01*
X183848523Y-72443793D01*
X183848520Y-72443793D01*
X183637177Y-72500422D01*
X183637168Y-72500426D01*
X183438861Y-72592898D01*
X183438857Y-72592900D01*
X183259621Y-72718402D01*
X183104902Y-72873121D01*
X182979400Y-73052357D01*
X182979398Y-73052361D01*
X182908882Y-73203583D01*
X182862709Y-73256022D01*
X182795516Y-73275174D01*
X182728635Y-73254958D01*
X182684118Y-73203583D01*
X182643344Y-73116144D01*
X182613602Y-73052362D01*
X182613600Y-73052359D01*
X182613599Y-73052357D01*
X182488099Y-72873124D01*
X182451145Y-72836170D01*
X182333377Y-72718402D01*
X182154139Y-72592898D01*
X182154140Y-72592898D01*
X182154138Y-72592897D01*
X182040006Y-72539677D01*
X181955830Y-72500425D01*
X181955826Y-72500424D01*
X181955822Y-72500422D01*
X181744477Y-72443793D01*
X181526502Y-72424723D01*
X181526498Y-72424723D01*
X181381182Y-72437436D01*
X181308523Y-72443793D01*
X181308520Y-72443793D01*
X181097177Y-72500422D01*
X181097168Y-72500426D01*
X180898861Y-72592898D01*
X180898857Y-72592900D01*
X180719621Y-72718402D01*
X180564902Y-72873121D01*
X180439400Y-73052357D01*
X180439398Y-73052361D01*
X180346926Y-73250668D01*
X180346922Y-73250677D01*
X180290293Y-73462020D01*
X180290293Y-73462023D01*
X180271223Y-73680000D01*
X157683777Y-73680000D01*
X157664707Y-73462023D01*
X157608075Y-73250670D01*
X157515602Y-73052362D01*
X157515600Y-73052359D01*
X157515599Y-73052357D01*
X157390099Y-72873124D01*
X157353145Y-72836170D01*
X157235377Y-72718402D01*
X157222612Y-72709464D01*
X157089238Y-72616073D01*
X157045613Y-72561496D01*
X157038421Y-72491998D01*
X157069944Y-72429643D01*
X157130174Y-72394230D01*
X157160355Y-72390499D01*
X158496372Y-72390499D01*
X158555983Y-72384091D01*
X158690831Y-72333796D01*
X158806046Y-72247546D01*
X158892296Y-72132331D01*
X158942591Y-71997483D01*
X158949000Y-71937873D01*
X158948999Y-70342128D01*
X158942591Y-70282517D01*
X158900426Y-70169468D01*
X158892297Y-70147671D01*
X158892293Y-70147664D01*
X158806047Y-70032455D01*
X158806044Y-70032452D01*
X158690835Y-69946206D01*
X158690828Y-69946202D01*
X158555982Y-69895908D01*
X158555983Y-69895908D01*
X158496383Y-69889501D01*
X158496381Y-69889500D01*
X158496373Y-69889500D01*
X158496364Y-69889500D01*
X156900629Y-69889500D01*
X156900623Y-69889501D01*
X156841016Y-69895908D01*
X156706171Y-69946202D01*
X156706164Y-69946206D01*
X156590955Y-70032452D01*
X156590952Y-70032455D01*
X156504706Y-70147664D01*
X156504702Y-70147671D01*
X156454408Y-70282517D01*
X156448968Y-70333121D01*
X156448001Y-70342123D01*
X156448000Y-70342135D01*
X156448000Y-70408138D01*
X156428315Y-70475177D01*
X156375511Y-70520932D01*
X156306353Y-70530876D01*
X156242797Y-70501851D01*
X156222425Y-70479261D01*
X156120099Y-70333124D01*
X156069491Y-70282516D01*
X155965377Y-70178402D01*
X155786139Y-70052898D01*
X155786140Y-70052898D01*
X155786138Y-70052897D01*
X155672006Y-69999677D01*
X155587830Y-69960425D01*
X155587826Y-69960424D01*
X155587822Y-69960422D01*
X155376477Y-69903793D01*
X155158502Y-69884723D01*
X155158498Y-69884723D01*
X155030651Y-69895908D01*
X154940523Y-69903793D01*
X154940520Y-69903793D01*
X154729177Y-69960422D01*
X154729168Y-69960426D01*
X154530861Y-70052898D01*
X154530857Y-70052900D01*
X154351621Y-70178402D01*
X154196902Y-70333121D01*
X154071400Y-70512357D01*
X154071398Y-70512361D01*
X154000882Y-70663583D01*
X153954709Y-70716022D01*
X153887516Y-70735174D01*
X153820635Y-70714958D01*
X153776118Y-70663583D01*
X153709598Y-70520932D01*
X153705602Y-70512362D01*
X153705600Y-70512359D01*
X153705599Y-70512357D01*
X153580099Y-70333124D01*
X153529491Y-70282516D01*
X153425377Y-70178402D01*
X153246139Y-70052898D01*
X153246140Y-70052898D01*
X153246138Y-70052897D01*
X153132006Y-69999677D01*
X153047830Y-69960425D01*
X153047826Y-69960424D01*
X153047822Y-69960422D01*
X152836477Y-69903793D01*
X152618502Y-69884723D01*
X152618498Y-69884723D01*
X152490651Y-69895908D01*
X152400523Y-69903793D01*
X152400520Y-69903793D01*
X152189177Y-69960422D01*
X152189168Y-69960426D01*
X151990861Y-70052898D01*
X151990857Y-70052900D01*
X151811621Y-70178402D01*
X151656902Y-70333121D01*
X151531400Y-70512357D01*
X151531398Y-70512361D01*
X151460882Y-70663583D01*
X151414709Y-70716022D01*
X151347516Y-70735174D01*
X151280635Y-70714958D01*
X151236118Y-70663583D01*
X151169598Y-70520932D01*
X151165602Y-70512362D01*
X151165600Y-70512359D01*
X151165599Y-70512357D01*
X151040099Y-70333124D01*
X150989491Y-70282516D01*
X150885377Y-70178402D01*
X150706139Y-70052898D01*
X150706140Y-70052898D01*
X150706138Y-70052897D01*
X150592006Y-69999677D01*
X150507830Y-69960425D01*
X150507826Y-69960424D01*
X150507822Y-69960422D01*
X150296477Y-69903793D01*
X150078502Y-69884723D01*
X150078498Y-69884723D01*
X149950651Y-69895908D01*
X149860523Y-69903793D01*
X149860520Y-69903793D01*
X149649177Y-69960422D01*
X149649168Y-69960426D01*
X149450861Y-70052898D01*
X149450857Y-70052900D01*
X149271621Y-70178402D01*
X149116902Y-70333121D01*
X148991400Y-70512357D01*
X148991398Y-70512361D01*
X148898926Y-70710668D01*
X148898922Y-70710677D01*
X148842293Y-70922020D01*
X148842293Y-70922023D01*
X148823223Y-71140000D01*
X148834333Y-71266997D01*
X148842293Y-71357975D01*
X148842293Y-71357979D01*
X148898922Y-71569322D01*
X148898924Y-71569326D01*
X148898925Y-71569330D01*
X148920882Y-71616416D01*
X148991397Y-71767638D01*
X149016498Y-71803486D01*
X149116902Y-71946877D01*
X149271623Y-72101598D01*
X149450861Y-72227102D01*
X149649170Y-72319575D01*
X149860523Y-72376207D01*
X150043426Y-72392208D01*
X150078498Y-72395277D01*
X150078500Y-72395277D01*
X150078502Y-72395277D01*
X150106754Y-72392805D01*
X150296477Y-72376207D01*
X150507830Y-72319575D01*
X150706139Y-72227102D01*
X150885377Y-72101598D01*
X151040098Y-71946877D01*
X151165602Y-71767639D01*
X151236118Y-71616414D01*
X151282290Y-71563977D01*
X151349484Y-71544825D01*
X151416365Y-71565041D01*
X151460881Y-71616414D01*
X151531398Y-71767639D01*
X151656902Y-71946877D01*
X151811623Y-72101598D01*
X151990861Y-72227102D01*
X152189170Y-72319575D01*
X152400523Y-72376207D01*
X152583426Y-72392208D01*
X152618498Y-72395277D01*
X152618500Y-72395277D01*
X152618502Y-72395277D01*
X152646754Y-72392805D01*
X152836477Y-72376207D01*
X153047830Y-72319575D01*
X153246139Y-72227102D01*
X153425377Y-72101598D01*
X153580098Y-71946877D01*
X153705602Y-71767639D01*
X153776118Y-71616414D01*
X153822290Y-71563977D01*
X153889484Y-71544825D01*
X153956365Y-71565041D01*
X154000881Y-71616414D01*
X154071398Y-71767639D01*
X154196902Y-71946877D01*
X154351623Y-72101598D01*
X154530861Y-72227102D01*
X154729170Y-72319575D01*
X154940523Y-72376207D01*
X155123426Y-72392208D01*
X155158498Y-72395277D01*
X155158500Y-72395277D01*
X155158502Y-72395277D01*
X155186754Y-72392805D01*
X155376477Y-72376207D01*
X155587830Y-72319575D01*
X155786139Y-72227102D01*
X155965377Y-72101598D01*
X156120098Y-71946877D01*
X156222428Y-71800734D01*
X156277002Y-71757112D01*
X156346500Y-71749918D01*
X156408855Y-71781441D01*
X156444269Y-71841670D01*
X156448000Y-71871858D01*
X156448000Y-71937869D01*
X156448001Y-71937876D01*
X156454408Y-71997483D01*
X156504702Y-72132328D01*
X156504703Y-72132330D01*
X156578073Y-72230339D01*
X156602490Y-72295803D01*
X156587639Y-72364076D01*
X156538234Y-72413482D01*
X156469961Y-72428334D01*
X156468000Y-72428178D01*
X156428504Y-72424723D01*
X156428498Y-72424723D01*
X156283182Y-72437436D01*
X156210523Y-72443793D01*
X156210520Y-72443793D01*
X155999177Y-72500422D01*
X155999168Y-72500426D01*
X155800861Y-72592898D01*
X155800857Y-72592900D01*
X155621621Y-72718402D01*
X155466902Y-72873121D01*
X155341400Y-73052357D01*
X155341398Y-73052361D01*
X155270882Y-73203583D01*
X155224709Y-73256022D01*
X155157516Y-73275174D01*
X155090635Y-73254958D01*
X155046118Y-73203583D01*
X155005344Y-73116144D01*
X154975602Y-73052362D01*
X154975600Y-73052359D01*
X154975599Y-73052357D01*
X154850099Y-72873124D01*
X154813145Y-72836170D01*
X154695377Y-72718402D01*
X154516139Y-72592898D01*
X154516140Y-72592898D01*
X154516138Y-72592897D01*
X154402006Y-72539677D01*
X154317830Y-72500425D01*
X154317826Y-72500424D01*
X154317822Y-72500422D01*
X154106477Y-72443793D01*
X153888502Y-72424723D01*
X153888498Y-72424723D01*
X153743182Y-72437436D01*
X153670523Y-72443793D01*
X153670520Y-72443793D01*
X153459177Y-72500422D01*
X153459168Y-72500426D01*
X153260861Y-72592898D01*
X153260857Y-72592900D01*
X153081621Y-72718402D01*
X152926902Y-72873121D01*
X152801400Y-73052357D01*
X152801398Y-73052361D01*
X152730882Y-73203583D01*
X152684709Y-73256022D01*
X152617516Y-73275174D01*
X152550635Y-73254958D01*
X152506118Y-73203583D01*
X152465344Y-73116144D01*
X152435602Y-73052362D01*
X152435600Y-73052359D01*
X152435599Y-73052357D01*
X152310099Y-72873124D01*
X152273145Y-72836170D01*
X152155377Y-72718402D01*
X151976139Y-72592898D01*
X151976140Y-72592898D01*
X151976138Y-72592897D01*
X151862006Y-72539677D01*
X151777830Y-72500425D01*
X151777826Y-72500424D01*
X151777822Y-72500422D01*
X151566477Y-72443793D01*
X151348502Y-72424723D01*
X151348498Y-72424723D01*
X151203182Y-72437436D01*
X151130523Y-72443793D01*
X151130520Y-72443793D01*
X150919177Y-72500422D01*
X150919168Y-72500426D01*
X150720861Y-72592898D01*
X150720857Y-72592900D01*
X150541621Y-72718402D01*
X150386902Y-72873121D01*
X150261400Y-73052357D01*
X150261398Y-73052361D01*
X150190882Y-73203583D01*
X150144709Y-73256022D01*
X150077516Y-73275174D01*
X150010635Y-73254958D01*
X149966118Y-73203583D01*
X149925344Y-73116144D01*
X149895602Y-73052362D01*
X149895600Y-73052359D01*
X149895599Y-73052357D01*
X149770099Y-72873124D01*
X149733145Y-72836170D01*
X149615377Y-72718402D01*
X149436139Y-72592898D01*
X149436140Y-72592898D01*
X149436138Y-72592897D01*
X149322006Y-72539677D01*
X149237830Y-72500425D01*
X149237826Y-72500424D01*
X149237822Y-72500422D01*
X149026477Y-72443793D01*
X148808502Y-72424723D01*
X148808498Y-72424723D01*
X148663182Y-72437436D01*
X148590523Y-72443793D01*
X148590520Y-72443793D01*
X148379177Y-72500422D01*
X148379168Y-72500426D01*
X148180861Y-72592898D01*
X148180857Y-72592900D01*
X148001621Y-72718402D01*
X147846902Y-72873121D01*
X147721400Y-73052357D01*
X147721398Y-73052361D01*
X147628926Y-73250668D01*
X147628922Y-73250677D01*
X147572293Y-73462020D01*
X147572293Y-73462023D01*
X147553223Y-73680000D01*
X105132144Y-73680000D01*
X104668793Y-73216649D01*
X104661979Y-73209258D01*
X104626631Y-73167643D01*
X104626630Y-73167642D01*
X104561607Y-73118213D01*
X104558961Y-73116144D01*
X104495302Y-73064973D01*
X104495294Y-73064968D01*
X104495120Y-73064882D01*
X104475182Y-73052514D01*
X104475029Y-73052398D01*
X104400897Y-73018100D01*
X104397872Y-73016650D01*
X104324700Y-72980362D01*
X104324696Y-72980360D01*
X104324693Y-72980359D01*
X104324687Y-72980357D01*
X104324680Y-72980355D01*
X104324488Y-72980307D01*
X104302385Y-72972525D01*
X104302198Y-72972438D01*
X104302195Y-72972437D01*
X104222412Y-72954875D01*
X104219145Y-72954109D01*
X104139887Y-72934399D01*
X104139689Y-72934394D01*
X104116413Y-72931543D01*
X104116222Y-72931501D01*
X104116219Y-72931500D01*
X104116216Y-72931500D01*
X104116212Y-72931500D01*
X104034537Y-72931500D01*
X104031179Y-72931455D01*
X103949527Y-72929243D01*
X103949345Y-72929278D01*
X103925977Y-72931500D01*
X102525808Y-72931500D01*
X102458769Y-72911815D01*
X102438127Y-72895181D01*
X102379121Y-72836175D01*
X102379115Y-72836170D01*
X102198166Y-72709468D01*
X102198158Y-72709464D01*
X102069311Y-72649382D01*
X102016871Y-72603210D01*
X101997719Y-72536017D01*
X102017935Y-72469135D01*
X102069311Y-72424618D01*
X102093192Y-72413482D01*
X102198162Y-72364534D01*
X102379120Y-72237826D01*
X102535326Y-72081620D01*
X102662034Y-71900662D01*
X102755394Y-71700450D01*
X102812570Y-71487068D01*
X102831823Y-71267000D01*
X102812570Y-71046932D01*
X102755394Y-70833550D01*
X102662034Y-70633339D01*
X102535326Y-70452380D01*
X102379120Y-70296174D01*
X102379116Y-70296171D01*
X102379115Y-70296170D01*
X102198166Y-70169468D01*
X102198162Y-70169466D01*
X102151407Y-70147664D01*
X101997950Y-70076106D01*
X101997947Y-70076105D01*
X101997945Y-70076104D01*
X101784570Y-70018930D01*
X101784562Y-70018929D01*
X101564502Y-69999677D01*
X101564498Y-69999677D01*
X101344437Y-70018929D01*
X101344429Y-70018930D01*
X101131054Y-70076104D01*
X101131048Y-70076107D01*
X100930840Y-70169465D01*
X100930838Y-70169466D01*
X100749877Y-70296175D01*
X100593675Y-70452377D01*
X100466966Y-70633338D01*
X100466965Y-70633340D01*
X100373607Y-70833548D01*
X100373604Y-70833554D01*
X100316430Y-71046929D01*
X100316429Y-71046937D01*
X100297177Y-71266997D01*
X100297177Y-71267002D01*
X100316429Y-71487062D01*
X100316430Y-71487070D01*
X100373604Y-71700445D01*
X100373605Y-71700447D01*
X100373606Y-71700450D01*
X100439458Y-71841670D01*
X100466966Y-71900662D01*
X100466968Y-71900666D01*
X100593670Y-72081615D01*
X100593675Y-72081621D01*
X100749878Y-72237824D01*
X100749884Y-72237829D01*
X100930833Y-72364531D01*
X100930835Y-72364532D01*
X100930838Y-72364534D01*
X100994522Y-72394230D01*
X101059689Y-72424618D01*
X101112128Y-72470790D01*
X101131280Y-72537984D01*
X101111064Y-72604865D01*
X101059689Y-72649382D01*
X100930840Y-72709465D01*
X100930838Y-72709466D01*
X100749877Y-72836175D01*
X100593675Y-72992377D01*
X100466966Y-73173338D01*
X100466965Y-73173340D01*
X100373607Y-73373548D01*
X100373604Y-73373554D01*
X100316430Y-73586929D01*
X100316429Y-73586937D01*
X100297177Y-73806997D01*
X100297177Y-73807002D01*
X100316429Y-74027062D01*
X100316430Y-74027070D01*
X100373604Y-74240445D01*
X100373605Y-74240447D01*
X100373606Y-74240450D01*
X100404937Y-74307639D01*
X100466966Y-74440662D01*
X100466968Y-74440666D01*
X100593670Y-74621615D01*
X100593675Y-74621621D01*
X100749878Y-74777824D01*
X100749884Y-74777829D01*
X100930833Y-74904531D01*
X100930835Y-74904532D01*
X100930838Y-74904534D01*
X100996767Y-74935277D01*
X101059689Y-74964618D01*
X101112128Y-75010790D01*
X101131280Y-75077984D01*
X101111064Y-75144865D01*
X101059689Y-75189382D01*
X100930840Y-75249465D01*
X100930838Y-75249466D01*
X100749877Y-75376175D01*
X100593675Y-75532377D01*
X100466966Y-75713338D01*
X100466965Y-75713340D01*
X100373607Y-75913548D01*
X100373604Y-75913554D01*
X100316430Y-76126929D01*
X100316429Y-76126937D01*
X100297177Y-76346997D01*
X100297177Y-76347002D01*
X100316429Y-76567062D01*
X100316430Y-76567070D01*
X100373604Y-76780445D01*
X100373605Y-76780447D01*
X100373606Y-76780450D01*
X100466966Y-76980662D01*
X100466968Y-76980666D01*
X100593670Y-77161615D01*
X100593675Y-77161621D01*
X100749878Y-77317824D01*
X100749884Y-77317829D01*
X100930833Y-77444531D01*
X100930835Y-77444532D01*
X100930838Y-77444534D01*
X101060281Y-77504894D01*
X101112720Y-77551066D01*
X101131872Y-77618260D01*
X101111656Y-77685141D01*
X101060281Y-77729658D01*
X100931090Y-77789901D01*
X100866311Y-77835258D01*
X101537053Y-78506000D01*
X101532931Y-78506000D01*
X101439079Y-78521661D01*
X101327249Y-78582180D01*
X101241129Y-78675731D01*
X101190052Y-78792177D01*
X101184394Y-78860447D01*
X100512758Y-78188811D01*
X100467401Y-78253590D01*
X100374079Y-78453720D01*
X100374075Y-78453729D01*
X100316926Y-78667013D01*
X100316924Y-78667023D01*
X100297679Y-78886999D01*
X100297679Y-78887000D01*
X100316924Y-79106976D01*
X100316926Y-79106986D01*
X100374075Y-79320270D01*
X100374080Y-79320284D01*
X100467398Y-79520405D01*
X100467401Y-79520411D01*
X100512758Y-79585187D01*
X100512759Y-79585188D01*
X101179596Y-78918350D01*
X101179551Y-78918898D01*
X101210766Y-79042162D01*
X101280313Y-79148612D01*
X101380657Y-79226713D01*
X101500922Y-79268000D01*
X101537053Y-79268000D01*
X100866310Y-79938740D01*
X100931089Y-79984098D01*
X101060281Y-80044342D01*
X101112720Y-80090514D01*
X101131872Y-80157708D01*
X101111656Y-80224589D01*
X101060281Y-80269106D01*
X100930840Y-80329465D01*
X100930838Y-80329466D01*
X100749877Y-80456175D01*
X100593675Y-80612377D01*
X100466966Y-80793338D01*
X100466965Y-80793340D01*
X100373607Y-80993548D01*
X100373604Y-80993554D01*
X100316430Y-81206929D01*
X100316429Y-81206937D01*
X100297177Y-81426997D01*
X100297177Y-81427002D01*
X100316429Y-81647062D01*
X100316430Y-81647070D01*
X100373604Y-81860445D01*
X100373605Y-81860447D01*
X100373606Y-81860450D01*
X100466966Y-82060662D01*
X100466968Y-82060666D01*
X100593670Y-82241615D01*
X100593675Y-82241621D01*
X100749878Y-82397824D01*
X100749884Y-82397829D01*
X100930833Y-82524531D01*
X100930835Y-82524532D01*
X100930838Y-82524534D01*
X101050248Y-82580215D01*
X101059689Y-82584618D01*
X101112128Y-82630790D01*
X101131280Y-82697984D01*
X101111064Y-82764865D01*
X101059689Y-82809382D01*
X100930840Y-82869465D01*
X100930838Y-82869466D01*
X100749877Y-82996175D01*
X100593675Y-83152377D01*
X100466966Y-83333338D01*
X100466965Y-83333340D01*
X100373607Y-83533548D01*
X100373604Y-83533554D01*
X100316430Y-83746929D01*
X100316429Y-83746937D01*
X100297177Y-83966997D01*
X100297177Y-83967002D01*
X100316429Y-84187062D01*
X100316430Y-84187070D01*
X100373604Y-84400445D01*
X100373605Y-84400447D01*
X100373606Y-84400450D01*
X100466966Y-84600662D01*
X100466968Y-84600666D01*
X100593670Y-84781615D01*
X100593675Y-84781621D01*
X100749878Y-84937824D01*
X100749884Y-84937829D01*
X100930833Y-85064531D01*
X100930835Y-85064532D01*
X100930838Y-85064534D01*
X101050248Y-85120215D01*
X101059689Y-85124618D01*
X101112128Y-85170790D01*
X101131280Y-85237984D01*
X101111064Y-85304865D01*
X101059689Y-85349382D01*
X100930840Y-85409465D01*
X100930838Y-85409466D01*
X100749877Y-85536175D01*
X100593675Y-85692377D01*
X100466966Y-85873338D01*
X100466965Y-85873340D01*
X100373607Y-86073548D01*
X100373604Y-86073554D01*
X100316430Y-86286929D01*
X100316429Y-86286937D01*
X100297177Y-86506997D01*
X100297177Y-86507002D01*
X100316429Y-86727062D01*
X100316430Y-86727070D01*
X100373604Y-86940445D01*
X100373605Y-86940447D01*
X100373606Y-86940450D01*
X100445780Y-87095229D01*
X100466966Y-87140662D01*
X100466968Y-87140666D01*
X100593670Y-87321615D01*
X100593675Y-87321621D01*
X100749878Y-87477824D01*
X100749884Y-87477829D01*
X100930833Y-87604531D01*
X100930835Y-87604532D01*
X100930838Y-87604534D01*
X100966847Y-87621325D01*
X101059689Y-87664618D01*
X101112128Y-87710790D01*
X101131280Y-87777984D01*
X101111064Y-87844865D01*
X101059689Y-87889382D01*
X100930840Y-87949465D01*
X100930838Y-87949466D01*
X100749877Y-88076175D01*
X100593675Y-88232377D01*
X100466966Y-88413338D01*
X100466965Y-88413340D01*
X100373607Y-88613548D01*
X100373604Y-88613554D01*
X100316430Y-88826929D01*
X100316429Y-88826937D01*
X100297177Y-89046997D01*
X100297177Y-89047002D01*
X100316429Y-89267062D01*
X100316430Y-89267070D01*
X100373604Y-89480445D01*
X100373605Y-89480447D01*
X100373606Y-89480450D01*
X100376747Y-89487185D01*
X100466966Y-89680662D01*
X100466968Y-89680666D01*
X100593670Y-89861615D01*
X100593675Y-89861621D01*
X100749878Y-90017824D01*
X100749884Y-90017829D01*
X100930833Y-90144531D01*
X100930835Y-90144532D01*
X100930838Y-90144534D01*
X101050248Y-90200215D01*
X101059689Y-90204618D01*
X101112128Y-90250790D01*
X101131280Y-90317984D01*
X101111064Y-90384865D01*
X101059689Y-90429382D01*
X100930840Y-90489465D01*
X100930838Y-90489466D01*
X100749877Y-90616175D01*
X100593675Y-90772377D01*
X100466966Y-90953338D01*
X100466965Y-90953340D01*
X100373607Y-91153548D01*
X100373604Y-91153554D01*
X100316430Y-91366929D01*
X100316429Y-91366937D01*
X100297177Y-91586997D01*
X100297177Y-91587002D01*
X100316429Y-91807062D01*
X100316430Y-91807070D01*
X100373604Y-92020445D01*
X100373605Y-92020447D01*
X100373606Y-92020450D01*
X100466966Y-92220662D01*
X100466968Y-92220666D01*
X100593670Y-92401615D01*
X100593675Y-92401621D01*
X100749878Y-92557824D01*
X100749884Y-92557829D01*
X100930833Y-92684531D01*
X100930835Y-92684532D01*
X100930838Y-92684534D01*
X101050248Y-92740215D01*
X101059689Y-92744618D01*
X101112128Y-92790790D01*
X101131280Y-92857984D01*
X101111064Y-92924865D01*
X101059689Y-92969382D01*
X100930840Y-93029465D01*
X100930838Y-93029466D01*
X100749877Y-93156175D01*
X100593675Y-93312377D01*
X100466966Y-93493338D01*
X100466965Y-93493340D01*
X100373607Y-93693548D01*
X100373604Y-93693554D01*
X100316430Y-93906929D01*
X100316429Y-93906937D01*
X100297177Y-94126997D01*
X100297177Y-94127002D01*
X100316429Y-94347062D01*
X100316430Y-94347070D01*
X100373604Y-94560445D01*
X100373605Y-94560447D01*
X100373606Y-94560450D01*
X100466966Y-94760662D01*
X100466968Y-94760666D01*
X100593670Y-94941615D01*
X100593675Y-94941621D01*
X100749878Y-95097824D01*
X100749884Y-95097829D01*
X100930833Y-95224531D01*
X100930835Y-95224532D01*
X100930838Y-95224534D01*
X101050248Y-95280215D01*
X101059689Y-95284618D01*
X101112128Y-95330790D01*
X101131280Y-95397984D01*
X101111064Y-95464865D01*
X101059689Y-95509382D01*
X100930840Y-95569465D01*
X100930838Y-95569466D01*
X100749877Y-95696175D01*
X100593675Y-95852377D01*
X100466966Y-96033338D01*
X100466965Y-96033340D01*
X100373607Y-96233548D01*
X100373604Y-96233554D01*
X100316430Y-96446929D01*
X100316429Y-96446937D01*
X100297177Y-96666997D01*
X100297177Y-96667002D01*
X100316429Y-96887062D01*
X100316430Y-96887070D01*
X100373604Y-97100445D01*
X100373605Y-97100447D01*
X100373606Y-97100450D01*
X100466966Y-97300662D01*
X100466968Y-97300666D01*
X100593670Y-97481615D01*
X100593675Y-97481621D01*
X100749878Y-97637824D01*
X100749884Y-97637829D01*
X100930833Y-97764531D01*
X100930835Y-97764532D01*
X100930838Y-97764534D01*
X101050248Y-97820215D01*
X101059689Y-97824618D01*
X101112128Y-97870790D01*
X101131280Y-97937984D01*
X101111064Y-98004865D01*
X101059689Y-98049382D01*
X100930840Y-98109465D01*
X100930838Y-98109466D01*
X100749877Y-98236175D01*
X100593675Y-98392377D01*
X100466966Y-98573338D01*
X100466965Y-98573340D01*
X100373607Y-98773548D01*
X100373604Y-98773554D01*
X100316430Y-98986929D01*
X100316429Y-98986937D01*
X100297177Y-99206997D01*
X100297177Y-99207002D01*
X100316429Y-99427062D01*
X100316430Y-99427070D01*
X100373604Y-99640445D01*
X100373605Y-99640447D01*
X100373606Y-99640450D01*
X100419687Y-99739271D01*
X100466966Y-99840662D01*
X100466968Y-99840666D01*
X100593670Y-100021615D01*
X100593675Y-100021621D01*
X100749878Y-100177824D01*
X100749884Y-100177829D01*
X100930833Y-100304531D01*
X100930835Y-100304532D01*
X100930838Y-100304534D01*
X101049445Y-100359841D01*
X101059689Y-100364618D01*
X101112128Y-100410790D01*
X101131280Y-100477984D01*
X101111064Y-100544865D01*
X101059689Y-100589382D01*
X100930840Y-100649465D01*
X100930838Y-100649466D01*
X100749877Y-100776175D01*
X100593675Y-100932377D01*
X100466966Y-101113338D01*
X100466965Y-101113340D01*
X100373607Y-101313548D01*
X100373604Y-101313554D01*
X100316430Y-101526929D01*
X100316429Y-101526937D01*
X100297177Y-101746997D01*
X100297177Y-101747002D01*
X100316429Y-101967062D01*
X100316430Y-101967070D01*
X100373604Y-102180445D01*
X100373605Y-102180447D01*
X100373606Y-102180450D01*
X100446628Y-102337047D01*
X100466966Y-102380662D01*
X100466968Y-102380666D01*
X100593670Y-102561615D01*
X100593675Y-102561621D01*
X100749878Y-102717824D01*
X100749884Y-102717829D01*
X100930833Y-102844531D01*
X100930835Y-102844532D01*
X100930838Y-102844534D01*
X101050248Y-102900215D01*
X101059689Y-102904618D01*
X101112128Y-102950790D01*
X101131280Y-103017984D01*
X101111064Y-103084865D01*
X101059689Y-103129382D01*
X100930840Y-103189465D01*
X100930838Y-103189466D01*
X100749877Y-103316175D01*
X100593675Y-103472377D01*
X100466966Y-103653338D01*
X100466965Y-103653340D01*
X100373607Y-103853548D01*
X100373604Y-103853554D01*
X100316430Y-104066929D01*
X100316429Y-104066937D01*
X100297177Y-104286997D01*
X100297177Y-104287002D01*
X100316429Y-104507062D01*
X100316430Y-104507070D01*
X100373604Y-104720445D01*
X100373605Y-104720447D01*
X100373606Y-104720450D01*
X100466966Y-104920662D01*
X100466968Y-104920666D01*
X100593670Y-105101615D01*
X100593675Y-105101621D01*
X100749878Y-105257824D01*
X100749884Y-105257829D01*
X100930833Y-105384531D01*
X100930835Y-105384532D01*
X100930838Y-105384534D01*
X101050248Y-105440215D01*
X101059689Y-105444618D01*
X101112128Y-105490790D01*
X101131280Y-105557984D01*
X101111064Y-105624865D01*
X101059689Y-105669382D01*
X100930840Y-105729465D01*
X100930838Y-105729466D01*
X100749877Y-105856175D01*
X100593675Y-106012377D01*
X100466966Y-106193338D01*
X100466965Y-106193340D01*
X100373607Y-106393548D01*
X100373604Y-106393554D01*
X100316430Y-106606929D01*
X100316429Y-106606937D01*
X100297177Y-106826997D01*
X100297177Y-106827002D01*
X100316429Y-107047062D01*
X100316430Y-107047070D01*
X100373604Y-107260445D01*
X100373605Y-107260447D01*
X100373606Y-107260450D01*
X100466966Y-107460662D01*
X100466968Y-107460666D01*
X100593670Y-107641615D01*
X100593675Y-107641621D01*
X100749878Y-107797824D01*
X100749884Y-107797829D01*
X100930833Y-107924531D01*
X100930835Y-107924532D01*
X100930838Y-107924534D01*
X101050248Y-107980215D01*
X101059689Y-107984618D01*
X101112128Y-108030790D01*
X101131280Y-108097984D01*
X101111064Y-108164865D01*
X101059689Y-108209382D01*
X100930840Y-108269465D01*
X100930838Y-108269466D01*
X100749877Y-108396175D01*
X100593675Y-108552377D01*
X100466966Y-108733338D01*
X100466965Y-108733340D01*
X100373607Y-108933548D01*
X100373604Y-108933554D01*
X100316430Y-109146929D01*
X100316429Y-109146937D01*
X100297177Y-109366997D01*
X100297177Y-109367002D01*
X88731425Y-109367002D01*
X88866711Y-64857763D01*
X145684287Y-64857763D01*
X145713913Y-65127013D01*
X145713915Y-65127024D01*
X145782426Y-65389082D01*
X145782428Y-65389088D01*
X145888370Y-65638390D01*
X145960498Y-65756575D01*
X146029479Y-65869605D01*
X146029486Y-65869615D01*
X146202753Y-66077819D01*
X146202759Y-66077824D01*
X146404498Y-66258582D01*
X146630410Y-66408044D01*
X146875676Y-66523020D01*
X146875683Y-66523022D01*
X146875685Y-66523023D01*
X147135057Y-66601057D01*
X147135064Y-66601058D01*
X147135069Y-66601060D01*
X147403061Y-66640500D01*
X147403066Y-66640500D01*
X147606129Y-66640500D01*
X147606131Y-66640500D01*
X147606136Y-66640499D01*
X147606148Y-66640499D01*
X147643691Y-66637750D01*
X147808656Y-66625677D01*
X147921258Y-66600593D01*
X148073046Y-66566782D01*
X148073048Y-66566781D01*
X148073053Y-66566780D01*
X148326058Y-66470014D01*
X148562277Y-66337441D01*
X148776677Y-66171888D01*
X148964686Y-65976881D01*
X149122299Y-65756579D01*
X149196287Y-65612669D01*
X149246149Y-65515690D01*
X149246151Y-65515684D01*
X149246156Y-65515675D01*
X149333618Y-65259305D01*
X149382819Y-64992933D01*
X149387759Y-64857763D01*
X157114287Y-64857763D01*
X157143913Y-65127013D01*
X157143915Y-65127024D01*
X157212426Y-65389082D01*
X157212428Y-65389088D01*
X157318370Y-65638390D01*
X157390498Y-65756575D01*
X157459479Y-65869605D01*
X157459486Y-65869615D01*
X157632753Y-66077819D01*
X157632759Y-66077824D01*
X157834498Y-66258582D01*
X158060410Y-66408044D01*
X158305676Y-66523020D01*
X158305683Y-66523022D01*
X158305685Y-66523023D01*
X158565057Y-66601057D01*
X158565064Y-66601058D01*
X158565069Y-66601060D01*
X158833061Y-66640500D01*
X158833066Y-66640500D01*
X159036129Y-66640500D01*
X159036131Y-66640500D01*
X159036136Y-66640499D01*
X159036148Y-66640499D01*
X159073691Y-66637750D01*
X159238656Y-66625677D01*
X159351258Y-66600593D01*
X159503046Y-66566782D01*
X159503048Y-66566781D01*
X159503053Y-66566780D01*
X159756058Y-66470014D01*
X159992277Y-66337441D01*
X160206677Y-66171888D01*
X160394686Y-65976881D01*
X160552299Y-65756579D01*
X160626287Y-65612669D01*
X160676149Y-65515690D01*
X160676151Y-65515684D01*
X160676156Y-65515675D01*
X160763618Y-65259305D01*
X160812819Y-64992933D01*
X160817759Y-64857763D01*
X178402287Y-64857763D01*
X178431913Y-65127013D01*
X178431915Y-65127024D01*
X178500426Y-65389082D01*
X178500428Y-65389088D01*
X178606370Y-65638390D01*
X178678498Y-65756575D01*
X178747479Y-65869605D01*
X178747486Y-65869615D01*
X178920753Y-66077819D01*
X178920759Y-66077824D01*
X179122498Y-66258582D01*
X179348410Y-66408044D01*
X179593676Y-66523020D01*
X179593683Y-66523022D01*
X179593685Y-66523023D01*
X179853057Y-66601057D01*
X179853064Y-66601058D01*
X179853069Y-66601060D01*
X180121061Y-66640500D01*
X180121066Y-66640500D01*
X180324129Y-66640500D01*
X180324131Y-66640500D01*
X180324136Y-66640499D01*
X180324148Y-66640499D01*
X180361691Y-66637750D01*
X180526656Y-66625677D01*
X180639258Y-66600593D01*
X180791046Y-66566782D01*
X180791048Y-66566781D01*
X180791053Y-66566780D01*
X181044058Y-66470014D01*
X181280277Y-66337441D01*
X181494677Y-66171888D01*
X181682686Y-65976881D01*
X181840299Y-65756579D01*
X181914287Y-65612669D01*
X181964149Y-65515690D01*
X181964151Y-65515684D01*
X181964156Y-65515675D01*
X182051618Y-65259305D01*
X182100819Y-64992933D01*
X182105759Y-64857763D01*
X189832287Y-64857763D01*
X189861913Y-65127013D01*
X189861915Y-65127024D01*
X189930426Y-65389082D01*
X189930428Y-65389088D01*
X190036370Y-65638390D01*
X190108498Y-65756575D01*
X190177479Y-65869605D01*
X190177486Y-65869615D01*
X190350753Y-66077819D01*
X190350759Y-66077824D01*
X190552498Y-66258582D01*
X190778410Y-66408044D01*
X191023676Y-66523020D01*
X191023683Y-66523022D01*
X191023685Y-66523023D01*
X191283057Y-66601057D01*
X191283064Y-66601058D01*
X191283069Y-66601060D01*
X191551061Y-66640500D01*
X191551066Y-66640500D01*
X191754129Y-66640500D01*
X191754131Y-66640500D01*
X191754136Y-66640499D01*
X191754148Y-66640499D01*
X191791691Y-66637750D01*
X191956656Y-66625677D01*
X192069258Y-66600593D01*
X192221046Y-66566782D01*
X192221048Y-66566781D01*
X192221053Y-66566780D01*
X192474058Y-66470014D01*
X192710277Y-66337441D01*
X192924677Y-66171888D01*
X193112686Y-65976881D01*
X193270299Y-65756579D01*
X193344287Y-65612669D01*
X193394149Y-65515690D01*
X193394151Y-65515684D01*
X193394156Y-65515675D01*
X193481618Y-65259305D01*
X193530819Y-64992933D01*
X193540712Y-64722235D01*
X193511086Y-64452982D01*
X193442572Y-64190912D01*
X193336630Y-63941610D01*
X193195518Y-63710390D01*
X193134093Y-63636580D01*
X193022246Y-63502180D01*
X193022240Y-63502175D01*
X192820502Y-63321418D01*
X192594592Y-63171957D01*
X192524928Y-63139300D01*
X192349324Y-63056980D01*
X192349319Y-63056978D01*
X192349314Y-63056976D01*
X192089942Y-62978942D01*
X192089928Y-62978939D01*
X191974291Y-62961921D01*
X191821939Y-62939500D01*
X191618869Y-62939500D01*
X191618851Y-62939500D01*
X191416344Y-62954323D01*
X191416331Y-62954325D01*
X191151953Y-63013217D01*
X191151946Y-63013220D01*
X190898939Y-63109987D01*
X190662726Y-63242557D01*
X190448322Y-63408112D01*
X190260322Y-63603109D01*
X190260316Y-63603116D01*
X190102702Y-63823419D01*
X190102699Y-63823424D01*
X189978850Y-64064309D01*
X189978843Y-64064327D01*
X189891384Y-64320685D01*
X189891381Y-64320699D01*
X189876176Y-64403020D01*
X189854477Y-64520500D01*
X189842181Y-64587068D01*
X189842180Y-64587075D01*
X189832287Y-64857763D01*
X182105759Y-64857763D01*
X182110712Y-64722235D01*
X182081086Y-64452982D01*
X182012572Y-64190912D01*
X181906630Y-63941610D01*
X181765518Y-63710390D01*
X181704093Y-63636580D01*
X181592246Y-63502180D01*
X181592240Y-63502175D01*
X181390502Y-63321418D01*
X181164592Y-63171957D01*
X181094928Y-63139300D01*
X180919324Y-63056980D01*
X180919319Y-63056978D01*
X180919314Y-63056976D01*
X180659942Y-62978942D01*
X180659928Y-62978939D01*
X180544291Y-62961921D01*
X180391939Y-62939500D01*
X180188869Y-62939500D01*
X180188851Y-62939500D01*
X179986344Y-62954323D01*
X179986331Y-62954325D01*
X179721953Y-63013217D01*
X179721946Y-63013220D01*
X179468939Y-63109987D01*
X179232726Y-63242557D01*
X179018322Y-63408112D01*
X178830322Y-63603109D01*
X178830316Y-63603116D01*
X178672702Y-63823419D01*
X178672699Y-63823424D01*
X178548850Y-64064309D01*
X178548843Y-64064327D01*
X178461384Y-64320685D01*
X178461381Y-64320699D01*
X178446176Y-64403020D01*
X178424477Y-64520500D01*
X178412181Y-64587068D01*
X178412180Y-64587075D01*
X178402287Y-64857763D01*
X160817759Y-64857763D01*
X160822712Y-64722235D01*
X160793086Y-64452982D01*
X160724572Y-64190912D01*
X160618630Y-63941610D01*
X160477518Y-63710390D01*
X160416093Y-63636580D01*
X160304246Y-63502180D01*
X160304240Y-63502175D01*
X160102502Y-63321418D01*
X159876592Y-63171957D01*
X159806928Y-63139300D01*
X159631324Y-63056980D01*
X159631319Y-63056978D01*
X159631314Y-63056976D01*
X159371942Y-62978942D01*
X159371928Y-62978939D01*
X159256291Y-62961921D01*
X159103939Y-62939500D01*
X158900869Y-62939500D01*
X158900851Y-62939500D01*
X158698344Y-62954323D01*
X158698331Y-62954325D01*
X158433953Y-63013217D01*
X158433946Y-63013220D01*
X158180939Y-63109987D01*
X157944726Y-63242557D01*
X157730322Y-63408112D01*
X157542322Y-63603109D01*
X157542316Y-63603116D01*
X157384702Y-63823419D01*
X157384699Y-63823424D01*
X157260850Y-64064309D01*
X157260843Y-64064327D01*
X157173384Y-64320685D01*
X157173381Y-64320699D01*
X157158176Y-64403020D01*
X157136477Y-64520500D01*
X157124181Y-64587068D01*
X157124180Y-64587075D01*
X157114287Y-64857763D01*
X149387759Y-64857763D01*
X149392712Y-64722235D01*
X149363086Y-64452982D01*
X149294572Y-64190912D01*
X149188630Y-63941610D01*
X149047518Y-63710390D01*
X148986093Y-63636580D01*
X148874246Y-63502180D01*
X148874240Y-63502175D01*
X148672502Y-63321418D01*
X148446592Y-63171957D01*
X148376928Y-63139300D01*
X148201324Y-63056980D01*
X148201319Y-63056978D01*
X148201314Y-63056976D01*
X147941942Y-62978942D01*
X147941928Y-62978939D01*
X147826291Y-62961921D01*
X147673939Y-62939500D01*
X147470869Y-62939500D01*
X147470851Y-62939500D01*
X147268344Y-62954323D01*
X147268331Y-62954325D01*
X147003953Y-63013217D01*
X147003946Y-63013220D01*
X146750939Y-63109987D01*
X146514726Y-63242557D01*
X146300322Y-63408112D01*
X146112322Y-63603109D01*
X146112316Y-63603116D01*
X145954702Y-63823419D01*
X145954699Y-63823424D01*
X145830850Y-64064309D01*
X145830843Y-64064327D01*
X145743384Y-64320685D01*
X145743381Y-64320699D01*
X145728176Y-64403020D01*
X145706477Y-64520500D01*
X145694181Y-64587068D01*
X145694180Y-64587075D01*
X145684287Y-64857763D01*
X88866711Y-64857763D01*
X88873155Y-62737763D01*
X90529787Y-62737763D01*
X90559413Y-63007013D01*
X90559415Y-63007024D01*
X90620992Y-63242559D01*
X90627928Y-63269088D01*
X90733870Y-63518390D01*
X90785578Y-63603116D01*
X90874979Y-63749605D01*
X90874986Y-63749615D01*
X91048253Y-63957819D01*
X91048259Y-63957824D01*
X91249998Y-64138582D01*
X91475910Y-64288044D01*
X91721176Y-64403020D01*
X91721183Y-64403022D01*
X91721185Y-64403023D01*
X91980557Y-64481057D01*
X91980564Y-64481058D01*
X91980569Y-64481060D01*
X92248561Y-64520500D01*
X92248566Y-64520500D01*
X92451629Y-64520500D01*
X92451631Y-64520500D01*
X92451636Y-64520499D01*
X92451648Y-64520499D01*
X92489191Y-64517750D01*
X92654156Y-64505677D01*
X92766758Y-64480593D01*
X92918546Y-64446782D01*
X92918548Y-64446781D01*
X92918553Y-64446780D01*
X93171558Y-64350014D01*
X93407777Y-64217441D01*
X93622177Y-64051888D01*
X93810186Y-63856881D01*
X93967799Y-63636579D01*
X94085262Y-63408112D01*
X94091649Y-63395690D01*
X94091651Y-63395684D01*
X94091656Y-63395675D01*
X94179118Y-63139305D01*
X94228319Y-62872933D01*
X94233259Y-62737763D01*
X200529787Y-62737763D01*
X200559413Y-63007013D01*
X200559415Y-63007024D01*
X200620992Y-63242559D01*
X200627928Y-63269088D01*
X200733870Y-63518390D01*
X200785578Y-63603116D01*
X200874979Y-63749605D01*
X200874986Y-63749615D01*
X201048253Y-63957819D01*
X201048259Y-63957824D01*
X201249998Y-64138582D01*
X201475910Y-64288044D01*
X201721176Y-64403020D01*
X201721183Y-64403022D01*
X201721185Y-64403023D01*
X201980557Y-64481057D01*
X201980564Y-64481058D01*
X201980569Y-64481060D01*
X202248561Y-64520500D01*
X202248566Y-64520500D01*
X202451629Y-64520500D01*
X202451631Y-64520500D01*
X202451636Y-64520499D01*
X202451648Y-64520499D01*
X202489191Y-64517750D01*
X202654156Y-64505677D01*
X202766758Y-64480593D01*
X202918546Y-64446782D01*
X202918548Y-64446781D01*
X202918553Y-64446780D01*
X203171558Y-64350014D01*
X203407777Y-64217441D01*
X203622177Y-64051888D01*
X203810186Y-63856881D01*
X203967799Y-63636579D01*
X204085262Y-63408112D01*
X204091649Y-63395690D01*
X204091651Y-63395684D01*
X204091656Y-63395675D01*
X204179118Y-63139305D01*
X204228319Y-62872933D01*
X204238212Y-62602235D01*
X204208586Y-62332982D01*
X204140072Y-62070912D01*
X204034130Y-61821610D01*
X203893018Y-61590390D01*
X203803747Y-61483119D01*
X203719746Y-61382180D01*
X203719740Y-61382175D01*
X203518002Y-61201418D01*
X203292092Y-61051957D01*
X203292090Y-61051956D01*
X203046824Y-60936980D01*
X203046819Y-60936978D01*
X203046814Y-60936976D01*
X202787442Y-60858942D01*
X202787428Y-60858939D01*
X202671791Y-60841921D01*
X202519439Y-60819500D01*
X202316369Y-60819500D01*
X202316351Y-60819500D01*
X202113844Y-60834323D01*
X202113831Y-60834325D01*
X201849453Y-60893217D01*
X201849446Y-60893220D01*
X201596439Y-60989987D01*
X201360226Y-61122557D01*
X201145822Y-61288112D01*
X200957822Y-61483109D01*
X200957816Y-61483116D01*
X200800202Y-61703419D01*
X200800199Y-61703424D01*
X200676350Y-61944309D01*
X200676343Y-61944327D01*
X200588884Y-62200685D01*
X200588881Y-62200699D01*
X200539681Y-62467068D01*
X200539680Y-62467075D01*
X200529787Y-62737763D01*
X94233259Y-62737763D01*
X94238212Y-62602235D01*
X94208586Y-62332982D01*
X94140072Y-62070912D01*
X94034130Y-61821610D01*
X93893018Y-61590390D01*
X93803747Y-61483119D01*
X93719746Y-61382180D01*
X93719740Y-61382175D01*
X93518002Y-61201418D01*
X93292092Y-61051957D01*
X93292090Y-61051956D01*
X93046824Y-60936980D01*
X93046819Y-60936978D01*
X93046814Y-60936976D01*
X92787442Y-60858942D01*
X92787428Y-60858939D01*
X92671791Y-60841921D01*
X92519439Y-60819500D01*
X92316369Y-60819500D01*
X92316351Y-60819500D01*
X92113844Y-60834323D01*
X92113831Y-60834325D01*
X91849453Y-60893217D01*
X91849446Y-60893220D01*
X91596439Y-60989987D01*
X91360226Y-61122557D01*
X91145822Y-61288112D01*
X90957822Y-61483109D01*
X90957816Y-61483116D01*
X90800202Y-61703419D01*
X90800199Y-61703424D01*
X90676350Y-61944309D01*
X90676343Y-61944327D01*
X90588884Y-62200685D01*
X90588881Y-62200699D01*
X90539681Y-62467068D01*
X90539680Y-62467075D01*
X90529787Y-62737763D01*
X88873155Y-62737763D01*
X88883625Y-59293098D01*
X88903513Y-59226122D01*
X88956456Y-59180528D01*
X89007097Y-59169479D01*
X206009477Y-58674526D01*
X206076598Y-58693927D01*
G37*
%TD.AperFunction*%
%TD*%
M02*
